<?xml version="1.0" encoding="utf-8"?><svg xmlns="http://www.w3.org/2000/svg" xmlns:xlink="http://www.w3.org/1999/xlink"><symbol fill="currentColor" viewBox="0 0 135 40" id="app-store-button" xmlns="http://www.w3.org/2000/svg"><path d="M130 .8a4.2 4.2 0 014.2 4.2v30a4.198 4.198 0 01-4.2 4.2H5A4.2 4.2 0 01.8 35V5A4.2 4.2 0 015 .8h125zm0-.8H5a5 5 0 00-5 5v30a5 5 0 005 5h125a5.002 5.002 0 005-5V5a5.002 5.002 0 00-5-5z"/><path d="M32.113 19.313c-.028-3.07 2.514-4.565 2.63-4.634-1.44-2.1-3.67-2.386-4.455-2.41-1.874-.196-3.692 1.122-4.647 1.122-.973 0-2.443-1.102-4.028-1.07-2.039.032-3.947 1.212-4.993 3.046-2.159 3.737-.549 9.23 1.52 12.252 1.035 1.48 2.244 3.132 3.826 3.073 1.549-.063 2.127-.987 3.996-.987 1.85 0 2.394.987 4.008.95 1.662-.026 2.708-1.486 3.706-2.98 1.196-1.695 1.676-3.365 1.695-3.451-.039-.014-3.227-1.23-3.258-4.91zM29.064 10.282c.833-1.041 1.402-2.458 1.244-3.896-1.205.054-2.712.834-3.58 1.853-.768.897-1.454 2.368-1.277 3.752 1.354.1 2.744-.684 3.613-1.709zM54.52 30.48h-2.164l-1.185-3.725h-4.12l-1.13 3.725h-2.106l4.082-12.68h2.521l4.102 12.68zm-3.707-5.287l-1.072-3.311c-.113-.339-.325-1.135-.639-2.39h-.038a92.23 92.23 0 01-.602 2.39l-1.053 3.31h3.404zM65.017 25.796c0 1.555-.42 2.784-1.26 3.686-.754.803-1.688 1.205-2.804 1.205-1.204 0-2.07-.433-2.596-1.298h-.039v4.816h-2.03v-9.858c0-.978-.027-1.981-.076-3.01h1.786l.114 1.449h.038c.677-1.092 1.705-1.637 3.085-1.637 1.079 0 1.979.426 2.7 1.279.721.853 1.082 1.976 1.082 3.368zm-2.07.074c0-.89-.2-1.623-.602-2.2-.44-.603-1.029-.904-1.768-.904-.502 0-.957.168-1.364.498a2.311 2.311 0 00-.8 1.308 2.66 2.66 0 00-.094.62v1.524c0 .665.204 1.226.612 1.685.408.458.938.687 1.59.687.764 0 1.36-.296 1.786-.884.427-.59.64-1.368.64-2.334zM75.533 25.796c0 1.555-.42 2.784-1.261 3.686-.752.803-1.687 1.205-2.803 1.205-1.204 0-2.07-.433-2.595-1.298h-.038v4.816h-2.032v-9.858c0-.978-.025-1.981-.075-3.01h1.787l.113 1.449h.038c.677-1.092 1.705-1.637 3.085-1.637 1.078 0 1.978.426 2.7 1.279.72.853 1.081 1.976 1.081 3.368zm-2.07.074c0-.89-.2-1.623-.603-2.2-.439-.603-1.027-.904-1.767-.904-.502 0-.957.168-1.365.498a2.31 2.31 0 00-.798 1.308 2.714 2.714 0 00-.094.62v1.524c0 .665.204 1.226.61 1.685.407.457.937.687 1.59.687.766 0 1.361-.296 1.787-.884.427-.59.64-1.368.64-2.334zM87.29 26.924c0 1.079-.374 1.956-1.126 2.634-.826.74-1.976 1.11-3.453 1.11-1.365 0-2.459-.264-3.287-.79l.471-1.694c.892.54 1.87.81 2.937.81.765 0 1.36-.173 1.788-.518.426-.345.638-.808.638-1.385 0-.515-.175-.948-.526-1.3-.35-.352-.934-.678-1.75-.98-2.22-.828-3.329-2.041-3.329-3.636 0-1.043.389-1.897 1.167-2.562.776-.666 1.81-.999 3.104-.999 1.154 0 2.113.201 2.878.602l-.508 1.656c-.715-.389-1.522-.583-2.427-.583-.714 0-1.273.176-1.673.527a1.506 1.506 0 00-.508 1.148c0 .501.194.916.582 1.242.339.3.953.627 1.845.978 1.091.44 1.892.953 2.408 1.542.513.587.77 1.321.77 2.198zM94.007 22.861h-2.24v4.44c0 1.128.395 1.692 1.186 1.692.363 0 .664-.031.902-.094l.057 1.543c-.4.15-.928.225-1.58.225-.802 0-1.43-.245-1.882-.734-.45-.49-.677-1.311-.677-2.465v-4.609h-1.334v-1.524h1.334V19.66l1.995-.603v2.277h2.239v1.526zM104.11 25.833c0 1.405-.402 2.56-1.205 3.462-.841.928-1.958 1.392-3.35 1.392-1.341 0-2.41-.445-3.206-1.335-.797-.89-1.195-2.014-1.195-3.367 0-1.417.41-2.578 1.232-3.48.82-.903 1.928-1.355 3.32-1.355 1.341 0 2.421.445 3.235 1.336.78.864 1.169 1.98 1.169 3.347zm-2.108.066c0-.844-.18-1.567-.545-2.17-.426-.73-1.035-1.094-1.824-1.094-.816 0-1.436.365-1.862 1.094-.365.604-.545 1.339-.545 2.208 0 .843.18 1.566.545 2.168.439.73 1.052 1.094 1.844 1.094.776 0 1.385-.371 1.824-1.113.374-.614.563-1.345.563-2.187zM110.712 23.123a3.519 3.519 0 00-.64-.056c-.715 0-1.267.27-1.656.81-.338.476-.508 1.078-.508 1.805v4.798h-2.03l.019-6.264c0-1.054-.026-2.013-.076-2.878h1.769l.074 1.749h.057c.214-.601.552-1.085 1.015-1.448.453-.327.942-.49 1.469-.49.187 0 .357.013.507.037v1.937zM119.797 25.476c0 .364-.023.67-.074.921h-6.094c.024.903.318 1.594.884 2.07.514.427 1.178.64 1.993.64.903 0 1.726-.144 2.466-.433l.319 1.41c-.866.378-1.887.566-3.066.566-1.417 0-2.53-.418-3.34-1.252-.808-.833-1.213-1.953-1.213-3.357 0-1.379.376-2.527 1.13-3.443.789-.977 1.855-1.466 3.197-1.466 1.317 0 2.315.489 2.992 1.466.537.777.806 1.737.806 2.878zm-1.937-.527c.014-.602-.119-1.123-.394-1.562-.352-.565-.892-.847-1.619-.847-.664 0-1.204.276-1.617.828-.338.44-.539.966-.601 1.58h4.231zM51.098 14.701H50.04v-1.576h-4.222v1.576h-1.075l-.035-2.465h.515c.256-.247.46-.605.612-1.075a6.87 6.87 0 00.295-1.602l.168-2.844h4.041v5.52h.815l-.057 2.466zm-4.614-2.465h2.747V7.613H47.36l-.106 1.805c-.08 1.206-.336 2.146-.77 2.818zM52.138 10.7c0-.468.093-.887.278-1.26.185-.376.444-.663.779-.863.335-.203.72-.304 1.154-.304.642 0 1.163.207 1.563.621.402.414.619.963.651 1.647l.005.25c0 .47-.091.89-.273 1.26-.18.37-.438.656-.775.858a2.2 2.2 0 01-1.163.304c-.672 0-1.21-.223-1.615-.67-.402-.448-.604-1.045-.604-1.791v-.053zm1.07.092c0 .49.102.874.304 1.153.203.276.484.414.845.414s.642-.141.841-.423c.203-.281.304-.694.304-1.237 0-.481-.104-.863-.313-1.145a.985.985 0 00-.84-.422.98.98 0 00-.833.418c-.205.276-.308.69-.308 1.242zM59.88 12.359a.968.968 0 00.665-.233.798.798 0 00.282-.577h1.008a1.582 1.582 0 01-.278.832 1.826 1.826 0 01-.704.607 2.1 2.1 0 01-.96.225c-.666 0-1.194-.216-1.585-.647-.39-.432-.585-1.027-.585-1.788v-.11c0-.725.194-1.304.58-1.739.388-.437.917-.656 1.586-.656.566 0 1.027.166 1.382.498.358.328.546.761.564 1.298h-1.008a.975.975 0 00-.282-.673.892.892 0 00-.665-.264c-.346 0-.613.126-.801.378-.188.25-.283.63-.286 1.14v.172c0 .517.092.903.277 1.158.188.253.458.379.81.379zM66.843 9.211h-1.546v3.914h-1.07V9.211H62.7v-.85h4.142v.85zM69.728 11.593l.969-3.232h1.14l-1.893 5.486c-.29.801-.784 1.202-1.48 1.202-.155 0-.327-.026-.515-.08v-.827l.203.013c.27 0 .472-.05.608-.15.137-.096.246-.26.325-.493l.154-.409-1.673-4.742h1.154l1.008 3.232zM76.946 13.125h-1.07v-3.9h-1.858v3.9h-1.07V8.361h3.998v4.764zM82.57 13.125H81.5v-1.924h-1.854v1.924h-1.07V8.361h1.07v1.986H81.5V8.36h1.07v4.764zM83.963 10.7c0-.468.092-.887.277-1.26.185-.376.445-.663.78-.863.334-.203.719-.304 1.153-.304.643 0 1.164.207 1.563.621.402.414.62.963.652 1.647l.004.25c0 .47-.091.89-.273 1.26-.179.37-.437.656-.775.858a2.2 2.2 0 01-1.162.304c-.672 0-1.21-.223-1.616-.67-.402-.448-.603-1.045-.603-1.791v-.053zm1.07.092c0 .49.101.874.303 1.153.203.276.485.414.846.414.36 0 .641-.141.84-.423.203-.281.304-.694.304-1.237 0-.481-.104-.863-.312-1.145a.985.985 0 00-.841-.422.98.98 0 00-.832.418c-.206.276-.308.69-.308 1.242zM92.525 13.125V8.361h1.933c.652 0 1.148.115 1.488.344.34.226.51.551.51.977a.94.94 0 01-.206.594c-.135.174-.336.307-.603.401.31.065.557.195.74.392a.99.99 0 01.272.696c0 .443-.164.78-.493 1.012-.326.232-.795.348-1.409.348h-2.232zm1.07-2.03v1.185h1.171c.55 0 .823-.197.823-.59 0-.396-.278-.595-.836-.595h-1.158zm0-.766h.88c.608 0 .912-.179.912-.537 0-.376-.288-.57-.863-.581h-.929v1.118z"/></symbol><symbol fill="currentColor" viewBox="0 0 36 36" id="car" xmlns="http://www.w3.org/2000/svg"><path d="M6.805 20.795a2.99 2.99 0 100 5.98 2.99 2.99 0 000-5.98z"/><path d="M34.817 16.956l-3.333-1.521a.631.631 0 01-.276-.239l-2.888-4.603a2.916 2.916 0 00-2.496-1.368H14.088a2.944 2.944 0 00-2.34 1.147l-3.715 4.866a.626.626 0 01-.334.228l-6.207 1.699A2.038 2.038 0 000 19.142v2.27c0 1.13.884 2.07 2.014 2.07h.54a4.263 4.263 0 018.502 0h13.44a4.263 4.263 0 018.503 0h.988c1.13 0 2.013-.94 2.013-2.07V18.82c.007-.8-.456-1.53-1.183-1.864z"/><path d="M28.747 20.795a2.99 2.99 0 100 5.98 2.99 2.99 0 000-5.98z"/></symbol><symbol fill="none" viewBox="0 0 81 81" id="emblem" xmlns="http://www.w3.org/2000/svg"><path fill="#fff" d="M79.213 49.455C84.3 27.955 70.962 6.41 49.421 1.333 27.881-3.743 6.296 9.57 1.209 31.071c-5.086 21.5 8.253 43.045 29.793 48.121 21.54 5.077 43.125-8.237 48.212-29.737z"/><path fill="#257ACF" d="M55.218 63.986a4.707 4.707 0 004.73-4.722V27.26H21.052v31.794c0 2.519 2.103 4.932 4.731 4.932h10.513a4.707 4.707 0 014.73 4.722 4.707 4.707 0 014.731-4.722h9.462z"/><path fill="#fff" d="M59.949 27.26v32.004a4.707 4.707 0 01-4.731 4.722h-9.462a4.707 4.707 0 00-4.73 4.722 4.707 4.707 0 00-4.731-4.722H25.782c-2.628 0-4.73-2.413-4.73-4.931V27.26h38.897zm0-1.049H21.05c-.63 0-1.051.42-1.051 1.05v31.793c0 3.253 2.628 5.981 5.782 5.981h10.513c1.997 0 3.68 1.68 3.68 3.673 0 .63.42 1.05 1.05 1.05.631 0 1.052-.42 1.052-1.05 0-1.994 1.682-3.672 3.68-3.672h9.46c3.155 0 5.783-2.624 5.783-5.772V27.26c0-.63-.42-1.049-1.051-1.049z" opacity=".5"/><path fill="#F84034" d="M59.949 15.718H20v14.69h39.949v-14.69z"/><path fill="#fff" d="M57.846 24.113v-3.148h-2.102v3.148h-4.206v-3.148h-2.102v3.148H45.23v-3.148h-2.103v3.148h-5.256v-3.148h-2.103v3.148h-4.205v-3.148h-2.102v3.148h-4.206v-3.148h-2.102v3.148H20v5.246h41v-5.247h-3.154zM53.115 56.326c.526-1.259 1.157-1.784.841-3.882-.21-1.574-.84-2.414-.946-3.148.42 0 .736.105.946.315-.105-.42-1.156-2.099-2.102-2.728.21.63-.21 2.728 0 3.357.315-.42.526-.734.736-.84.105.316.84 2.834 0 3.883-.841 1.154-2.208 1.26-3.785.21-.946-.63-8.305-6.61-13.246-10.493.736-.84 2.733-4.932 2.838-5.142l-.736-.42-3.994 4.093c-.841-.734-1.577-1.26-1.998-1.679.526-.944.316-2.098-.525-2.728l-.105-.105c0-.944-.421-1.889-1.262-2.518-1.472-1.26-3.574-1.05-4.836.42-1.261 1.468-1.051 3.567.42 4.826.736.63 1.788.945 2.734.735l.105.105a2.228 2.228 0 002.838.105c.421.314 1.052.944 1.893 1.678l-3.89 4.093.42.63c.21-.106 4.416-2.31 5.257-3.149 4.73 4.198 11.88 10.598 12.615 11.333 1.367 1.364 1.472 2.728.42 3.672-.945.945-3.574.735-3.889.63 0-.315.316-.525.63-.84-.63-.104-2.627.735-3.363.63.84.84 2.628 1.574 3.048 1.68-.21-.21-.42-.42-.525-.945.736.105 1.682.524 3.364.42 2.102-.105 2.628-.735 3.68-1.47.84-.524 1.576-.524 2.312-.21-.105-.839-.315-1.573.105-2.518zM27.99 37.334c-.42.524-.631 1.154-.526 1.784-.42 0-.84-.21-1.156-.525-.841-.735-1.052-2.099-.21-2.938.735-.84 2.102-.944 2.943-.21.315.315.63.734.63 1.154-.63 0-1.156.315-1.681.735zm.736.63c.315-.315.63-.525 1.05-.525-.104.315-.21.734-.42.944-.21.315-.525.525-.946.63-.105-.315 0-.735.316-1.05zm2.102 1.783c-.63.735-1.682.42-1.577.42.42-.21.736-.525 1.052-.84a2.5 2.5 0 00.63-1.154c.316.42.316 1.05-.105 1.574z"/><path fill="#8A8A8A" d="M22.103 23.063H20v1.05h7.359v2.098H20v1.05h4.205v2.098H20v1.05h41v-1.05h-4.205V27.26H61v-1.049h-7.359v-2.099H61v-1.049H22.103zm6.307 0h-2.102 2.102zm6.308 0h-2.103 2.103zm7.359 0h-3.154 3.154zm6.308 0h-2.103 2.103zm6.307 0H52.59h2.102zm3.154 0h-2.102 2.102zm-32.59 0h-2.102 2.102zm26.282 0h-2.102 2.102zm1.052 1.05v2.098h-7.36v-2.099h7.36zm-7.36-1.05h-2.102 2.103zm-1.05 1.05v2.098h-7.36v-2.099h7.36zm-6.308-1.05h-2.103 2.103zm-6.308 0h-2.102 2.102zm-3.154 1.05h7.36v2.098h-7.36v-2.099zm3.154 5.246h-6.308V27.26h6.308v2.099zm8.41 0h-7.359V27.26h7.36v2.099zm8.41 0h-7.358V27.26h7.359v2.099zm7.36-2.099v2.099h-6.308V27.26h6.308z"/><path fill="#FFA000" d="M55.113 34.605c-1.051-1.154-2.839-1.259-3.995-.21-.21.21-.42.525-.63.735a2.48 2.48 0 00-.947-.84c-1.367-.734-3.154-.21-3.89 1.155-.736 1.364-.21 3.148 1.157 3.882.525.315 1.051.42 1.682.315l-.526.42-.736.21v.42l-.315.21a.67.67 0 00-.63 0v.839L31.037 55.59l-.63-.734 1.051-.944-.105-.21h-.526l-.105-.63-1.156-1.259-.736.63 1.051 1.154-.736.63-1.051-1.155-.736.63 1.051 1.26-.736.629-1.05-1.154-.737.63 1.157 1.258.63.21v.525l.21.105 1.052-.945.63.63-1.05.944.21.21-.316.315c-.315-.21-.736-.105-1.051.105-.42.315-.42.944-.105 1.259.315.42.946.42 1.261.105.316-.315.316-.63.21-1.05l.316-.314.21.21 17.662-15.95c.21.105.42.105.63 0 .106-.105.21-.315.106-.63l.315-.21.42.106.316-.735.526-.42c-.105.525-.105 1.155.21 1.68.63 1.468 2.313 2.203 3.785 1.573 1.471-.63 2.102-2.308 1.577-3.777a3.77 3.77 0 00-.736-1.05 2.29 2.29 0 00.84-.524c1.157-1.05 1.262-2.938.21-4.093zm-2.418 3.883l-.21.84c.105 0 .21.104.42.104.526.21.841.63 1.051 1.05.21.524.21 1.049 0 1.469-.21.524-.63.84-1.05 1.049-.526.21-1.052.21-1.473 0-.525-.21-.84-.63-1.05-1.05-.211-.524-.211-1.049 0-1.468 0-.105.104-.105.104-.21l-.525-.525.63-.525c.316.21.736.105 1.052-.105.42-.314.42-.944.105-1.364-.316-.42-.946-.42-1.367-.105-.315.315-.42.735-.21 1.05l-.63.524-.527-.524c-.105 0-.21.105-.21.105-.526.105-1.051.105-1.472-.105-.42-.21-.84-.63-.946-1.154-.105-.525-.105-1.05.105-1.47.21-.42.631-.839 1.157-.944.525-.21 1.051-.105 1.471.105.421.21.842.63.947 1.154 0 .105.105.21.105.42l.84-.105c0-.525.211-1.154.632-1.574.84-.734 1.997-.63 2.733.105.736.84.63 1.994-.105 2.728-.42.42-1.051.63-1.577.525z"/><path fill="#EEF3F8" d="M26.308 23.063v-3.148H22.102v3.148h1.052v-2.098h2.102v2.098h1.052zM32.615 23.063v-3.148H28.41v3.148h1.052v-2.098h2.102v2.098h1.051zM38.923 23.063v-3.148h-4.205v3.148h1.051v-2.098h2.103v2.098h1.051zM46.282 23.063v-3.148h-4.205v3.148h1.051v-2.098h2.103v2.098h1.051zM52.59 23.063v-3.148h-4.205v3.148h1.05v-2.098h2.103v2.098h1.052zM58.897 23.063v-3.148h-4.204v3.148h1.05v-2.098h2.103v2.098h1.051zM59.949 23.063H20v1.05h39.949v-1.05z"/></symbol><symbol fill="none" viewBox="0 0 82 82" id="emblem-mono" xmlns="http://www.w3.org/2000/svg"><path fill="#00A99D" d="M80.076 50.193c5.087-21.5-8.252-43.045-29.792-48.122-21.54-5.077-43.125 8.237-48.211 29.737-5.087 21.5 8.252 43.045 29.792 48.122 21.54 5.076 43.125-8.237 48.212-29.738z"/><path fill="#fff" d="M25.83 52.983l-1.189 1.187 2.934 2.928 2.378-2.374 1.19 1.187-1.785 1.78 1.19 1.187L41.647 47.8l10.425 10.406c-.872.118-1.744.514-2.378 1.147a4.226 4.226 0 01-4.123 1.068 4.15 4.15 0 001.784-1.068l-1.19-1.187c-.95.95-2.615.95-3.527 0l-1.19 1.187 1.19 1.187a5.763 5.763 0 004.123 1.701c1.506 0 3.012-.554 4.122-1.701.951-.95 2.616-.95 3.528 0l1.19-1.187c-.477-.475-.714-1.108-.714-1.78 0-.673.277-1.306.713-1.781 2.26-2.255 2.26-5.975 0-8.27l-1.189-1.186-1.19 1.187c.992.989.992 2.571 0 3.521l1.19 1.187a4.137 4.137 0 001.07-1.78c.397 1.424.08 3.007-1.07 4.114a4.076 4.076 0 00-1.15 2.374L42.876 46.573l4.955-4.946c.119.87.475 1.701 1.15 2.374a4.113 4.113 0 002.933 1.227c1.11 0 2.18-.436 2.933-1.227 1.506-1.503 1.625-3.877.357-5.5a4.127 4.127 0 002.537-3.837 4.158 4.158 0 00-4.163-4.155c-1.11 0-2.18.435-2.933 1.227-.396.395-.674.83-.872 1.305-1.625-1.266-4.004-1.147-5.51.356a4.174 4.174 0 000 5.896c.634.633 1.507 1.029 2.379 1.147l-4.956 4.946-4.36-4.352 4.123-4.115-1.19-1.187-4.122 4.115-1.269-1.266a3.147 3.147 0 00.476-1.702c0-.91-.357-1.74-.99-2.374a3.388 3.388 0 00-1.15-.752 4.278 4.278 0 00-1.19-2.809c-1.585-1.582-4.32-1.582-5.906 0a4.174 4.174 0 000 5.896c.793.791 1.784 1.147 2.775 1.187.158.435.396.83.753 1.147a3.4 3.4 0 002.378.99c.595 0 1.15-.159 1.705-.476l1.268 1.267-4.122 4.114 1.189 1.187 4.123-4.114 4.36 4.352-8.206 8.23-1.189-1.187 2.379-2.374-2.934-2.928-1.189 1.187 1.784 1.78-1.19 1.187-1.783-1.78-1.19 1.187 1.785 1.78-1.19 1.187-1.784-1.78zm19.583-14.838c-.991-.989-.991-2.571 0-3.521.99-.99 2.576-.99 3.528 0l.673.673 1.428-.594c0-.672.277-1.306.713-1.78a2.524 2.524 0 011.784-.752 2.485 2.485 0 012.497 2.492 2.485 2.485 0 01-2.497 2.493l-.595 1.425.674.672c.991.99.991 2.572 0 3.522-.951.95-2.576.95-3.528 0-.99-.99-.99-2.572 0-3.522l-1.189-1.187c-.872 1.029-2.537 1.029-3.488.08zm-16.728-1.701a2.583 2.583 0 01-1.427-.712c-.991-.99-.991-2.572 0-3.522a2.524 2.524 0 011.783-.751c.674 0 1.308.277 1.784.751.397.396.634.91.714 1.425-.674.119-1.348.396-1.863.91a3.412 3.412 0 00-.991 1.899zm4.479 1.662c-.634.633-1.705.633-2.379 0-.079-.08-.118-.198-.198-.277.516-.198.952-.514 1.348-.91.396-.396.714-.87.912-1.345.08.079.198.118.277.197.317.317.476.752.476 1.187.04.396-.119.831-.436 1.148zM20.202 16.819v40.833c0 4.154 3.37 7.517 7.531 7.517h10.03a2.485 2.485 0 012.497 2.493h1.664a2.485 2.485 0 012.498-2.493H54.45c4.162 0 7.531-3.363 7.531-7.517V16.819h-41.78zm1.664 5.025h1.665v1.662h-1.665v-1.662zm0 3.324H33.56v1.661H21.866v-1.661zm25.053 0v1.661H35.225v-1.661H46.92zm-1.665-1.662v-1.662h4.995v1.662h-4.995zm-8.364 0h-4.995v-1.662h4.995v1.662zM60.278 57.69c0 3.205-2.617 5.816-5.827 5.816H44.42a4.227 4.227 0 00-3.33 1.662 4.114 4.114 0 00-3.329-1.662H27.733c-3.21 0-5.827-2.611-5.827-5.816v-29.16h38.411v29.16h-.04zm0-30.862H48.584v-1.661h11.694v1.661zm0-3.323h-1.665v-1.662h1.665v1.662zm0-3.324h-3.33v3.324h-4.995v-3.324H43.59v3.324h-4.994v-3.324H30.23v3.324h-4.995v-3.324h-3.33V18.52h38.411v1.662h-.04zM27.02 60.065l1.189 1.187 1.19-1.187-1.19-1.187-1.19 1.187zm25.488-23.107l-1.189-1.187-1.19 1.187 1.19 1.187 1.19-1.187z"/></symbol><symbol fill="currentColor" viewBox="0 0 77 57" id="factory" xmlns="http://www.w3.org/2000/svg"><path d="M25.115 8.732H2.255A2.256 2.256 0 000 10.988v42.861a2.256 2.256 0 002.256 2.256h4.662V41.818a2.256 2.256 0 012.256-2.256h9.023a2.256 2.256 0 012.256 2.256v14.287h6.918V10.988a2.256 2.256 0 00-2.256-2.256zM11.43 32.794a2.256 2.256 0 11-4.512 0v-3.007a2.256 2.256 0 014.512 0v3.007zm0-12.03a2.256 2.256 0 01-4.512 0v-3.009a2.256 2.256 0 014.512 0v3.008zm9.023 12.03a2.256 2.256 0 11-4.512 0v-3.007a2.256 2.256 0 014.512 0v3.007zm0-12.03a2.256 2.256 0 01-4.512 0v-3.009a2.256 2.256 0 114.512 0v3.008z"/><path d="M11.43 44.074h4.511v12.03H11.43v-12.03zM46.547.46h-5.264a2.256 2.256 0 00-2.239 1.976l-2.478 19.831h14.698l-2.48-19.83A2.256 2.256 0 0046.548.46zM60.099 2.436L57.62 22.267h14.698L69.84 2.437A2.256 2.256 0 0067.6.46h-5.264A2.256 2.256 0 0060.1 2.436zM74.744 26.779H31.883v29.326h9.775v-11.28a2.256 2.256 0 012.256-2.255H64.97a2.256 2.256 0 012.256 2.256v11.279h7.52A2.256 2.256 0 0077 53.849V29.035a2.256 2.256 0 00-2.256-2.256zm-30.83 11.279h-3.008a2.256 2.256 0 110-4.512h3.008a2.256 2.256 0 010 4.512zm12.031 0h-3.008a2.256 2.256 0 010-4.512h3.008a2.256 2.256 0 110 4.512zm12.032 0h-3.008a2.256 2.256 0 110-4.512h3.008a2.256 2.256 0 010 4.512z"/><path d="M46.17 47.081h16.543v9.024H46.17V47.08z"/></symbol><symbol fill="currentColor" viewBox="0 0 77 77" id="factory-2" xmlns="http://www.w3.org/2000/svg"><path d="M75.686 37.369a2.768 2.768 0 00-1.934-.37l-.621-30.256a2.772 2.772 0 00-2.772-2.715h-8.056a2.772 2.772 0 00-2.772 2.715l-.653 31.827a2.768 2.768 0 00-1.056-1.202 2.771 2.771 0 00-2.695-.123l-1.467.732V22.145a2.772 2.772 0 00-2.771-2.772h-3.354a2.772 2.772 0 00-2.772 2.772v20.27l-3.49 1.742v-4.43a2.772 2.772 0 00-4.01-2.481l-13.855 6.911v-4.43a2.772 2.772 0 00-4.01-2.48l-17.863 8.91A2.772 2.772 0 000 48.637V70.2a2.772 2.772 0 002.772 2.772h71.456A2.772 2.772 0 0077 70.2V39.726c0-.96-.497-1.852-1.314-2.357zM15.582 63.46a2.772 2.772 0 01-2.772 2.772H7.807a2.772 2.772 0 01-2.772-2.772v-3.45a2.772 2.772 0 012.772-2.771h5.003a2.772 2.772 0 012.772 2.772v3.449zm21.267 0a2.772 2.772 0 01-2.772 2.772h-5.004a2.772 2.772 0 01-2.772-2.772v-3.45a2.772 2.772 0 012.772-2.771h5.004a2.772 2.772 0 012.772 2.772v3.449zm21.267 0a2.772 2.772 0 01-2.772 2.772H50.34a2.772 2.772 0 01-2.772-2.772v-3.45a2.772 2.772 0 012.772-2.771h5.004a2.772 2.772 0 012.772 2.772v3.449z"/></symbol><symbol fill="currentColor" viewBox="0 0 135 40" id="google-play-button" xmlns="http://www.w3.org/2000/svg"><path d="M130 .8a4.2 4.2 0 014.2 4.2v30a4.198 4.198 0 01-4.2 4.2H5A4.2 4.2 0 01.8 35V5A4.2 4.2 0 015 .8h125zm0-.8H5a5 5 0 00-5 5v30a5 5 0 005 5h125a5.002 5.002 0 005-5V5a5.002 5.002 0 00-5-5z"/><path d="M68.14 21.75A4.25 4.25 0 1072.41 26a4.19 4.19 0 00-4.27-4.25zm0 6.83a2.58 2.58 0 112.4-2.58 2.46 2.46 0 01-2.4 2.58zm-9.31-6.83A4.25 4.25 0 1063.09 26a4.19 4.19 0 00-4.27-4.25h.01zm0 6.83A2.58 2.58 0 1161.22 26a2.46 2.46 0 01-2.4 2.58h.01zm-11.09-5.52v1.8h4.32a3.77 3.77 0 01-1 2.27 4.42 4.42 0 01-3.33 1.32 4.8 4.8 0 010-9.6A4.6 4.6 0 0151 20.14l1.27-1.27A6.29 6.29 0 0047.74 17a6.611 6.611 0 100 13.21 6 6 0 004.61-1.85 6 6 0 001.56-4.22c.003-.379-.03-.757-.1-1.13l-6.07.05zm45.31 1.4a4 4 0 00-3.64-2.71 4 4 0 00-4 4.25 4.16 4.16 0 004.22 4.25 4.23 4.23 0 003.54-1.88l-1.45-1a2.43 2.43 0 01-2.09 1.18 2.16 2.16 0 01-2.06-1.29l5.69-2.35-.21-.45zm-5.8 1.42a2.33 2.33 0 012.22-2.48 1.65 1.65 0 011.58.9l-3.8 1.58zM82.63 30h1.87V17.5h-1.87V30zm-3.06-7.3h-.07a3.001 3.001 0 00-2.24-1 4.26 4.26 0 000 8.51 2.902 2.902 0 002.24-1h.06v.61c0 1.63-.87 2.5-2.27 2.5a2.35 2.35 0 01-2.14-1.51l-1.63.68A4.05 4.05 0 0077.29 34c2.19 0 4-1.29 4-4.43V22h-1.72v.7zm-2.14 5.88a2.59 2.59 0 010-5.16A2.4 2.4 0 0179.7 26a2.381 2.381 0 01-2.28 2.58h.01zm24.38-11.08h-4.47V30h1.87v-4.74h2.61a3.892 3.892 0 004.169-3.88 3.886 3.886 0 00-4.169-3.88h-.01zm0 6H99.2v-4.26h2.65a2.145 2.145 0 110 4.29l-.04-.03zm11.53-1.8a3.498 3.498 0 00-3.33 1.91l1.66.69a1.776 1.776 0 011.7-.92 1.8 1.8 0 012 1.61v.13a4.127 4.127 0 00-1.95-.48c-1.79 0-3.6 1-3.6 2.81a2.904 2.904 0 00.969 2.03 2.893 2.893 0 002.131.72 2.634 2.634 0 002.4-1.2h.06v1h1.8v-4.81c0-2.19-1.66-3.46-3.79-3.46l-.05-.03zm-.23 6.85c-.61 0-1.46-.31-1.46-1.06 0-1 1.06-1.33 2-1.33a3.32 3.32 0 011.7.42 2.259 2.259 0 01-2.19 2l-.05-.03zM123.74 22l-2.14 5.42h-.06L119.32 22h-2l3.33 7.58-1.9 4.21h1.95L125.82 22h-2.08zm-16.81 8h1.87V17.5h-1.87V30zM42.11 14.27h-.74v-2H42a2.86 2.86 0 00.76-2.3V7h4v5.26h.67v2h-.74V13h-4.58v1.27zM43.5 10a4 4 0 01-.57 2.3h3V7.74H43.5V10zm9.91 2.22a3.12 3.12 0 01-4.4 0 3.24 3.24 0 010-4.45 3.1 3.1 0 014.4 0 3.23 3.23 0 010 4.45zm-3.83-.5a2.31 2.31 0 003.26 0 2.56 2.56 0 000-3.44 2.31 2.31 0 00-3.26 0 2.56 2.56 0 000 3.44zm8.6 1.41A3.06 3.06 0 0155.06 10a3.06 3.06 0 013.12-3.13 2.77 2.77 0 012.2 1l-.54.52a2 2 0 00-1.67-.76 2.27 2.27 0 00-1.66.66 2.57 2.57 0 000 3.47 2.27 2.27 0 001.66.66 2.371 2.371 0 001.83-.89l.54.54c-.272.33-.613.596-1 .78a3.152 3.152 0 01-1.36.28zm5.5-.13h-.77V7.74h-1.68V7h4.12v.74h-1.67V13zm6.97-6l-2.27 5.06A1.51 1.51 0 0167 13.13a1.542 1.542 0 01-.6-.13l.2-.71c.122.07.26.109.4.11a.711.711 0 00.42-.1.941.941 0 00.27-.38l.22-.48-2-4.43h.91l1.48 3.44L69.74 7h.91zm.87 6V7h4.34v6h-.77V7.74h-2.8V13h-.77zm5.71 0V7H78v2.57h3V7h.77v6H81v-2.71h-3V13h-.77zm10.83-.78a3.12 3.12 0 01-4.4 0 3.24 3.24 0 010-4.45 3.099 3.099 0 014.4 0 3.23 3.23 0 010 4.45zm-3.83-.5a2.31 2.31 0 003.26 0 2.56 2.56 0 000-3.44 2.31 2.31 0 00-3.26 0 2.56 2.56 0 000 3.44zM92.09 13V7h2.17a1.76 1.76 0 011.22.46A1.51 1.51 0 0196 8.63a1.31 1.31 0 01-.22.75 1.39 1.39 0 01-.59.49c.29.096.545.277.73.52.192.245.295.549.29.86a1.57 1.57 0 01-.54 1.22 1.85 1.85 0 01-1.28.49l-2.3.04zm.77-3.43h1.4a.9.9 0 00.7-.29A.889.889 0 0095 8a.861.861 0 00-.67-.29H92.9l-.04 1.86zm0 2.69h1.55a.92.92 0 00.72-.31 1 1 0 00.28-.68 1 1 0 00-1-1h-1.52l-.03 1.99z"/><path fill-rule="evenodd" d="M51.21 6.954a3 3 0 00-2.128.886 3.14 3.14 0 000 4.31 3.02 3.02 0 004.257 0 3.13 3.13 0 000-4.31 3 3 0 00-2.129-.886zM49.98 7a3.2 3.2 0 013.501.7l.002.001a3.33 3.33 0 010 4.588l-.002.002a3.22 3.22 0 01-4.541 0l-.002-.002a3.34 3.34 0 010-4.588l.001-.001A3.2 3.2 0 0149.98 7zm35.88-.046a3 3 0 00-2.128.886 3.14 3.14 0 000 4.31 3.02 3.02 0 004.257 0 3.13 3.13 0 000-4.31 3 3 0 00-2.129-.886zM84.63 7a3.2 3.2 0 013.501.7l.002.001a3.33 3.33 0 010 4.588l-.002.002a3.22 3.22 0 01-4.541 0l-.002-.002a3.34 3.34 0 010-4.588l.001-.001A3.2 3.2 0 0184.63 7zm-25.276.209a2.67 2.67 0 00-1.171-.239h-.005a2.96 2.96 0 00-3.018 3.028v.004a2.96 2.96 0 003.018 3.028l.002.1.002-.1a3.05 3.05 0 001.316-.27c.346-.165.654-.398.906-.684l-.397-.398a2.47 2.47 0 01-1.835.842 2.367 2.367 0 01-1.732-.69l-.004-.002a2.67 2.67 0 010-3.605l.004-.004a2.37 2.37 0 011.73-.689 2.1 2.1 0 011.678.713l.395-.38a2.67 2.67 0 00-.89-.654zM58.18 13.23A3.159 3.159 0 0154.96 10a3.16 3.16 0 013.22-3.23 2.87 2.87 0 012.277 1.036l.06.072-.687.66-.068-.086a1.9 1.9 0 00-1.587-.722h-.007a2.17 2.17 0 00-1.585.63 2.47 2.47 0 000 3.33 2.169 2.169 0 001.585.63h.001a2.27 2.27 0 001.753-.852l.07-.088.683.684-.058.07a3.02 3.02 0 01-1.034.806l-.002.001c-.44.2-.918.298-1.4.29zm37.233-5.696a1.66 1.66 0 00-1.15-.434H92.19v5.798l2.198-.038h.004a1.75 1.75 0 001.21-.463l.003-.002a1.469 1.469 0 00.505-1.143v-.003a1.26 1.26 0 00-.268-.797l-.001-.001a1.42 1.42 0 00-.682-.486l-.247-.082.238-.105a1.29 1.29 0 00.547-.454 1.21 1.21 0 00.203-.692v-.004a1.41 1.41 0 00-.485-1.092l-.002-.002zm.134-.149a1.86 1.86 0 00-1.288-.485H91.99v6.202l2.399-.042h.002a1.95 1.95 0 001.346-.515 1.67 1.67 0 00.573-1.295v.002l-.1-.002.1-.002v.002a1.46 1.46 0 00-.31-.921 1.62 1.62 0 00-.575-.47A1.41 1.41 0 0096.1 8.63v.001L96 8.63l.1-.002v.002a1.611 1.611 0 00-.553-1.245zM42.66 6.9h4.2v5.26h.67v2.2h-.94V13.1h-4.38v1.27h-.94v-2.2h.687a2.76 2.76 0 00.704-2.188V6.9zm.2.2v2.864a2.961 2.961 0 01-.787 2.375l-.03.031h-.573v1.8h.54V12.9h4.78v1.26h.54v-1.8h-.67V7.1h-3.8zm18.27-.2h4.32v.94h-1.67v5.26h-.97V7.84h-1.68V6.9zm.2.2v.54h1.68v5.26h.57V7.64h1.67V7.1h-3.92zm8.344-.2h1.13l-2.33 5.195a1.61 1.61 0 01-1.47 1.135H67a1.64 1.64 0 01-.639-.138l-.08-.035.259-.918.112.065a.71.71 0 00.35.096h.007a.61.61 0 00.354-.082.84.84 0 00.235-.334l.002-.006.201-.438-2.045-4.53h1.131l1.413 3.284L69.674 6.9zm.133.2l-1.505 3.606-1.548-3.596h-.689l1.955 4.33-.238.519a1.041 1.041 0 01-.297.417l-.006.006-.007.004a.81.81 0 01-.476.114.91.91 0 01-.332-.067l-.143.508c.153.056.314.087.478.089a1.41 1.41 0 001.286-.999l.001-.006 2.21-4.925h-.69zm1.613-.2h4.54v6.2h-.97V7.84h-2.6v5.26h-.97V6.9zm.2.2v5.8h.57V7.64h3v5.26h.57V7.1h-4.14zm5.51-.2h.97v2.57h2.8V6.9h.97v6.2h-.97v-2.71h-2.8v2.71h-.97V6.9zm.2.2v5.8h.57v-2.71h3.2v2.71h.57V7.1h-.57v2.57h-3.2V7.1h-.57zM49.51 8.21a2.41 2.41 0 013.4 0l.004.003a2.66 2.66 0 010 3.574l-.003.004a2.41 2.41 0 01-3.401 0l.07-.07-.074.066a2.66 2.66 0 010-3.574l.004-.004zm.143 3.441a2.21 2.21 0 003.115 0 2.46 2.46 0 000-3.302 2.21 2.21 0 00-3.115 0 2.46 2.46 0 000 3.302zM84.16 8.209a2.41 2.41 0 013.4 0l.004.004a2.66 2.66 0 010 3.574l-.003.004a2.41 2.41 0 01-3.401 0l.07-.07-.074.066a2.66 2.66 0 010-3.574l.004-.004zm.143 3.442a2.21 2.21 0 003.115 0 2.46 2.46 0 000-3.302 2.21 2.21 0 00-3.115 0 2.46 2.46 0 000 3.302zm10.026-4.04a.96.96 0 01.745.321.99.99 0 01-.043 1.42 1 1 0 01-.773.318h-1.5l.044-2.06h1.527zm.329.261a.76.76 0 00-.325-.062h-1.335l-.036 1.66h1.302a.8.8 0 00.623-.258l.003-.003.003-.003a.79.79 0 00.036-1.136l-.004-.004a.759.759 0 00-.267-.194zM43.4 7.64h2.63v4.76h-3.277l.092-.152a3.9 3.9 0 00.555-2.242V7.64zm.2.2v2.157a4.1 4.1 0 01-.497 2.203h2.727V7.84H43.6zm49.192 2.33h1.618a1.1 1.1 0 011.1 1.1v.002a1.1 1.1 0 01-.306.746 1.02 1.02 0 01-.795.342h-1.65l.033-2.19zm.197.2l-.027 1.79h1.452a.82.82 0 00.641-.276l.003-.003a.9.9 0 00.252-.612.9.9 0 00-.9-.899H92.99z" clip-rule="evenodd"/><path d="M10.545 32.699l12.25-12.707L10.556 7.31c-.326.197-.529.654-.529 1.253v22.895c.005.599.2 1.023.52 1.242zM23.235 19.641l3.649-3.785-14.86-8.452a1.6 1.6 0 00-.824-.23L23.233 19.64l.002.001zM23.235 20.345l-12.072 12.52c.303.006.601-.076.862-.236l14.89-8.475-3.68-3.81zM32.267 18.923l-4.945-2.818-3.749 3.889 3.777 3.913 4.916-2.81c1.045-.597 1.045-1.58.001-2.174z"/></symbol><symbol fill="currentColor" viewBox="0 0 32 32" id="hands" xmlns="http://www.w3.org/2000/svg"><path d="M10.428 5.655c2.233-.198 4.047-.405 5.572-.654 4.631-.755 6.503-2.041 8.635-4.663a.933.933 0 011.386-.056l5.685 5.744a.938.938 0 01.115 1.195 20.341 20.341 0 01-2.368 2.823c-1.7 1.909-3.471 3.269-5.138 4.19a7.106 7.106 0 01-3.44.877h-5.562a3.748 3.748 0 01-3.593-2.684c-.148-.5.191-1.028.712-1.061l.061-.002h8.168c.51 0 .943-.398.958-.907a.928.928 0 00-.936-.966h-9.366a.996.996 0 00-.73.337c-.24.248-1.382 1.942-3.558 3.773-1.41 1.187-4.796 3.383-6.077 3.383-.805 0-1.236-.956-.693-1.555l8.492-9.366c.15-.187.393-.3.637-.318l1.04-.09zM21.572 26.345c-2.233.199-4.047.405-5.572.654-4.631.756-6.503 2.042-8.636 4.663a.933.933 0 01-1.386.057L.294 25.975a.938.938 0 01-.115-1.195 20.345 20.345 0 012.367-2.824c1.702-1.908 3.472-3.268 5.139-4.19a7.106 7.106 0 013.44-.876h5.562c1.7 0 3.135 1.132 3.593 2.684.148.5-.191 1.028-.712 1.06-.02.002-.04.002-.061.002h-8.169c-.509 0-.942.398-.957.907a.928.928 0 00.936.966h9.366a.996.996 0 00.73-.337c.24-.248 1.382-1.942 3.558-3.773 1.41-1.187 4.796-3.382 6.077-3.382.805 0 1.236.955.693 1.554l-8.492 9.366a.913.913 0 01-.637.319l-1.04.09z"/></symbol><symbol fill="currentColor" viewBox="0 0 77 77" id="hospital" xmlns="http://www.w3.org/2000/svg"><path d="M11.77 45.153h-8.6A3.17 3.17 0 000 48.323V77h11.77V45.153zM65.23 45.153V77H77V48.323a3.17 3.17 0 00-3.17-3.17h-8.6zM38.5 0c-8.136 0-14.73 6.595-14.73 14.73v4.932h29.46V14.73C53.23 6.595 46.636 0 38.5 0zm2.554 13.082h-.298v.298a2.256 2.256 0 01-4.512 0v-.298h-.298a2.256 2.256 0 110-4.512h.298v-.299a2.256 2.256 0 014.512 0v.299h.298a2.256 2.256 0 010 4.512zM30.003 63.414h6.241V77h-6.241V63.414zM40.756 63.414h6.241V77h-6.241V63.414z"/><path d="M58.463 24.174H18.537a2.256 2.256 0 00-2.256 2.255V77h9.21V61.158a2.256 2.256 0 012.256-2.256h21.506a2.256 2.256 0 012.256 2.256V77h9.21V26.43a2.256 2.256 0 00-2.256-2.256zM28.683 54.39h-1.872a2.256 2.256 0 010-4.511h1.872a2.256 2.256 0 010 4.511zm0-9.023h-1.872a2.256 2.256 0 110-4.512h1.872a2.256 2.256 0 010 4.512zm0-9.024h-1.872a2.256 2.256 0 110-4.511h1.872a2.256 2.256 0 010 4.511zM39.436 54.39h-1.872a2.256 2.256 0 010-4.511h1.872a2.256 2.256 0 010 4.511zm0-9.023h-1.872a2.256 2.256 0 010-4.512h1.872a2.256 2.256 0 110 4.512zm0-9.024h-1.872a2.256 2.256 0 010-4.511h1.872a2.256 2.256 0 110 4.511zM50.19 54.39h-1.872a2.256 2.256 0 010-4.511h1.872a2.256 2.256 0 010 4.511zm0-9.023h-1.872a2.256 2.256 0 010-4.512h1.872a2.256 2.256 0 010 4.512zm0-9.024h-1.872a2.256 2.256 0 010-4.511h1.872a2.256 2.256 0 010 4.511z"/></symbol><symbol fill="currentColor" viewBox="0 0 21 18" id="link-icon" xmlns="http://www.w3.org/2000/svg"><path d="M15.856 10.325h-.737a.357.357 0 00-.265.104.358.358 0 00-.104.264v3.688c0 .507-.18.94-.541 1.302a1.775 1.775 0 01-1.303.541H3.32c-.507 0-.941-.18-1.303-.541a1.775 1.775 0 01-.541-1.302V4.793c0-.507.18-.94.541-1.302A1.775 1.775 0 013.32 2.95h8.112a.36.36 0 00.265-.104.36.36 0 00.104-.265v-.738a.359.359 0 00-.104-.264.359.359 0 00-.265-.104H3.32c-.914 0-1.696.324-2.345.974A3.197 3.197 0 000 4.793v9.588c0 .914.325 1.696.974 2.345.649.649 1.43.974 2.345.974h9.587c.914 0 1.696-.325 2.345-.974.65-.65.974-1.43.974-2.345v-3.687a.359.359 0 00-.104-.266.359.359 0 00-.265-.103z"/><path d="M20.431.219A.71.71 0 0019.912 0h-5.9c-.2 0-.372.073-.518.219a.709.709 0 00-.22.518c0 .2.074.373.22.52l2.028 2.027-7.513 7.514a.364.364 0 000 .53l1.314 1.313a.364.364 0 00.53 0l7.513-7.513 2.028 2.028a.709.709 0 00.519.219c.2 0 .372-.073.518-.219a.708.708 0 00.22-.519v-5.9a.71.71 0 00-.22-.518z"/></symbol><symbol fill="currentColor" viewBox="0 0 20 13" id="list-area" xmlns="http://www.w3.org/2000/svg"><path d="M6.062 2.469l-1.82.968 2.809 1.817 1.77-1.078L6.062 2.47zM7.032 6.637L4.182 8.37l1.967 1.282L8.922 7.86l-1.89-1.223zM9.937 4.868L8.142 5.96 10 7.162l1.781-1.153-1.844-1.141zM12.884 6.691L11.078 7.86l2.773 1.794 1.86-1.212-2.827-1.75zM13.906 2.452L11.06 4.185l1.81 1.12 2.887-1.868-1.85-.985zM10 8.557l-2.777 1.796L10 12.164l2.776-1.81-2.777-1.796zM3.059 4.066L0 5.673l3.093 1.99L5.94 5.93 3.06 4.066zM10 .413L7.26 1.832l2.683 1.66 2.761-1.68L10 .412zM16.941 4.066l-2.969 1.921 2.823 1.748L20 5.672l-3.059-1.606z"/></symbol><symbol fill="currentColor" viewBox="0 0 20 20" id="list-diagram" xmlns="http://www.w3.org/2000/svg"><g clip-path="url(#clip0)"><path d="M2.5 9.167a.832.832 0 01-.59-1.422l5.756-5.756a.832.832 0 111.178 1.178L3.09 8.922a.831.831 0 01-.589.245z"/><path d="M9.375 5a.622.622 0 01-.442-.183L6.016 1.9A.624.624 0 016.458.833h2.917c.345 0 .625.28.625.625v2.917A.626.626 0 019.375 5zM5.833 12.708V17.5h-5v-4.792c0-.575.467-1.041 1.042-1.041h2.917c.575 0 1.041.466 1.041 1.041zM12.5 9.375V17.5h-5V9.375c0-.575.467-1.042 1.042-1.042h2.916c.575 0 1.042.467 1.042 1.042zM19.167 6.042V17.5h-5V6.042c0-.575.466-1.042 1.041-1.042h2.917c.575 0 1.042.467 1.042 1.042zM19.375 20H.625a.625.625 0 010-1.25h18.75a.625.625 0 010 1.25z"/></g><defs><clipPath id="clip0"><path d="M0 0h20v20H0z"/></clipPath></defs></symbol><symbol fill="currentColor" viewBox="0 0 20 20" id="list-factory" xmlns="http://www.w3.org/2000/svg"><path d="M19.659 9.706a.719.719 0 00-.503-.096l-.161-7.859a.72.72 0 00-.72-.705h-2.092a.72.72 0 00-.72.705l-.17 8.267a.72.72 0 00-.974-.344l-.381.19V5.752a.72.72 0 00-.72-.72h-.871a.72.72 0 00-.72.72v5.265l-.907.452v-1.15a.72.72 0 00-1.041-.645L6.08 11.47v-1.15a.72.72 0 00-1.041-.645L.399 11.99a.72.72 0 00-.399.644v5.6c0 .398.322.72.72.72h18.56a.72.72 0 00.72-.72v-7.915a.72.72 0 00-.341-.612zM4.047 16.483a.72.72 0 01-.72.72h-1.3a.72.72 0 01-.72-.72v-.896a.72.72 0 01.72-.72h1.3a.72.72 0 01.72.72v.896zm5.524 0a.72.72 0 01-.72.72h-1.3a.72.72 0 01-.72-.72v-.896a.72.72 0 01.72-.72h1.3a.72.72 0 01.72.72v.896zm5.524 0a.72.72 0 01-.72.72h-1.3a.72.72 0 01-.72-.72v-.896a.72.72 0 01.72-.72h1.3a.72.72 0 01.72.72v.896z"/></symbol><symbol fill="currentColor" viewBox="0 0 20 20" id="list-factory-2" xmlns="http://www.w3.org/2000/svg"><path d="M11.042 5.833H3.125a.625.625 0 00-.625.625v1.25c0 .345.28.625.625.625h7.917c.345 0 .625-.28.625-.625v-1.25a.625.625 0 00-.625-.625zM14.878 0c-.681 0-1.33.26-1.812.704-.829-.504-2.01-.386-2.71.258a1.936 1.936 0 00-2.025.186C7.47.988 6.666 1.664 6.666 2.5c0 .836.802 1.516 1.665 1.353a1.94 1.94 0 002.025.186c.7.644 1.881.761 2.71.258.481.444 1.13.703 1.812.703C16.324 5 17.5 3.878 17.5 2.5S16.324 0 14.878 0zM14.106 19.365c-.03-.047-2.628-4.35-3.168-10.198H3.23c-.095 1.026-.256 2-.453 2.916h3.265a.625.625 0 010 1.25H2.478c-.116.437-.24.852-.366 1.25h3.93a.625.625 0 010 1.25H1.685C.88 18.005.078 19.34.062 19.365c-.17.28.031.635.355.635h13.334a.417.417 0 00.355-.635zM19.584 9.167h-7.5a.416.416 0 00-.294.12c.557 5.5 2.987 9.578 3.026 9.642.2.325.227.718.102 1.07h4.666c.23 0 .416-.186.416-.416v-10a.417.417 0 00-.416-.416zM16.875 17.5h-2.083a.625.625 0 010-1.25h2.083a.625.625 0 010 1.25zm0-2.5h-2.083a.625.625 0 010-1.25h2.083a.625.625 0 010 1.25zm0-2.5h-2.083a.625.625 0 010-1.25h2.083a.625.625 0 010 1.25z"/></symbol><symbol fill="currentColor" viewBox="0 0 21 15" id="list-house" xmlns="http://www.w3.org/2000/svg"><path d="M13.846 14.933V15h-1.532v-4.822h1.532v4.755zM7.404.21a.74.74 0 011.031 0l.925.881-4.98 4.747c-.938.894-1.007 2.422-.155 3.405.258.298.58.52.935.651V15H1.533V7.977l-.251.24a.744.744 0 01-1.083-.055.831.831 0 01.052-1.135L7.404.21z"/><path d="M12.565.209a.74.74 0 011.03 0l7.154 6.818a.83.83 0 01.026 1.163.755.755 0 01-1.073.011l-.235-.224v6.22c0 .443-.343.803-.766.803H15.38V9.375c0-.444-.344-.804-.767-.804h-3.066c-.423 0-.766.36-.766.804V15H6.693V7.977l-.25.24a.744.744 0 01-1.083-.055.831.831 0 01.051-1.135L12.565.21zm-.251 6.755h1.533c.423 0 .766-.36.766-.803 0-.444-.343-.804-.766-.804h-1.533c-.423 0-.767.36-.767.804 0 .443.344.803.767.803z"/></symbol><symbol fill="currentColor" viewBox="0 0 20 20" id="list-pin" xmlns="http://www.w3.org/2000/svg"><path d="M14.602 12.342a47.005 47.005 0 01-1.021 1.572c3.102.463 4.69 1.457 4.69 1.951 0 .658-2.814 2.201-8.271 2.201-5.457 0-8.27-1.543-8.27-2.2 0-.495 1.587-1.488 4.69-1.952-.37-.545-.71-1.07-1.022-1.572C2.337 12.919 0 14.106 0 15.865c0 2.58 5.031 3.931 10 3.931 4.97 0 10-1.35 10-3.93 0-1.76-2.336-2.947-5.398-3.524z"/><path d="M10.023.204a5.87 5.87 0 00-5.871 5.87c0 2.326 3.02 6.775 4.728 9.106a1.417 1.417 0 002.285 0c1.708-2.33 4.728-6.78 4.728-9.106a5.87 5.87 0 00-5.87-5.87zm0 9.515a3.478 3.478 0 01-3.475-3.474 3.478 3.478 0 013.475-3.474 3.478 3.478 0 013.473 3.474 3.477 3.477 0 01-3.473 3.474z"/><path d="M10.023 4.132A2.115 2.115 0 007.91 6.245c0 1.165.947 2.113 2.113 2.113a2.115 2.115 0 002.112-2.113 2.115 2.115 0 00-2.112-2.113z"/></symbol><symbol fill="currentColor" viewBox="0 0 13 20" id="list-pin-2" xmlns="http://www.w3.org/2000/svg"><path d="M6.454 20h.092l5.545-9.826C14.59 5.779 11.655.15 6.71.004a7.151 7.151 0 00-.423 0C1.345.15-1.59 5.778.91 10.173L6.454 20zm.043-17.076c1.817 0 3.295 1.522 3.295 3.393 0 1.87-1.478 3.393-3.295 3.393S3.202 8.188 3.202 6.317c0-1.87 1.478-3.393 3.295-3.393z"/></symbol><symbol fill="currentColor" viewBox="0 0 20 20" id="list-rubl" xmlns="http://www.w3.org/2000/svg"><g clip-path="url(#clip0)"><path d="M11.251 6.65H9.153v2.529h2.098a1.266 1.266 0 000-2.529z"/><path d="M17.07 2.931a9.992 9.992 0 00-14.139 0 9.992 9.992 0 000 14.139 9.992 9.992 0 0014.139 0 9.992 9.992 0 000-14.139zm-5.818 7.89H9.153v.861h1.682a.821.821 0 110 1.643H9.153v.847a.821.821 0 11-1.642 0v-.848h-.847a.821.821 0 010-1.642h.847v-.86h-.847a.821.821 0 010-1.643h.847V5.83c0-.453.367-.82.821-.82h2.92a2.91 2.91 0 012.907 2.906 2.91 2.91 0 01-2.907 2.907z"/></g><defs><clipPath id="clip0"><path d="M0 0h20v20H0z"/></clipPath></defs></symbol><symbol fill="currentColor" viewBox="0 0 20 16" id="mail" xmlns="http://www.w3.org/2000/svg"><path d="M18.242 0H1.758c-.27 0-.524.067-.753.176L9.96 9.132l2.008-1.929L18.996.176A1.737 1.737 0 0018.242 0zM19.825 1.005l-6.613 6.612 6.612 6.612c.11-.229.176-.482.176-.753V1.758c0-.27-.066-.524-.175-.753zM.176 1.005c-.11.23-.176.482-.176.753v11.719c0 .27.066.524.176.753l6.613-6.613L.176 1.005z"/><path d="M12.383 8.446l-2.007 1.93a.584.584 0 01-.829 0l-1.93-1.93-6.612 6.612c.23.11.483.176.753.176h16.485c.27 0 .524-.066.753-.176l-6.613-6.612z"/></symbol><symbol fill="currentColor" viewBox="0 0 110 32" id="orbis-logo" xmlns="http://www.w3.org/2000/svg"><path d="M73.993 23.623h-3.595V9.293H82.3l.903.09a4.474 4.474 0 012.777 6.93l-.11.125.204.196a3.91 3.91 0 01.876 2.499 4.486 4.486 0 01-3.575 4.388l-.895.09-8.487.012zm8.506-3.579l.344-.074a.896.896 0 00-.348-1.725h-8.502v1.795l8.506.004zm-.184-5.37a.896.896 0 00.348-1.72l-.348-.067h-8.322v1.791l8.322-.004zM91.893 9.3H88.32v14.323h3.574V9.3zM93.689 23.623v-3.579h11.631a.899.899 0 000-1.795h-7.607a4.474 4.474 0 010-8.945h11.189v3.583H97.713a.9.9 0 000 1.799h7.607a4.473 4.473 0 110 8.944H93.689v-.007zM64.532 23.619l-8.96-8.94h9.022l.349-.071a.907.907 0 00.547-.83.892.892 0 00-.895-.887h-10.81l-3.58-3.575h14.393l.458.024a4.474 4.474 0 01-.458 8.925h-.39l5.37 5.37-5.046-.016zM53.342 15.331l-2.51 2.511-8.57-8.561h5.065l6.015 6.05z"/><path d="M40.428 23.623a7.161 7.161 0 010-14.323h1.83l3.59 3.59h-5.42a3.579 3.579 0 000 7.154h6.708a3.57 3.57 0 002.534-1.056l3.669-3.665 2.526 2.523-3.66 3.665a7.153 7.153 0 01-4.334 2.065l-.727.035-6.716.012zM33.881 30.236v-.274a3.45 3.45 0 01.075-.837c.051-.187.151-.359.289-.496a1.451 1.451 0 012.014 0c.279.344.412.783.372 1.224v.262c.009.292-.008.583-.051.872-.049.228-.158.44-.317.61a1.33 1.33 0 01-1.005.391 1.359 1.359 0 01-1.01-.39 1.08 1.08 0 01-.257-.447 1.913 1.913 0 01-.094-.445v-.47h-.016zm.728.125v.403c.002.042.009.084.02.125l.03.102a.36.36 0 00.044.098l.058.07a.629.629 0 00.47.196.59.59 0 00.465-.196.652.652 0 00.148-.34c.028-.26.039-.521.032-.782.005-.22-.006-.44-.035-.657a.62.62 0 00-.145-.317.65.65 0 00-.935 0 .63.63 0 00-.145.352 5.124 5.124 0 00-.03.637v.302l.023.007zM39.951 31.969v-3.72h1.455c.32-.013.632.101.868.317a1.077 1.077 0 01.337.818 1.01 1.01 0 01-.677.985l.833 1.6h-.84l-.728-1.463h-.524v1.474l-.724-.011zm.724-2.089h.684a.536.536 0 00.391-.137.504.504 0 000-.711.54.54 0 00-.39-.137h-.685v.985zM45.947 31.969v-3.72h1.494c.304-.016.603.083.837.278a.955.955 0 01.309.747.842.842 0 01-.458.782c.105.052.2.12.286.2a.895.895 0 01.23.641 1.012 1.012 0 01-.309.782c-.23.2-.529.302-.833.286l-1.556.004zm.727-.65h.759a.493.493 0 00.356-.125.444.444 0 00.129-.332.436.436 0 00-.13-.333.497.497 0 00-.355-.12h-.759v.91zm0-1.564h.708a.513.513 0 00.352-.117.45.45 0 000-.63.513.513 0 00-.352-.113h-.708v.86zM52.693 28.25h-.727v3.719h.727v-3.72zM55.806 31.511l.47-.47c.095.09.205.16.324.212.181.069.374.102.567.098.444 0 .665-.155.665-.466a.392.392 0 00-.105-.305.583.583 0 00-.34-.133l-.45-.062c-.657-.089-.986-.428-.986-1.017a1.055 1.055 0 01.356-.841 1.44 1.44 0 01.974-.309c.236-.002.471.04.692.125.176.08.337.189.477.32l-.461.459a.959.959 0 00-.282-.177 1.254 1.254 0 00-.446-.078.727.727 0 00-.45.121.391.391 0 00-.16.34c0 .235.151.366.454.392l.438.066c.281.022.547.138.755.329.173.203.26.465.242.731a.997.997 0 01-.39.833c-.309.217-.681.323-1.057.302a2.034 2.034 0 01-.782-.145 1.606 1.606 0 01-.505-.325zM61.391 28.25h.79l.693 1.501.684-1.502h.79l-1.118 2.194v1.526h-.72v-1.526L61.39 28.25zM67.043 31.511l.47-.47c.095.089.204.16.324.212.18.069.373.102.567.098.443 0 .665-.155.665-.466a.392.392 0 00-.106-.305.583.583 0 00-.336-.133l-.454-.062c-.657-.089-.986-.428-.986-1.017a1.055 1.055 0 01.356-.841 1.44 1.44 0 01.97-.309c.237-.002.472.04.693.125.175.08.336.189.477.32l-.458.462a.956.956 0 00-.285-.176 1.25 1.25 0 00-.446-.078.727.727 0 00-.45.121.392.392 0 00-.16.34c0 .235.15.366.453.392l.438.066c.283.021.55.137.76.329.172.203.259.465.242.731a.997.997 0 01-.392.833c-.307.217-.68.323-1.056.301a2.032 2.032 0 01-.782-.144 1.606 1.606 0 01-.504-.329zM72.769 28.899v-.65h2.67v.65h-.97v3.07h-.727v-3.07h-.973zM78.612 31.969v-3.72h2.448v.65h-1.721v.872h1.467v.649h-1.467v.9h1.72v.649h-2.447zM84.357 31.969v-3.72h.716l.97 2.01.965-2.01h.716v3.72h-.727v-2.167l-.708 1.412h-.493l-.712-1.412v2.167h-.727zM90.838 31.511l.469-.47c.095.09.205.16.324.212.181.069.374.102.567.098.444 0 .665-.155.665-.466a.392.392 0 00-.105-.305.583.583 0 00-.34-.133l-.45-.062c-.657-.089-.986-.428-.986-1.017a1.055 1.055 0 01.356-.841 1.44 1.44 0 01.974-.309c.237-.002.471.04.692.125.176.08.337.189.477.32l-.461.459a.958.958 0 00-.282-.177 1.253 1.253 0 00-.446-.078.727.727 0 00-.45.121.392.392 0 00-.16.34c0 .235.151.366.454.392l.438.066c.283.021.55.137.759.329.173.203.26.465.242.731a.998.998 0 01-.39.833c-.309.217-.681.323-1.057.302a2.034 2.034 0 01-.782-.145 1.605 1.605 0 01-.508-.325zM96.802 31.86a.42.42 0 01.094-.738.423.423 0 01.489.139.39.39 0 01.129.293.426.426 0 01-.427.43.392.392 0 01-.285-.125zM100.881 31.969v-3.72h1.455c.32-.013.632.101.868.317a1.072 1.072 0 01.336.818 1.015 1.015 0 01-.308.759 1.11 1.11 0 01-.368.226l.833 1.6h-.837l-.731-1.463h-.521v1.474l-.727-.011zm.727-2.089h.685a.534.534 0 00.391-.137.505.505 0 000-.711.541.541 0 00-.391-.137h-.685v.985zM106.822 30.694v-2.445h.731v2.417a.705.705 0 00.172.501.615.615 0 00.47.184.625.625 0 00.473-.184.703.703 0 00.176-.5v-2.418h.723v2.445a1.229 1.229 0 01-.391.938 1.492 1.492 0 01-1.955 0 1.232 1.232 0 01-.399-.938zM13.724 27.448h-.035l-5.476-5.476H2.738l-.266-.356a13.724 13.724 0 1122.621-.207l-.438.59-5.413-5.44a4.847 4.847 0 10-6.852 6.856l3.802 3.806-1.06.156c-.466.047-.931.067-1.408.067v.004zm6.535-1.635c.391-.211.782-.442 1.134-.689l.52-.39-5.412-5.433a.97.97 0 10-1.37 1.373l5.128 5.139z"/></symbol><symbol fill="currentColor" viewBox="0 0 25 25" id="pdf" xmlns="http://www.w3.org/2000/svg"><path d="M17.969 12.5h-3.125a.781.781 0 00-.781.781v6.25c0 .432.35.782.78.782h3.126c.863 0 1.562-.7 1.562-1.563v-4.688c0-.862-.7-1.562-1.562-1.562zm0 6.25h-2.344v-4.688h2.344v4.688zM25 14.063V12.5h-3.906a.781.781 0 00-.782.781v7.031h1.563v-3.125H25v-1.562h-3.125v-1.563H25z"/><path d="M1.563 22.656V2.344c0-.432.35-.782.78-.782h11.72v3.125c0 .863.7 1.563 1.562 1.563h3.125v2.344h1.563V5.469a.781.781 0 00-.227-.555L15.398.226A.781.781 0 0014.844 0h-12.5A2.344 2.344 0 000 2.344v20.312A2.344 2.344 0 002.344 25h5.469v-1.563h-5.47a.781.781 0 01-.78-.781z"/><path d="M11.719 12.5H8.594a.781.781 0 00-.781.781v7.031h1.562V17.97h2.344c.863 0 1.562-.7 1.562-1.563v-2.343c0-.863-.7-1.563-1.562-1.563zm0 3.906H9.375v-2.343h2.344v2.343z"/></symbol><symbol fill="currentColor" viewBox="0 0 37 37" id="people" xmlns="http://www.w3.org/2000/svg"><path d="M6.167 18.5a3.083 3.083 0 100-6.167 3.083 3.083 0 000 6.167zM10.283 20.658a6.46 6.46 0 00-2.575 5.165v.385H1.156A1.165 1.165 0 010 25.052v-.77a4.237 4.237 0 014.24-4.24h3.854c.801 0 1.557.231 2.189.616zM30.833 18.5a3.083 3.083 0 100-6.167 3.083 3.083 0 000 6.167zM37 24.281v.771c0 .632-.524 1.156-1.156 1.156h-6.552v-.385a6.46 6.46 0 00-2.575-5.165 4.212 4.212 0 012.19-.616h3.854a4.237 4.237 0 014.24 4.24zM18.5 19.27a4.625 4.625 0 100-9.25 4.625 4.625 0 000 9.25zM22.74 21.583h-8.48c-2.338 0-4.239 1.901-4.239 4.24v2.312c0 .639.518 1.157 1.156 1.157h14.646c.638 0 1.156-.518 1.156-1.157v-2.312c0-2.339-1.9-4.24-4.24-4.24z"/></symbol><symbol fill="currentColor" viewBox="0 0 20 20" id="phone" xmlns="http://www.w3.org/2000/svg"><path d="M18.395 13.128c-1.224 0-2.427-.192-3.566-.568-.558-.19-1.245-.016-1.585.334l-2.249 1.697C8.387 13.2 6.781 11.593 5.407 9.005l1.648-2.19a1.617 1.617 0 00.398-1.638 11.373 11.373 0 01-.57-3.572C6.883.72 6.163 0 5.278 0H1.605C.72 0 0 .72 0 1.605 0 11.748 8.252 20 18.395 20 19.28 20 20 19.28 20 18.395v-3.662c0-.885-.72-1.605-1.605-1.605z"/></symbol><symbol fill="currentColor" viewBox="0 0 30 30" id="pin" xmlns="http://www.w3.org/2000/svg"><path d="M15 0C8.952 0 4.032 5.008 4.032 11.165c0 3.443 1.742 7.623 5.177 12.423 2.514 3.512 4.991 6.017 5.095 6.122a.978.978 0 001.377.016c.104-.101 2.587-2.505 5.106-5.969 3.438-4.728 5.18-8.965 5.18-12.592C25.968 5.008 21.048 0 15 0zm0 15.985a5.368 5.368 0 01-5.362-5.362A5.368 5.368 0 0115 5.26a5.368 5.368 0 015.362 5.362A5.368 5.368 0 0115 15.985z"/></symbol><symbol fill="currentColor" viewBox="0 0 25 25" id="print" xmlns="http://www.w3.org/2000/svg"><path d="M20.215 3.906H4.785a.488.488 0 01-.488-.488v-1.27C4.297.962 5.259 0 6.445 0h12.11c1.186 0 2.148.962 2.148 2.148v1.27c0 .27-.218.488-.488.488zM22.363 5.469H2.637A2.64 2.64 0 000 8.105v9.18a2.64 2.64 0 002.637 2.637h1.66v-3.906A3.52 3.52 0 017.813 12.5h9.375a3.52 3.52 0 013.515 3.516v3.906h1.66A2.64 2.64 0 0025 17.285v-9.18a2.64 2.64 0 00-2.637-2.636zm-17.675 5.86a1.172 1.172 0 010-2.345 1.172 1.172 0 110 2.344z"/><path d="M17.188 14.844H7.813c-.648 0-1.172.524-1.172 1.172v5.468c0 .648.524 1.172 1.171 1.172h9.375c.648 0 1.172-.524 1.172-1.172v-5.468c0-.648-.524-1.172-1.172-1.172z"/></symbol><symbol fill="currentColor" viewBox="0 0 77 77" id="rocket" xmlns="http://www.w3.org/2000/svg"><g clip-path="url(#clip0)"><path d="M21.853 60.532h-6.98v5.37h6.98v-5.37z"/><path d="M13.358 57.668h8.495V43.493l-15.036 6.88V77h15.036v-8.234h-8.495c-.79 0-1.35-.669-1.35-1.46v-8.19c0-.79.56-1.448 1.35-1.448zM44.747 15.962H32.253c-1.184 0-2.166 1.041-2.166 2.226v4.397h16.826v-4.397c0-1.185-.981-2.226-2.166-2.226zM62.306 60.532h-7.16v5.37h7.16v-5.37zM40.653 66.26h-4.306c-1.184 0-2.143 1.082-2.143 2.266V77h8.592v-8.474c0-1.184-.959-2.266-2.143-2.266z"/><path d="M55.147 43.401v14.267h8.562c.8.006 1.449.65 1.461 1.449v8.19a1.482 1.482 0 01-1.461 1.46h-8.562V77h15.035V49.593l-15.035-6.192zM50.07 25.449H26.93a2.248 2.248 0 00-2.213 2.196V77h6.623v-8.474c0-2.763 2.244-5.13 5.007-5.13h4.306c2.763 0 5.007 2.367 5.007 5.13V77h6.623V27.645a2.248 2.248 0 00-2.212-2.196zm-4.527 27.386H31.456a1.432 1.432 0 010-2.864h14.086a1.432 1.432 0 010 2.864zm0-8.95H31.456a1.432 1.432 0 110-2.863h14.086a1.432 1.432 0 010 2.864zm0-8.95H31.456a1.432 1.432 0 010-2.863h14.086a1.432 1.432 0 010 2.864zM38.5 0c-.791 0-1.432.641-1.432 1.432v12.92h2.864V1.431C39.932.642 39.29 0 38.5 0z"/></g><defs><clipPath id="clip0"><path fill="#fff" d="M0 0h77v77H0z"/></clipPath></defs></symbol><symbol fill="currentColor" viewBox="0 0 52 63" id="rubl" xmlns="http://www.w3.org/2000/svg"><path d="M33.539.978H15.436a5.091 5.091 0 00-5.092 5.091v20.77H5.091a5.091 5.091 0 100 10.183h5.253v5.334H5.091a5.091 5.091 0 100 10.182h5.253v5.254a5.091 5.091 0 0010.183 0v-5.254h10.425a5.091 5.091 0 000-10.182H20.527v-5.334H33.54c9.937 0 18.021-8.085 18.021-18.022C51.56 9.062 43.477.978 33.54.978zm0 25.86H20.527V11.16H33.54c4.322 0 7.839 3.517 7.839 7.84 0 4.322-3.517 7.839-7.84 7.839z"/></symbol><symbol fill="currentColor" viewBox="0 0 34 34" id="russia" xmlns="http://www.w3.org/2000/svg"><path d="M34 15.272V4.568l-2.419.504a6.03 6.03 0 00-4.8 5.904v2.62h-5.266V9.083h1.504v-2.03c0-1.43-.927-2.642-2.212-3.07V1.089h-1.992v2.836L17 6.158l-1.815-2.233V1.09h-1.992v2.893a3.237 3.237 0 00-2.212 3.07v2.03h1.504v4.515H7.218v-2.622a6.03 6.03 0 00-4.8-5.903L0 4.568v10.704a8.107 8.107 0 008.107 8.106h1.729a5.613 5.613 0 00-2.001 4.297v.752H5.233l-2.951-5.165-1.73.988L5.5 32.91l1.73-.988-.86-1.503h3.456v-2.744a3.636 3.636 0 013.631-3.631v-.017l1.285.856-2.024 5.188a6.578 6.578 0 008.562 0l-2.024-5.188 1.285-.856v.017a3.636 3.636 0 013.631 3.631v2.744h6.706c1.72 0 3.121-1.4 3.121-3.121s-1.4-3.121-3.121-3.121a3.125 3.125 0 00-2.909 4.25h-1.804v-.752a5.613 5.613 0 00-2.002-4.297h1.73A8.107 8.107 0 0034 15.272z"/></symbol><symbol fill="currentColor" viewBox="0 0 60 60" id="swiper-factories" xmlns="http://www.w3.org/2000/svg"><path d="M55.248 15.938h-9.245l-1.875 26.25h-1.94v-7.5h-2.234l-1.587-20.626h-9.236l-.746 9.697-.215.107a16.708 16.708 0 00-4.29-1.764l-.832-1.477h-6.72l-.835 1.477a16.762 16.762 0 00-4.29 1.764l-2.307-1.153-4.934 4.933 1.154 2.307a16.782 16.782 0 00-1.736 4.18l-2.442.816v6.976l2.443.815a16.704 16.704 0 001.736 4.18l-1.154 2.308 4.934 4.934 2.309-1.154c.77.456 2.137 1.242 2.857 1.655v4.4h45V42.186h-1.94l-1.875-26.25zm-1.746 1.874l.268 3.75h-6.29l.268-3.75h5.754zm-6.156 5.625h6.558l1.34 18.75h-9.237l1.339-18.75zm-33.283 11.25v13.49a11.214 11.214 0 01-5.626-9.74c0-6.203 5.047-11.25 11.25-11.25 3.096 0 6.043 1.289 8.163 3.53l-.304 3.97H14.063zm16.372-13.124h6.63l1.009 13.125h-8.649l1.01-13.126zm6.197-5.625l.289 3.75h-6.342l.29-3.75h5.763zM11.743 51.144l-.446-.279-2.03 1.016-3.023-3.022 1.016-2.032-.28-.447a14.88 14.88 0 01-1.899-4.576l-.118-.514-2.15-.716V36.3l2.15-.717.118-.514a14.869 14.869 0 011.9-4.576l.279-.446-1.016-2.03 3.022-3.022 2.032 1.015.447-.28a14.855 14.855 0 014.576-1.899l.404-.093.697-1.238h4.53l.699 1.238.404.093a14.877 14.877 0 014.576 1.9l.447.279.14-.07-.183 2.393a13.118 13.118 0 00-8.348-3.02c-7.237 0-13.125 5.887-13.125 13.125a13.09 13.09 0 007.5 11.852v2.21a133.911 133.911 0 01-2.319-1.356zm13.57 6.044h-9.375V36.561h24.374v5.626h-10.7l-4.3 4.299v10.7zm9.375 0h-3.75v-5.626h3.75v5.626zm9.374 0h-3.75v-5.626h3.75v5.626zm9.376 0h-3.75v-5.626h3.75v5.626zm1.874 0v-7.5h-7.5v7.5h-1.874v-7.5h-7.5v7.5h-1.876v-7.5h-7.5v7.5h-1.875v-9.376h30v9.376h-1.874zm1.876-11.25H28.512l1.875-1.876h26.8v1.876zM47.813 8.438h8.437a.938.938 0 010 1.874h-1.875a2.816 2.816 0 00-2.813 2.813v.938h1.876v-.938c0-.517.42-.938.937-.938h1.875a2.816 2.816 0 002.813-2.812 2.816 2.816 0 00-2.813-2.813h-8.438v1.875z"/><path d="M45 12.188h1.875c.517 0 .938.42.938.937v.938h1.874v-.938a2.816 2.816 0 00-2.812-2.813H45A2.816 2.816 0 0142.187 7.5 2.816 2.816 0 0145 4.687h6.563V2.813H45A4.693 4.693 0 0040.312 7.5 4.693 4.693 0 0045 12.188zM53.438 2.813h1.874v1.874h-1.874V2.813zM8.438 6.563H15c.518 0 .938.42.938.937a2.816 2.816 0 002.812 2.813H30c.517 0 .938.42.938.937v.938h1.875v-.938A2.816 2.816 0 0030 8.437H18.75a.938.938 0 01-.938-.937A2.816 2.816 0 0015 4.687H8.437a.938.938 0 010-1.875H18.75V.938H8.437A2.816 2.816 0 005.626 3.75a2.816 2.816 0 002.813 2.813z"/><path d="M27.188 6.563H30a4.693 4.693 0 014.688 4.687v.938h1.874v-.938A6.57 6.57 0 0030 4.687h-2.813a.938.938 0 010-1.875H37.5V.938H27.187a2.816 2.816 0 00-2.812 2.812 2.816 2.816 0 002.813 2.813zM32.813 38.438h1.874v1.874h-1.874v-1.874zM36.563 38.438h1.874v1.874h-1.874v-1.874zM29.063 38.438h1.875v1.874h-1.875v-1.874zM25.313 38.438h1.875v1.874h-1.875v-1.874zM17.813 38.438h1.875v1.874h-1.875v-1.874zM21.563 38.438h1.875v1.874h-1.875v-1.874zM21.563 42.188h1.875v1.874h-1.875v-1.874zM17.813 42.188h1.875v1.874h-1.875v-1.874zM21.563 45.938h1.875v1.874h-1.875v-1.874zM17.813 45.938h1.875v1.874h-1.875v-1.874zM17.813 49.688h1.875v1.874h-1.875v-1.874zM21.563 49.688h1.875v1.874h-1.875v-1.874zM21.563 53.438h1.875v1.874h-1.875v-1.874zM17.813 53.438h1.875v1.874h-1.875v-1.874zM32.813 23.438h1.874v1.875h-1.874v-1.875zM32.813 30.938h1.874v1.875h-1.874v-1.876zM32.813 27.188h1.874v1.875h-1.874v-1.875zM49.688 25.313h1.874v1.875h-1.874v-1.875zM49.688 32.813h1.874v1.874h-1.874v-1.874zM49.688 29.063h1.874v1.875h-1.874v-1.875zM49.688 36.563h1.874v1.874h-1.874v-1.874z"/></symbol><symbol fill="currentColor" viewBox="0 0 60 60" id="swiper-factory" xmlns="http://www.w3.org/2000/svg"><path d="M59 35h-3.068L54 6.932A1 1 0 0053 6h-6a1 1 0 00-1 .932L44.065 35H42v-6a1 1 0 00-1.625-.78L32 34.92V29a1 1 0 00-1.625-.78L22 34.92V29a1 1 0 00-1.625-.78L12 34.92V29a1 1 0 00-1.515-.857l-10 6A1 1 0 000 35v24a1 1 0 001 1h58a1 1 0 001-1V36a1 1 0 00-1-1zM47.932 8h4.133l1.862 27h-7.857l1.862-27zM34 58V46h6v12h-6zm24 0H42V45a1 1 0 00-1-1h-8a1 1 0 00-1 1v13H2V35.566l8-4.8V37a1 1 0 001.625.781l8.375-6.7V37a1 1 0 001.625.782l8.375-6.7V37a1 1 0 001.625.782l8.374-6.7V36a1 1 0 001 1h17v21zM33.993 2c.363.195.692.45.972.752A3.498 3.498 0 0037.2 4a3.65 3.65 0 002.356-1.3c.253-.265.536-.5.844-.7.206.01.745.514 1.035.785A3.35 3.35 0 0043.599 4a3.904 3.904 0 002.513-1.378c.245-.23.616-.579.687-.621.537 0 .66.177.99.654A2.529 2.529 0 0050 4a1 1 0 000-2c-.2 0-.238-.013-.563-.483A2.955 2.955 0 0046.799 0a3.211 3.211 0 00-2.057 1.164c-.332.314-.89.837-1.1.841a4.076 4.076 0 01-.843-.678A3.71 3.71 0 0040.4 0a3.467 3.467 0 00-2.21 1.236c-.281.301-.605.559-.962.765a3.892 3.892 0 01-.9-.71A3.627 3.627 0 0034 0a1 1 0 00-.006 2z"/><path d="M11 46H7a1 1 0 00-1 1v6a1 1 0 001 1h4a1 1 0 001-1v-6a1 1 0 00-1-1zm-1 6H8v-4h2v4zM19 46h-4a1 1 0 00-1 1v6a1 1 0 001 1h4a1 1 0 001-1v-6a1 1 0 00-1-1zm-1 6h-2v-4h2v4zM27 46h-4a1 1 0 00-1 1v6a1 1 0 001 1h4a1 1 0 001-1v-6a1 1 0 00-1-1zm-1 6h-2v-4h2v4z"/></symbol><symbol fill="currentColor" viewBox="0 0 60 60" id="swiper-hands" xmlns="http://www.w3.org/2000/svg"><g clip-path="url(#clip0)"><path d="M60 20.434c-.001-.911-.27-1.835-.862-2.596l-4.754-6.083c-.796-1.011-2.008-1.526-3.218-1.528-.721 0-1.455.184-2.103.589L44.427 13.7c-.487.31-1.323.524-2.13.519-.627.002-1.233-.123-1.633-.32l-4.54-2.2c-.732-.352-1.548-.497-2.37-.498-1.178.005-2.372.295-3.331.96l-.53.372c-.423-.212-1.07-.534-1.803-.898-.879-.431-1.912-.605-2.956-.608-.943.002-1.886.148-2.714.497l-3.092 1.32c-.503.218-1.303.36-2.098.357-.795.003-1.594-.14-2.098-.357l-3.094-1.32a4.504 4.504 0 00-1.766-.345c-.689 0-1.373.137-2.01.394a4.568 4.568 0 00-1.694 1.167L.933 19.05a3.66 3.66 0 00.357 5.23l5.256 4.484-2.493 2.6a3.707 3.707 0 00-1.03 2.568 3.698 3.698 0 001.158 2.693l.505.481a3.71 3.71 0 001.649.893c-.3.553-.465 1.16-.464 1.767a3.704 3.704 0 001.156 2.694h-.001l.507.482a3.748 3.748 0 002.58 1.025 3.77 3.77 0 001.459-.294 3.676 3.676 0 001.034 1.8l.507.483a3.759 3.759 0 004.652.4c.183.587.496 1.144.973 1.597l.507.482a3.742 3.742 0 002.579 1.025c.982 0 1.974-.385 2.707-1.15l2.204-2.301 2.994 2.77a3.73 3.73 0 002.544.994 3.737 3.737 0 002.738-1.184l.478-.512c.412-.443.682-.967.838-1.515l1.16 1.07a3.747 3.747 0 002.543.991c.998.001 2.008-.398 2.743-1.185l.475-.512a3.674 3.674 0 00.953-2.054c.306.079.616.132.93.132.998 0 2.004-.4 2.74-1.185l.476-.512c.667-.713.998-1.629.997-2.532a3.8 3.8 0 00-.103-.834 3.705 3.705 0 002.243-1.135l.477-.512a3.71 3.71 0 00.997-2.533 3.706 3.706 0 00-1.19-2.728l-.895-.826 8.067-8.919c.725-.803 1.059-1.836 1.06-2.854zM7.267 36.1a1.696 1.696 0 01-1.172-.463l-.506-.481a1.675 1.675 0 01-.525-1.225c.001-.425.153-.84.466-1.166l5.107-5.329c.332-.347.776-.52 1.232-.521.426 0 .842.154 1.172.464l.504.481s.522.773.524 1.226c-.002.34-.104.67-.302.957l-5.512 5.743a1.72 1.72 0 01-.988.314zm4.079 5.316a1.698 1.698 0 01-1.231.52c-.427-.001-.844-.154-1.172-.464l-.507-.482h-.002a1.676 1.676 0 01-.522-1.226c0-.425.154-.84.465-1.166 0 0 6.807-7.086 6.864-7.154a1.691 1.691 0 011.178-.475c.427 0 .844.153 1.172.463l.507.483c.349.33.522.772.524 1.225-.002.425-.155.84-.467 1.167l-6.81 7.108zm5.579 3.012c-.332.347-.775.52-1.23.521-.428 0-.844-.154-1.172-.464l-.509-.482a1.673 1.673 0 01-.524-1.225c0-.38.13-.747.376-1.053l4.74-4.948c.32-.288.721-.44 1.136-.44.428 0 .844.153 1.172.463l.509.483c.348.33.522.772.524 1.225-.002.425-.156.84-.467 1.166l-4.555 4.754zm9.007-.522l-2.877 3.002c-.331.346-.775.52-1.23.521-.428 0-.844-.154-1.172-.464l-.508-.482a1.682 1.682 0 01-.523-1.226c.001-.425.155-.84.466-1.166l2.875-3.002c.333-.346.777-.52 1.232-.52.427 0 .845.153 1.172.464l.51.482c.347.33.52.772.521 1.224-.001.426-.155.841-.466 1.167zm24.989-8.143c0 .416-.15.825-.453 1.15l-.477.51a1.697 1.697 0 01-1.246.537c-.42 0-.83-.148-1.155-.449l-8.032-7.427-1.389 1.487 8.597 7.964a1.69 1.69 0 01.088 2.391l-.475.512a1.7 1.7 0 01-1.247.536 1.693 1.693 0 01-1.154-.448l-8.034-7.428-1.387 1.488 7.13 6.592c.343.33.52.768.52 1.218 0 .417-.149.826-.45 1.15l-.477.51a1.698 1.698 0 01-1.248.538 1.697 1.697 0 01-1.156-.448l-7.115-6.57h-.002l-1.385 1.489.001.001.027.025 3.564 3.29a1.674 1.674 0 01.03 2.315l-.476.512a1.695 1.695 0 01-1.244.536 1.69 1.69 0 01-1.154-.449l-3.103-2.873c.27-.53.42-1.104.42-1.681a3.705 3.705 0 00-1.155-2.694l-.509-.483a3.738 3.738 0 00-2.577-1.024c-.072 0-.144.017-.214.02 0-.016.004-.034.004-.051 0-.978-1.156-2.695-1.156-2.695l-.507-.481a3.726 3.726 0 00-1.882-.959c.141-.4.22-.815.22-1.232 0-.978-.386-1.966-1.155-2.694l-.507-.482a3.745 3.745 0 00-2.58-1.026c-.107 0-.213.022-.32.032a3.704 3.704 0 00-1.144-2.578l-.506-.481a3.743 3.743 0 00-2.58-1.027c-.983 0-1.974.386-2.707 1.15L7.96 27.297l-5.34-4.555a1.634 1.634 0 01-.159-2.34l5.635-6.31a2.57 2.57 0 01.941-.635 3.353 3.353 0 011.238-.243c.358 0 .694.064.963.18l3.093 1.32c.872.368 1.885.518 2.902.522 1.019-.004 2.03-.154 2.902-.522l3.092-1.32c.476-.207 1.196-.336 1.91-.333.792-.005 1.584.159 2.043.393l.826.412-3.153 2.217a3.651 3.651 0 00-1.558 2.989 3.637 3.637 0 00.726 2.18l.416.559c.79 1.051 2.024 1.592 3.257 1.595.696 0 1.405-.176 2.037-.556l1.886-1.132c.384-.235.965-.384 1.566-.381.705-.004 1.416.205 1.844.519l5.217 3.74c1.161.832 3.052 2.375 4.1 3.346l6.039 5.583c.357.331.537.78.539 1.24zm6.505-13.833l-8.044 8.895-3.652-3.376a53.74 53.74 0 00-4.296-3.505l-5.216-3.74c-.884-.627-1.967-.898-3.037-.902-.911.003-1.829.202-2.621.673l-1.885 1.133c-.289.174-.63.262-.983.263-.633.002-1.267-.293-1.62-.774l-.415-.559-.001-.001a1.621 1.621 0 01-.326-.97 1.624 1.624 0 01.696-1.33l5.576-3.918c.482-.35 1.34-.594 2.154-.588.566-.003 1.107.111 1.477.294l4.539 2.199c.774.371 1.647.523 2.526.525 1.129-.005 2.27-.25 3.21-.828l4.637-2.885c.296-.184.652-.28 1.022-.28.626-.001 1.253.283 1.608.745l4.754 6.083c.274.349.433.84.433 1.35 0 .57-.2 1.13-.536 1.496z"/></g><defs><clipPath id="clip0"><path d="M0 0h60v60H0z"/></clipPath></defs></symbol><symbol fill="currentColor" viewBox="0 0 60 60" id="swiper-money" xmlns="http://www.w3.org/2000/svg"><path d="M30 45.234a1.172 1.172 0 100 2.345 1.172 1.172 0 000-2.345z"/><path d="M54.971 7.192C52.087 6.03 48.338 5.39 44.414 5.39c-3.924 0-7.673.64-10.557 1.8-1.704.687-3.005 1.526-3.857 2.467-.852-.941-2.153-1.78-3.857-2.466C23.259 6.03 19.51 5.39 15.586 5.39c-3.924 0-7.673.64-10.557 1.8C1.786 8.499 0 10.356 0 12.422v28.126c0 2.066 1.786 3.924 5.029 5.23 2.682 1.08 6.113 1.708 9.737 1.791v.01c0 4.009 6.549 7.031 15.234 7.031 8.685 0 15.234-3.022 15.234-7.03v-.011c3.624-.083 7.055-.71 9.737-1.791C58.214 44.471 60 42.613 60 40.547V12.422c0-2.067-1.786-3.924-5.029-5.23zm2.685 26.324c0 1-1.364 2.171-3.56 3.056-2.378.957-5.57 1.536-8.862 1.62v-4.676-.01c3.624-.083 7.055-.711 9.737-1.791 1.053-.424 1.951-.907 2.685-1.435v3.236zM28.828 19.453c0 1-1.364 2.172-3.56 3.056-2.575 1.037-6.104 1.632-9.682 1.632-3.579 0-7.107-.595-9.682-1.632-2.196-.884-3.56-2.055-3.56-3.056v-3.236c.734.529 1.632 1.011 2.685 1.435 2.884 1.161 6.633 1.801 10.557 1.801 3.924 0 7.673-.64 10.557-1.801 1.053-.424 1.95-.906 2.685-1.435v3.236zm-23.8 5.23c2.885 1.162 6.634 1.801 10.558 1.801 3.924 0 7.673-.64 10.557-1.8 1.053-.425 1.95-.907 2.685-1.436v3.257c-3.031.103-5.939.6-8.29 1.428-2.36.831-4.056 1.939-4.98 3.239-3.568-.003-7.086-.597-9.654-1.632-2.196-.884-3.56-2.055-3.56-3.056v-3.236c.734.529 1.632 1.011 2.685 1.435zM2.345 30.28c.734.528 1.632 1.01 2.685 1.434 2.682 1.08 6.113 1.709 9.737 1.791v4.686c-3.293-.083-6.484-.662-8.861-1.62-2.197-.884-3.561-2.055-3.561-3.055V30.28zm14.89 2.66c.868-2.021 5.88-4.112 12.766-4.112s11.898 2.09 12.766 4.11c.084.197.125.386.125.578 0 1.03-1.27 2.174-3.398 3.06-2.517 1.05-5.888 1.627-9.493 1.627-3.605 0-6.976-.577-9.493-1.626-2.127-.887-3.398-2.031-3.398-3.061 0-.192.041-.381.124-.576zm40.422-6.456c0 1-1.364 2.172-3.56 3.056-2.568 1.035-6.085 1.629-9.654 1.632-.922-1.3-2.62-2.407-4.98-3.239-2.351-.828-5.259-1.325-8.29-1.428v-3.257c.734.529 1.632 1.011 2.685 1.435 2.884 1.162 6.633 1.801 10.557 1.801 3.924 0 7.673-.64 10.557-1.8 1.053-.425 1.95-.907 2.685-1.436v3.236zm0-7.03c0 1-1.364 2.17-3.56 3.055-2.575 1.037-6.103 1.632-9.682 1.632-3.578 0-7.107-.595-9.681-1.632-2.197-.884-3.561-2.055-3.561-3.056v-3.236c.734.529 1.632 1.011 2.685 1.435 2.884 1.161 6.633 1.801 10.557 1.801 3.924 0 7.673-.64 10.557-1.801 1.053-.424 1.95-.906 2.685-1.435v3.236zM34.733 9.365c2.574-1.037 6.103-1.632 9.681-1.632 3.578 0 7.107.595 9.681 1.632 2.197.885 3.561 2.055 3.561 3.056 0 1-1.364 2.171-3.56 3.056-2.575 1.037-6.103 1.631-9.682 1.631-3.578 0-7.107-.594-9.681-1.631-2.197-.885-3.561-2.056-3.561-3.056s1.364-2.171 3.56-3.056zm-28.829 0c2.575-1.037 6.104-1.632 9.682-1.632 3.578 0 7.107.595 9.681 1.632 2.197.885 3.561 2.055 3.561 3.056 0 1-1.364 2.171-3.56 3.056-2.575 1.037-6.104 1.631-9.682 1.631-3.579 0-7.107-.594-9.682-1.631-2.196-.885-3.56-2.056-3.56-3.056s1.364-2.171 3.56-3.056zm0 34.237c-2.196-.885-3.56-2.056-3.56-3.056V37.31c.734.528 1.632 1.01 2.685 1.435 2.682 1.08 6.113 1.708 9.737 1.79v4.687c-3.293-.083-6.484-.663-8.862-1.62zm33.589 7.036c-2.517 1.05-5.888 1.627-9.493 1.627-3.605 0-6.976-.578-9.493-1.627-2.127-.886-3.398-2.03-3.398-3.06V44.41c.266.193.56.383.884.572 1.82 1.053 4.296 1.832 7.161 2.252a1.172 1.172 0 00.34-2.319c-5.446-.8-8.385-2.847-8.385-4.368v-3.178c2.653 1.94 7.335 3.178 12.891 3.178s10.238-1.237 12.89-3.178v3.178c0 1.52-2.938 3.569-8.385 4.368a1.172 1.172 0 10.34 2.32c2.866-.421 5.342-1.2 7.162-2.253.325-.189.618-.38.884-.572v3.168c0 1.03-1.27 2.175-3.398 3.061zm14.602-7.036c-2.377.957-5.568 1.537-8.86 1.62v-4.686c3.623-.083 7.054-.711 9.736-1.791 1.053-.424 1.95-.907 2.685-1.435v3.236c0 1-1.364 2.171-3.56 3.056z"/></symbol><symbol fill="currentColor" viewBox="0 0 60 60" id="swiper-pins" xmlns="http://www.w3.org/2000/svg"><path d="M34.68 6.012c0-.725.588-1.312 1.312-1.312h.313a1.311 1.311 0 110 2.623h-.313a1.312 1.312 0 01-1.311-1.311zm1.81 30.487c0 .724.588 1.312 1.312 1.312h.312a1.311 1.311 0 100-2.623h-.312c-.724 0-1.311.587-1.311 1.311zm1.468-6.012A6.019 6.019 0 0143.97 36.5a6.022 6.022 0 01-4.7 5.868v3.982a1.311 1.311 0 11-2.623 0v-3.982a6.022 6.022 0 01-4.7-5.868 6.019 6.019 0 016.011-6.012zm0 2.623a3.393 3.393 0 00-3.389 3.39 3.393 3.393 0 003.39 3.388 3.393 3.393 0 003.388-3.389 3.393 3.393 0 00-3.389-3.389zM16.836 19.051a6.019 6.019 0 016.012-6.012 6.019 6.019 0 016.012 6.012 6.023 6.023 0 01-4.7 5.868V28.9a1.311 1.311 0 11-2.623 0V24.92a6.023 6.023 0 01-4.701-5.868zm2.623 0a3.393 3.393 0 003.389 3.389 3.393 3.393 0 003.389-3.389 3.393 3.393 0 00-3.389-3.389 3.393 3.393 0 00-3.39 3.39zm10.678-13.04A6.019 6.019 0 0136.148 0a6.019 6.019 0 016.012 6.012 6.023 6.023 0 01-4.7 5.868v3.982a1.311 1.311 0 11-2.623 0v-3.983a6.023 6.023 0 01-4.7-5.867zm2.623 0a3.393 3.393 0 003.389 3.39 3.393 3.393 0 003.388-3.39 3.393 3.393 0 00-3.389-3.388 3.393 3.393 0 00-3.388 3.389zM52.317 22.67l-2.196-.795-1.809-12.387c-.215-1.475-1.032-2.697-2.3-3.44a1.311 1.311 0 10-1.327 2.263c.592.347.93.856 1.032 1.556l1.922 13.164c.07.478.397.88.852 1.044l2.933 1.062c2.011.727 2.21 1.23 2.157 1.585l-3.156 21.61c-.148 1.016-.817 1.66-1.99 1.917l-19.892 4.339a.561.561 0 01-.477-.1c-.432-.293-.826-1.05-.958-1.843l-.106-.635a1.311 1.311 0 00-1.74-1.017L7.686 57.354c-.25.09-.565-.149-.656-.224-.418-.348-.68-.922-.612-1.335l6.094-36.498c.148-.89.633-1.733 1.104-1.92a1.311 1.311 0 10-.973-2.437c-1.63.651-2.473 2.455-2.718 3.925L3.83 55.363c-.224 1.342.373 2.827 1.52 3.782.677.563 1.445.855 2.209.855.343 0 .686-.06 1.019-.18l16.156-5.847c.363 1.152 1.026 2.122 1.86 2.687a3.17 3.17 0 002.507.49l19.892-4.339c2.25-.49 3.718-1.985 4.027-4.1l3.156-21.61c.42-2.881-2.69-4.007-3.86-4.431zm-29.625-2.307h.312a1.311 1.311 0 100-2.623h-.312a1.311 1.311 0 100 2.623zm-2.468-9.744a1.31 1.31 0 001.51-1.077l.665-3.988c.133-.792.527-1.55.959-1.843.162-.11.3-.138.476-.1l3.25.709a1.31 1.31 0 10.558-2.563l-3.248-.709a3.17 3.17 0 00-2.507.492c-1.042.706-1.818 2.045-2.075 3.582l-.666 3.988c-.119.714.363 1.39 1.078 1.51z"/></symbol><symbol fill="currentColor" viewBox="0 0 60 60" id="swiper-rubl" xmlns="http://www.w3.org/2000/svg"><path d="M33.766 15.063h-9.414c-.971 0-1.758.787-1.758 1.757v13.305h-2.008a1.758 1.758 0 000 3.516h2.008v4.015h-2.008a1.758 1.758 0 000 3.516h2.008v3.89a1.758 1.758 0 003.515 0v-3.89h7.657a1.758 1.758 0 000-3.516h-7.657v-4.015h7.657c5.122 0 9.289-4.167 9.289-9.29 0-5.248-4.276-9.288-9.29-9.288zm0 15.062h-7.657V18.578h7.657a5.768 5.768 0 015.773 5.774 5.78 5.78 0 01-5.773 5.773z"/><path d="M30 0C13.458 0 0 13.458 0 30s13.458 30 30 30 30-13.458 30-30S46.542 0 30 0zm0 56.484C15.396 56.484 3.516 44.604 3.516 30 3.516 15.396 15.396 3.516 30 3.516c14.604 0 26.484 11.88 26.484 26.484 0 14.604-11.88 26.484-26.484 26.484z"/></symbol><symbol fill="currentColor" viewBox="0 0 18 18" id="user" xmlns="http://www.w3.org/2000/svg"><path d="M8.872 8.67a4.195 4.195 0 003.065-1.27 4.195 4.195 0 001.27-3.065c0-1.19-.427-2.222-1.27-3.065A4.196 4.196 0 008.872 0a4.195 4.195 0 00-3.066 1.27 4.195 4.195 0 00-1.27 3.065c0 1.192.428 2.223 1.27 3.066a4.196 4.196 0 003.066 1.27zm-2.32-6.654c.647-.647 1.406-.961 2.32-.961.914 0 1.672.314 2.32.96.646.648.96 1.406.96 2.32 0 .914-.314 1.673-.96 2.32-.648.646-1.406.96-2.32.96-.914 0-1.673-.314-2.32-.96-.646-.647-.96-1.406-.96-2.32 0-.914.314-1.672.96-2.32zM16.458 13.841c-.025-.35-.074-.733-.146-1.137a8.951 8.951 0 00-.28-1.144 5.645 5.645 0 00-.47-1.066 4.02 4.02 0 00-.709-.924 3.127 3.127 0 00-1.018-.64 3.52 3.52 0 00-1.3-.235c-.184 0-.362.075-.705.299-.211.138-.458.297-.734.473-.236.15-.555.291-.95.418a3.772 3.772 0 01-1.161.188c-.386 0-.777-.063-1.162-.188a4.193 4.193 0 01-.949-.418c-.273-.174-.52-.334-.735-.473-.343-.224-.52-.3-.704-.3-.468 0-.905.08-1.3.236a3.123 3.123 0 00-1.018.64 4.021 4.021 0 00-.709.924 5.66 5.66 0 00-.47 1.066 8.979 8.979 0 00-.28 1.144c-.072.403-.121.786-.145 1.138a15.41 15.41 0 00-.036 1.063c0 .94.298 1.7.887 2.26.582.554 1.352.835 2.288.835h8.667c.936 0 1.705-.28 2.287-.834.59-.56.888-1.322.888-2.262 0-.362-.012-.72-.036-1.063zm-1.58 2.56c-.383.366-.894.544-1.56.544H4.653c-.666 0-1.176-.178-1.56-.543-.377-.36-.56-.849-.56-1.497 0-.338.01-.67.033-.99a9.59 9.59 0 01.132-1.025c.065-.361.147-.7.246-1.008.094-.294.223-.586.382-.867a2.98 2.98 0 01.521-.683c.18-.173.409-.315.677-.421.249-.098.528-.152.831-.16.037.02.103.057.21.126.216.142.466.303.743.48a5.23 5.23 0 001.192.532c.49.159.99.239 1.486.239s.996-.08 1.486-.239c.48-.155.88-.334 1.193-.533.283-.18.525-.337.742-.479.107-.069.173-.107.21-.126.303.008.582.062.83.16.269.106.497.248.678.421.193.185.368.415.52.683.16.28.29.573.383.867.099.308.182.647.247 1.008.065.367.11.712.131 1.025.023.318.034.651.034.99 0 .648-.183 1.138-.56 1.497z"/></symbol><symbol fill="currentColor" viewBox="0 0 25 25" id="xls" xmlns="http://www.w3.org/2000/svg"><path d="M1.563 22.656V2.344c0-.432.35-.782.78-.782h11.72v3.125c0 .863.7 1.563 1.562 1.563h3.125v2.344h1.563V5.469a.781.781 0 00-.227-.555L15.398.226A.781.781 0 0014.844 0h-12.5A2.344 2.344 0 000 2.344v20.312A2.344 2.344 0 002.344 25h5.469v-1.563h-5.47a.781.781 0 01-.78-.781z"/><path d="M10.242 12.93l-.867 1.726-.867-1.726a.781.781 0 00-.695-.43H6.25v1.563h1.078L8.5 16.405 7.328 18.75H6.25v1.563h1.563a.781.781 0 00.695-.43l.867-1.727.867 1.727a.781.781 0 00.695.43H12.5V18.75h-1.078l-1.172-2.344 1.172-2.343H12.5V12.5h-1.563a.781.781 0 00-.695.43zM22.656 15.625h-1.562a.781.781 0 110-1.563h1.562c.432 0 .782.35.782.782H25a2.344 2.344 0 00-2.344-2.344h-1.562a2.344 2.344 0 100 4.688h1.562a.781.781 0 010 1.562h-1.562a.781.781 0 01-.782-.781H18.75a2.344 2.344 0 002.344 2.343h1.562a2.344 2.344 0 100-4.687zM14.844 12.5H13.28v7.031c0 .432.35.782.781.782h3.907V18.75h-3.125V12.5z"/></symbol><symbol fill="currentColor" viewBox="0 0 25 25" id="zip" xmlns="http://www.w3.org/2000/svg"><path d="M20.313 8.594V5.469a.781.781 0 00-.227-.555L15.398.227A.781.781 0 0014.844 0h-12.5A2.344 2.344 0 000 2.344v20.312A2.344 2.344 0 002.344 25h5.469v-1.563h-5.47a.781.781 0 01-.78-.78V2.343c0-.432.35-.781.78-.781h11.72v3.125c0 .862.7 1.562 1.562 1.562h3.125v2.344h1.563zM23.438 12.5h-3.125a.781.781 0 00-.782.781v7.032h1.563v-2.344h2.343c.863 0 1.563-.7 1.563-1.563v-2.343c0-.863-.7-1.563-1.563-1.563zm0 3.907h-2.344v-2.344h2.343v2.344z"/><path d="M18.75 12.5h-1.563v7.813h1.563V12.5zM16.04 12.619a.782.782 0 00-.415-.119h-4.688v1.563h3.282l-3.125 5.054a.781.781 0 00.625 1.196h4.687V18.75h-3.281l3.164-5.054a.781.781 0 00-.248-1.077z"/></symbol></svg>