<svg width="135" height="40" viewBox="0 0 135 40" fill="currentColor" xmlns="http://www.w3.org/2000/svg">
<path d="M130 0.8C131.114 0.8 132.182 1.2425 132.97 2.03015C133.758 2.8178 134.2 3.88609 134.2 5V35C134.2 36.1139 133.758 37.1822 132.97 37.9698C132.182 38.7575 131.114 39.2 130 39.2H5C3.88609 39.2 2.8178 38.7575 2.03015 37.9698C1.2425 37.1822 0.8 36.1139 0.8 35V5C0.8 3.88609 1.2425 2.8178 2.03015 2.03015C2.8178 1.2425 3.88609 0.8 5 0.8H130ZM130 0H5C3.67392 0 2.40215 0.526784 1.46447 1.46447C0.526784 2.40215 0 3.67392 0 5V35C0 36.3261 0.526784 37.5979 1.46447 38.5355C2.40215 39.4732 3.67392 40 5 40H130C131.326 40 132.598 39.4732 133.536 38.5355C134.473 37.5979 135 36.3261 135 35V5C135 3.67392 134.473 2.40215 133.536 1.46447C132.598 0.526784 131.326 0 130 0Z"/>
<path d="M32.1129 19.3131C32.0853 16.2422 34.6274 14.7482 34.7436 14.6786C33.3039 12.5796 31.0724 12.2928 30.2883 12.2699C28.4141 12.0727 26.5962 13.3914 25.6414 13.3914C24.6677 13.3914 23.1975 12.289 21.613 12.3214C19.574 12.3528 17.6665 13.5333 16.6203 15.3665C14.4612 19.1044 16.0715 24.5973 18.14 27.6187C19.1748 29.0984 20.3839 30.7506 21.9665 30.6924C23.5148 30.6286 24.0931 29.7053 25.9616 29.7053C27.8129 29.7053 28.356 30.6924 29.97 30.6553C31.6317 30.6286 32.6779 29.1689 33.6765 27.6759C34.8722 25.9799 35.3524 24.3096 35.3715 24.2238C35.3324 24.2105 32.1444 22.9938 32.1129 19.3131Z"/>
<path d="M29.064 10.2823C29.8967 9.2409 30.4665 7.82408 30.3083 6.38629C29.103 6.43965 27.5957 7.22 26.7277 8.23855C25.9597 9.13609 25.2737 10.6072 25.4509 11.9907C26.8049 12.0917 28.195 11.3075 29.064 10.2823Z"/>
<path d="M54.5198 30.4797H52.356L51.1707 26.7552H47.0508L45.9217 30.4797H43.8151L47.8969 17.7997H50.418L54.5198 30.4797ZM50.8134 25.1926L49.7415 21.8816C49.6281 21.5433 49.4157 20.7468 49.1022 19.4929H49.0641C48.9393 20.0322 48.7382 20.8287 48.4619 21.8816L47.409 25.1926H50.8134Z"/>
<path d="M65.0167 25.7958C65.0167 27.3508 64.5965 28.5799 63.7561 29.4822C63.0034 30.2854 62.0687 30.6866 60.953 30.6866C59.7486 30.6866 58.8835 30.254 58.3566 29.3889H58.3184V34.2053H56.2871V24.3466C56.2871 23.369 56.2613 22.3657 56.2118 21.3367H57.9983L58.1117 22.7859H58.1498C58.8272 21.694 59.8553 21.149 61.235 21.149C62.3136 21.149 63.214 21.5749 63.9343 22.4277C64.6565 23.2814 65.0167 24.4038 65.0167 25.7958ZM62.9472 25.8701C62.9472 24.9802 62.7471 24.2466 62.345 23.6692C61.9058 23.067 61.316 22.7659 60.5766 22.7659C60.0754 22.7659 59.62 22.9336 59.2131 23.2642C58.8053 23.5977 58.5385 24.0331 58.4137 24.5724C58.3508 24.824 58.3194 25.0298 58.3194 25.1917V26.7162C58.3194 27.3813 58.5233 27.9425 58.9311 28.4008C59.3389 28.8591 59.8687 29.0878 60.5204 29.0878C61.2855 29.0878 61.881 28.7924 62.3069 28.2036C62.7338 27.6138 62.9472 26.8363 62.9472 25.8701Z"/>
<path d="M75.533 25.7958C75.533 27.3508 75.1128 28.5799 74.2715 29.4822C73.5197 30.2854 72.585 30.6866 71.4693 30.6866C70.2649 30.6866 69.3998 30.254 68.8738 29.3889H68.8357V34.2053H66.8043V24.3466C66.8043 23.369 66.7786 22.3657 66.7291 21.3367H68.5156L68.629 22.7859H68.6671C69.3436 21.694 70.3716 21.149 71.7523 21.149C72.8299 21.149 73.7303 21.5749 74.4525 22.4277C75.1719 23.2814 75.533 24.4038 75.533 25.7958ZM73.4635 25.8701C73.4635 24.9802 73.2625 24.2466 72.8604 23.6692C72.4211 23.067 71.8333 22.7659 71.0929 22.7659C70.5908 22.7659 70.1363 22.9336 69.7285 23.2642C69.3207 23.5977 69.0549 24.0331 68.93 24.5724C68.8681 24.824 68.8357 25.0298 68.8357 25.1917V26.7162C68.8357 27.3813 69.0396 27.9425 69.4455 28.4008C69.8533 28.8581 70.3831 29.0878 71.0367 29.0878C71.8018 29.0878 72.3973 28.7924 72.8232 28.2036C73.2501 27.6138 73.4635 26.8363 73.4635 25.8701Z"/>
<path d="M87.2907 26.9239C87.2907 28.0025 86.9162 28.8801 86.1645 29.5575C85.3384 30.2978 84.1884 30.6675 82.7106 30.6675C81.3461 30.6675 80.2523 30.4045 79.4243 29.8776L79.895 28.1845C80.7868 28.7238 81.7654 28.9944 82.8316 28.9944C83.5967 28.9944 84.1922 28.821 84.62 28.4761C85.0459 28.1312 85.2584 27.6681 85.2584 27.0907C85.2584 26.5762 85.083 26.1426 84.7315 25.7911C84.3818 25.4395 83.7977 25.1127 82.9821 24.8106C80.7621 23.9826 79.653 22.7697 79.653 21.1747C79.653 20.1323 80.0417 19.2777 80.8202 18.6126C81.5958 17.9466 82.6305 17.6141 83.9244 17.6141C85.0783 17.6141 86.0368 17.8151 86.8019 18.2162L86.2941 19.8722C85.5794 19.4835 84.7715 19.2891 83.8673 19.2891C83.1527 19.2891 82.5943 19.4654 82.1941 19.816C81.8559 20.1295 81.6863 20.5116 81.6863 20.9641C81.6863 21.4653 81.8797 21.8798 82.2684 22.2056C82.6067 22.5067 83.2213 22.8326 84.1131 23.1842C85.204 23.6234 86.0054 24.137 86.5208 24.7258C87.0344 25.3128 87.2907 26.0474 87.2907 26.9239Z"/>
<path d="M94.0069 22.8612H91.7678V27.3003C91.7678 28.4294 92.1623 28.9934 92.9531 28.9934C93.3161 28.9934 93.6172 28.962 93.8554 28.8991L93.9116 30.4417C93.5114 30.5913 92.9845 30.6666 92.3319 30.6666C91.5296 30.6666 90.9027 30.4217 90.4501 29.9329C89.9994 29.4432 89.7726 28.6218 89.7726 27.468V22.8593H88.4387V21.3348H89.7726V19.6607L91.7678 19.0585V21.3348H94.0069V22.8612Z"/>
<path d="M104.11 25.833C104.11 27.2384 103.708 28.3922 102.905 29.2946C102.064 30.2235 100.947 30.6866 99.5552 30.6866C98.2136 30.6866 97.1455 30.2416 96.349 29.3517C95.5524 28.4618 95.1542 27.3384 95.1542 25.9845C95.1542 24.5677 95.5639 23.4072 96.3862 22.5049C97.2065 21.6016 98.3137 21.15 99.7057 21.15C101.047 21.15 102.127 21.5949 102.941 22.4858C103.721 23.35 104.11 24.4657 104.11 25.833ZM102.002 25.8987C102.002 25.0555 101.822 24.3323 101.457 23.7292C101.031 22.9994 100.422 22.6354 99.6333 22.6354C98.8168 22.6354 98.1965 23.0003 97.7706 23.7292C97.4057 24.3333 97.2256 25.0679 97.2256 25.9369C97.2256 26.7801 97.4057 27.5033 97.7706 28.1054C98.2098 28.8353 98.8234 29.1993 99.6152 29.1993C100.391 29.1993 101 28.8277 101.439 28.0864C101.813 27.4718 102.002 26.741 102.002 25.8987Z"/>
<path d="M110.712 23.1232C110.511 23.086 110.297 23.067 110.072 23.067C109.357 23.067 108.805 23.3366 108.416 23.8769C108.078 24.3533 107.908 24.9554 107.908 25.6824V30.4798H105.878L105.897 24.2161C105.897 23.1623 105.871 22.2028 105.821 21.3376H107.59L107.664 23.087H107.721C107.935 22.4858 108.273 22.0017 108.736 21.6387C109.189 21.3119 109.678 21.149 110.205 21.149C110.392 21.149 110.562 21.1623 110.712 21.1861V23.1232Z"/>
<path d="M119.797 25.4757C119.797 25.8397 119.774 26.1465 119.723 26.3971H113.629C113.653 27.3004 113.947 27.9911 114.513 28.4675C115.027 28.8935 115.691 29.1069 116.506 29.1069C117.409 29.1069 118.232 28.963 118.972 28.6743L119.291 30.0845C118.425 30.4618 117.404 30.6495 116.225 30.6495C114.808 30.6495 113.695 30.2321 112.885 29.3984C112.077 28.5647 111.672 27.4452 111.672 26.0408C111.672 24.662 112.048 23.5139 112.802 22.5983C113.591 21.6207 114.657 21.1319 115.999 21.1319C117.316 21.1319 118.314 21.6207 118.991 22.5983C119.528 23.3748 119.797 24.3352 119.797 25.4757ZM117.86 24.9488C117.874 24.3467 117.741 23.8264 117.466 23.3872C117.114 22.8222 116.574 22.5401 115.847 22.5401C115.183 22.5401 114.643 22.8155 114.23 23.3681C113.892 23.8074 113.691 24.3343 113.629 24.9479H117.86V24.9488Z"/>
<path d="M51.0976 14.7012H50.041V13.125H45.8188V14.7012H44.7445L44.7093 12.2356H45.2244C45.4798 11.9891 45.6838 11.631 45.8364 11.1614C45.989 10.6888 46.0873 10.1546 46.1314 9.5588L46.2987 6.71466H50.3403V12.2356H51.1548L51.0976 14.7012ZM46.4836 12.2356H49.2309V7.61281H47.3597L47.254 9.41792C47.1748 10.6243 46.918 11.5635 46.4836 12.2356Z"/>
<path d="M52.1384 10.6991C52.1384 10.2324 52.2309 9.81269 52.4158 9.43993C52.6007 9.06423 52.8604 8.77659 53.195 8.577C53.5297 8.37448 53.9142 8.27322 54.3486 8.27322C54.9913 8.27322 55.5123 8.48014 55.9115 8.894C56.3136 9.30785 56.5308 9.85672 56.5631 10.5406L56.5675 10.7916C56.5675 11.2612 56.4765 11.6809 56.2945 12.0507C56.1155 12.4206 55.8572 12.7067 55.5197 12.9093C55.1851 13.1118 54.7976 13.213 54.3574 13.213C53.6852 13.213 53.1466 12.99 52.7416 12.5438C52.3395 12.0948 52.1384 11.4975 52.1384 10.7519V10.6991ZM53.2083 10.7916C53.2083 11.2817 53.3095 11.6662 53.512 11.9451C53.7146 12.221 53.9963 12.3589 54.3574 12.3589C54.7184 12.3589 54.9987 12.218 55.1983 11.9363C55.4008 11.6545 55.5021 11.2421 55.5021 10.6991C55.5021 10.2177 55.3979 9.83617 55.1895 9.5544C54.984 9.27263 54.7037 9.13174 54.3486 9.13174C53.9993 9.13174 53.7219 9.27116 53.5164 9.55C53.311 9.8259 53.2083 10.2398 53.2083 10.7916Z"/>
<path d="M59.8801 12.3589C60.1472 12.3589 60.3688 12.2811 60.5449 12.1256C60.721 11.97 60.8149 11.7778 60.8267 11.5488H61.8349C61.8232 11.8453 61.7307 12.1226 61.5575 12.3809C61.3844 12.6363 61.1495 12.8388 60.8531 12.9885C60.5566 13.1382 60.2367 13.213 59.8933 13.213C59.227 13.213 58.6987 12.9973 58.3083 12.5658C57.918 12.1344 57.7228 11.5385 57.7228 10.7784V10.6683C57.7228 9.94331 57.9165 9.36362 58.3039 8.92922C58.6914 8.49188 59.2197 8.27322 59.8889 8.27322C60.4554 8.27322 60.9162 8.43905 61.2714 8.77072C61.6294 9.09946 61.8173 9.53239 61.8349 10.0695H60.8267C60.8149 9.79655 60.721 9.57201 60.5449 9.3959C60.3717 9.2198 60.1501 9.13174 59.8801 9.13174C59.5338 9.13174 59.2667 9.25795 59.0788 9.51037C58.891 9.75986 58.7956 10.14 58.7926 10.6507V10.8224C58.7926 11.339 58.8851 11.7249 59.07 11.9803C59.2579 12.2327 59.5279 12.3589 59.8801 12.3589Z"/>
<path d="M66.8425 9.21099H65.2972V13.125H64.2273V9.21099H62.6996V8.36127H66.8425V9.21099Z"/>
<path d="M69.7281 11.5928L70.6966 8.36127H71.8369L69.9438 13.847C69.6532 14.6483 69.1601 15.049 68.4645 15.049C68.3089 15.049 68.1372 15.0226 67.9494 14.9697V14.142L68.1519 14.1552C68.4219 14.1552 68.6244 14.1053 68.7595 14.0055C68.8974 13.9087 69.006 13.7443 69.0853 13.5124L69.2394 13.103L67.5663 8.36127H68.7198L69.7281 11.5928Z"/>
<path d="M76.9458 13.125H75.876V9.2242H74.018V13.125H72.9482V8.36127H76.9458V13.125Z"/>
<path d="M82.5698 13.125H81.5V11.201H79.6464V13.125H78.5766V8.36127H79.6464V10.3469H81.5V8.36127H82.5698V13.125Z"/>
<path d="M83.9629 10.6991C83.9629 10.2324 84.0553 9.81269 84.2402 9.43993C84.4251 9.06423 84.6849 8.77659 85.0195 8.577C85.3541 8.37448 85.7386 8.27322 86.173 8.27322C86.8158 8.27322 87.3368 8.48014 87.736 8.894C88.1381 9.30785 88.3553 9.85672 88.3876 10.5406L88.392 10.7916C88.392 11.2612 88.301 11.6809 88.119 12.0507C87.94 12.4206 87.6817 12.7067 87.3441 12.9093C87.0095 13.1118 86.6221 13.213 86.1818 13.213C85.5097 13.213 84.9711 12.99 84.566 12.5438C84.1639 12.0948 83.9629 11.4975 83.9629 10.7519V10.6991ZM85.0327 10.7916C85.0327 11.2817 85.134 11.6662 85.3365 11.9451C85.539 12.221 85.8208 12.3589 86.1818 12.3589C86.5428 12.3589 86.8231 12.218 87.0227 11.9363C87.2252 11.6545 87.3265 11.2421 87.3265 10.6991C87.3265 10.2177 87.2223 9.83617 87.0139 9.5544C86.8085 9.27263 86.5282 9.13174 86.173 9.13174C85.8237 9.13174 85.5464 9.27116 85.3409 9.55C85.1354 9.8259 85.0327 10.2398 85.0327 10.7916Z"/>
<path d="M92.5252 13.125V8.36127H94.458C95.1096 8.36127 95.6056 8.47574 95.9461 8.70468C96.2866 8.93069 96.4568 9.25648 96.4568 9.68208C96.4568 9.90221 96.3878 10.1003 96.2499 10.2764C96.1149 10.4496 95.9138 10.5832 95.6467 10.6771C95.9579 10.7417 96.2044 10.8723 96.3864 11.0689C96.5684 11.2656 96.6593 11.4975 96.6593 11.7646C96.6593 12.2078 96.495 12.5453 96.1662 12.7772C95.8404 13.0091 95.3708 13.125 94.7574 13.125H92.5252ZM93.5951 11.0953V12.2797H94.7662C95.3151 12.2797 95.5895 12.083 95.5895 11.6897C95.5895 11.2935 95.3107 11.0953 94.753 11.0953H93.5951ZM93.5951 10.3293H94.4756C95.0832 10.3293 95.387 10.1502 95.387 9.79215C95.387 9.41645 95.0993 9.22273 94.524 9.21099H93.5951V10.3293Z"/>
</svg>
