<svg width="36" height="36" viewBox="0 0 36 36" fill="currentColor" xmlns="http://www.w3.org/2000/svg">
<path d="M6.80501 20.7949C5.15363 20.7949 3.81494 22.1336 3.81494 23.785C3.81494 25.4364 5.15363 26.7751 6.80501 26.7751C8.45559 26.7732 9.79325 25.4356 9.79508 23.785C9.79508 22.1336 8.45639 20.7949 6.80501 20.7949Z"/>
<path d="M34.817 16.956L31.4843 15.4348C31.3707 15.3843 31.2746 15.3013 31.208 15.1964L28.32 10.5928C27.7822 9.73418 26.8372 9.21633 25.824 9.22501H14.0881C13.1719 9.22222 12.3066 9.64617 11.7473 10.3719L8.03334 15.2375C7.95027 15.3487 7.83263 15.4291 7.69883 15.4661L1.4917 17.1646C0.605244 17.4114 -0.00579923 18.2216 0.000413148 19.1417V21.4116C0.000413148 22.5416 0.883607 23.4814 2.01378 23.4814H2.5545C2.71387 21.3815 4.38277 19.7126 6.48272 19.5532C8.83036 19.3751 10.878 21.1337 11.0561 23.4814H24.4969C24.6562 21.3815 26.3251 19.7127 28.4251 19.5532C30.7727 19.3751 32.8204 21.1337 32.9985 23.4814H33.987C35.1172 23.4814 36.0004 22.5416 36.0004 21.4116V18.8204C36.0067 18.0203 35.5437 17.2907 34.817 16.956Z"/>
<path d="M28.7474 20.7949C27.096 20.7949 25.7573 22.1336 25.7573 23.785C25.7573 25.4364 27.096 26.7751 28.7473 26.7751C30.3979 26.7732 31.7355 25.4356 31.7375 23.785C31.7375 22.1336 30.3987 20.7949 28.7474 20.7949Z"/>
</svg>
