<svg width="81" height="81" viewBox="0 0 81 81" fill="none" xmlns="http://www.w3.org/2000/svg">
<path d="M79.2135 49.4552C84.2998 27.9551 70.9612 6.41025 49.421 1.33347C27.8808 -3.74332 6.29573 9.57043 1.20948 31.0706C-3.87678 52.5707 9.4618 74.1156 31.002 79.1923C52.5422 84.2691 74.1273 70.9554 79.2135 49.4552Z" fill="white"/>
<path d="M55.2179 63.9862C57.8461 63.9862 59.9487 61.8876 59.9487 59.2643V27.2604H21.0513V59.0545C21.0513 61.5728 23.1538 63.9862 25.782 63.9862H36.2949C38.9231 63.9862 41.0256 66.0848 41.0256 68.7081C41.0256 66.0848 43.1282 63.9862 45.7564 63.9862H55.2179Z" fill="#257ACF"/>
<g opacity="0.5">
<path opacity="0.5" d="M59.9487 27.2604V59.2643C59.9487 61.8876 57.8462 63.9862 55.2179 63.9862H45.7564C43.1282 63.9862 41.0256 66.0848 41.0256 68.7081C41.0256 66.0848 38.9231 63.9862 36.2949 63.9862H25.7821C23.1538 63.9862 21.0513 61.5728 21.0513 59.0545V27.2604H59.9487ZM59.9487 26.2111H21.0513C20.4205 26.2111 20 26.6308 20 27.2604V59.0545C20 62.3073 22.6282 65.0355 25.7821 65.0355H36.2949C38.2923 65.0355 39.9744 66.7144 39.9744 68.7081C39.9744 69.3377 40.3949 69.7574 41.0256 69.7574C41.6564 69.7574 42.0769 69.3377 42.0769 68.7081C42.0769 66.7144 43.759 65.0355 45.7564 65.0355H55.2179C58.3718 65.0355 61 62.4122 61 59.2643V27.2604C61 26.6308 60.5795 26.2111 59.9487 26.2111Z" fill="white"/>
</g>
<path d="M59.9487 15.718H20V30.4083H59.9487V15.718Z" fill="#F84034"/>
<path d="M57.8462 24.1125V20.9645H55.7436V24.1125H51.5385V20.9645H49.4359V24.1125H45.2308V20.9645H43.1282V24.1125H37.8718V20.9645H35.7692V24.1125H31.5641V20.9645H29.4615V24.1125H25.2564V20.9645H23.1538V24.1125H20V29.359H61V24.1125H57.8462Z" fill="white"/>
<path d="M53.1154 56.3263C53.641 55.0671 54.2718 54.5424 53.9564 52.4438C53.7462 50.8699 53.1154 50.0304 53.0103 49.2959C53.4308 49.2959 53.7462 49.4008 53.9564 49.6107C53.8513 49.191 52.8 47.5121 51.8538 46.8825C52.0641 47.5121 51.6436 49.6107 51.8538 50.2403C52.1692 49.8205 52.3795 49.5058 52.5897 49.4008C52.6949 49.7156 53.4308 52.234 52.5897 53.2833C51.7487 54.4375 50.382 54.5424 48.8051 53.4931C47.859 52.8635 40.5 46.8825 35.559 43C36.2949 42.1606 38.2923 38.0683 38.3974 37.8584L37.6615 37.4387L33.6667 41.531C32.8256 40.7965 32.0897 40.2718 31.6692 39.8521C32.1949 38.9077 31.9846 37.7535 31.1436 37.1239L31.0385 37.019C31.0385 36.0746 30.6179 35.1302 29.7769 34.5006C28.3051 33.2415 26.2026 33.4513 24.941 34.9203C23.6795 36.3894 23.8897 38.488 25.3615 39.7472C26.0974 40.3768 27.1487 40.6916 28.0949 40.4817L28.2 40.5866C29.041 41.3211 30.1974 41.3211 31.0385 40.6916C31.459 41.0063 32.0897 41.6359 32.9308 42.3704L29.041 46.4628L29.4615 47.0923C29.6718 46.9874 33.8769 44.7839 34.7179 43.9444C39.4487 48.1417 46.5974 54.5424 47.3333 55.277C48.7 56.6411 48.8051 58.0052 47.7538 58.9495C46.8077 59.8939 44.1795 59.6841 43.8641 59.5791C43.8641 59.2643 44.1795 59.0545 44.4949 58.7397C43.8641 58.6347 41.8667 59.4742 41.1308 59.3693C41.9718 60.2087 43.759 60.9432 44.1795 61.0482C43.9692 60.8383 43.759 60.6284 43.6538 60.1038C44.3897 60.2087 45.3359 60.6284 47.0179 60.5235C49.1205 60.4186 49.6462 59.789 50.6974 59.0545C51.5385 58.5298 52.2744 58.5298 53.0103 58.8446C52.9051 58.0052 52.6949 57.2706 53.1154 56.3263ZM27.9897 37.3338C27.5692 37.8584 27.359 38.488 27.4641 39.1176C27.0436 39.1176 26.6231 38.9077 26.3077 38.5929C25.4667 37.8584 25.2564 36.4943 26.0974 35.6549C26.8333 34.8154 28.2 34.7105 29.041 35.445C29.3564 35.7598 29.6718 36.1795 29.6718 36.5992C29.041 36.5992 28.5154 36.914 27.9897 37.3338ZM28.7256 37.9633C29.041 37.6486 29.3564 37.4387 29.7769 37.4387C29.6718 37.7535 29.5667 38.1732 29.3564 38.3831C29.1461 38.6979 28.8308 38.9077 28.4103 39.0127C28.3051 38.6979 28.4103 38.2781 28.7256 37.9633ZM30.8282 39.7472C30.1974 40.4817 29.1461 40.1669 29.2513 40.1669C29.6718 39.957 29.9872 39.6422 30.3026 39.3274C30.6179 39.0127 30.8282 38.5929 30.9333 38.1732C31.2487 38.5929 31.2487 39.2225 30.8282 39.7472Z" fill="white"/>
<path d="M22.1026 23.0631H20V24.1124H27.359V26.211H20V27.2604H24.2051V29.359H20V30.4083H61V29.359H56.7949V27.2604H61V26.211H53.641V24.1124H61V23.0631H58.8974H22.1026ZM28.4103 23.0631H26.3077H28.4103ZM34.7179 23.0631H32.6154H34.7179ZM42.0769 23.0631H38.9231H42.0769ZM48.3846 23.0631H46.2821H48.3846ZM54.6923 23.0631H52.5897H54.6923ZM57.8462 23.0631H55.7436H57.8462ZM25.2564 23.0631H23.1538H25.2564ZM51.5385 23.0631H49.4359H51.5385ZM52.5897 24.1124V26.211H45.2308V24.1124H52.5897ZM45.2308 23.0631H43.1282H45.2308ZM44.1795 24.1124V26.211H36.8205V24.1124H44.1795ZM37.8718 23.0631H35.7692H37.8718ZM31.5641 23.0631H29.4615H31.5641ZM28.4103 24.1124H35.7692V26.211H28.4103V24.1124ZM31.5641 29.359H25.2564V27.2604H31.5641V29.359ZM39.9744 29.359H32.6154V27.2604H39.9744V29.359ZM48.3846 29.359H41.0256V27.2604H48.3846V29.359ZM55.7436 27.2604V29.359H49.4359V27.2604H55.7436Z" fill="#8A8A8A"/>
<path d="M55.1128 34.6055C54.0616 33.4513 52.2744 33.3463 51.118 34.3957C50.9077 34.6055 50.6975 34.9203 50.4872 35.1302C50.277 34.8154 49.9616 34.5006 49.5411 34.2907C48.1744 33.5562 46.3872 34.0809 45.6513 35.445C44.9154 36.8091 45.4411 38.5929 46.8077 39.3274C47.3334 39.6422 47.859 39.7471 48.4898 39.6422L47.9641 40.0619L47.2282 40.2718V40.6915L46.9128 40.9014C46.7026 40.7964 46.4923 40.7964 46.2821 40.9014V41.7408L31.0385 55.5917L30.4077 54.8572L31.459 53.9128L31.3539 53.703H30.8282L30.7231 53.0734L29.5667 51.8142L28.8308 52.4438L29.8821 53.598L29.1462 54.2276L28.0949 53.0734L27.359 53.703L28.4103 54.9621L27.6744 55.5917L26.6231 54.4375L25.8872 55.0671L27.0436 56.3262L27.6744 56.5361V57.0607L27.8846 57.1657L28.9359 56.2213L29.5667 56.8509L28.5154 57.7953L28.7257 58.0051L28.4103 58.3199C28.0949 58.1101 27.6744 58.215 27.359 58.4249C26.9385 58.7396 26.9385 59.3692 27.2539 59.684C27.5693 60.1037 28.2 60.1037 28.5154 59.789C28.8308 59.4742 28.8308 59.1594 28.7257 58.7396L29.0411 58.4249L29.2513 58.6347L46.9128 42.6852C47.1231 42.7901 47.3334 42.7901 47.5436 42.6852C47.6487 42.5803 47.7539 42.3704 47.6487 42.0556L47.9641 41.8458L48.3846 41.9507L48.7 41.2162L49.2257 40.7964C49.1205 41.3211 49.1205 41.9507 49.4359 42.4753C50.0667 43.9444 51.7487 44.6789 53.2205 44.0493C54.6923 43.4197 55.3231 41.7408 54.7975 40.2718C54.5872 39.8521 54.377 39.5373 54.0616 39.2225C54.377 39.1175 54.6923 38.9077 54.9026 38.6978C56.059 37.6485 56.1641 35.7598 55.1128 34.6055ZM52.6949 38.488L52.4846 39.3274C52.5898 39.3274 52.6949 39.4323 52.9052 39.4323C53.4308 39.6422 53.7462 40.0619 53.9564 40.4817C54.1667 41.0063 54.1667 41.531 53.9564 41.9507C53.7462 42.4753 53.3257 42.7901 52.9052 43C52.3795 43.2099 51.8539 43.2099 51.4334 43C50.9077 42.7901 50.5923 42.3704 50.3821 41.9507C50.1718 41.426 50.1718 40.9014 50.3821 40.4817C50.3821 40.3767 50.4872 40.3767 50.4872 40.2718L49.9616 39.7471L50.5923 39.2225C50.9077 39.4323 51.3282 39.3274 51.6436 39.1175C52.0641 38.8028 52.0641 38.1732 51.7487 37.7534C51.4334 37.3337 50.8026 37.3337 50.3821 37.6485C50.0667 37.9633 49.9616 38.383 50.1718 38.6978L49.5411 39.2225L49.0154 38.6978C48.9103 38.6978 48.8052 38.8028 48.8052 38.8028C48.2795 38.9077 47.7539 38.9077 47.3334 38.6978C46.9128 38.488 46.4923 38.0682 46.3872 37.5436C46.2821 37.0189 46.2821 36.4943 46.4923 36.0746C46.7026 35.6548 47.1231 35.2351 47.6487 35.1302C48.1744 34.9203 48.7 35.0252 49.1205 35.2351C49.5411 35.445 49.9616 35.8647 50.0667 36.3893C50.0667 36.4943 50.1718 36.5992 50.1718 36.8091L51.0128 36.7041C51.0128 36.1795 51.2231 35.5499 51.6436 35.1302C52.4846 34.3957 53.6411 34.5006 54.377 35.2351C55.1128 36.0746 55.0077 37.2288 54.2718 37.9633C53.8513 38.383 53.2205 38.5929 52.6949 38.488Z" fill="#FFA000"/>
<path d="M26.3077 23.0632V19.9152H25.2564H23.1538H22.1025V23.0632H23.1538V20.9645H25.2564V23.0632H26.3077Z" fill="#EEF3F8"/>
<path d="M32.6154 23.0632V19.9152H31.5641H29.4616H28.4103V23.0632H29.4616V20.9645H31.5641V23.0632H32.6154Z" fill="#EEF3F8"/>
<path d="M38.923 23.0632V19.9152H37.8717H35.7692H34.7179V23.0632H35.7692V20.9645H37.8717V23.0632H38.923Z" fill="#EEF3F8"/>
<path d="M46.282 23.0632V19.9152H45.2308H43.1282H42.0769V23.0632H43.1282V20.9645H45.2308V23.0632H46.282Z" fill="#EEF3F8"/>
<path d="M52.5898 23.0632V19.9152H51.5385H49.4359H48.3846V23.0632H49.4359V20.9645H51.5385V23.0632H52.5898Z" fill="#EEF3F8"/>
<path d="M58.8974 23.0632V19.9152H57.8461H55.7435H54.6923V23.0632H55.7435V20.9645H57.8461V23.0632H58.8974Z" fill="#EEF3F8"/>
<path d="M59.9487 23.0631H20V24.1124H59.9487V23.0631Z" fill="#EEF3F8"/>
</svg>
