<svg width="82" height="82" viewBox="0 0 82 82" fill="none" xmlns="http://www.w3.org/2000/svg">
<path d="M80.0765 50.1925C85.1628 28.6924 71.8242 7.14756 50.284 2.07077C28.7438 -3.00602 7.15877 10.3077 2.07251 31.8079C-3.01374 53.308 10.3248 74.8529 31.8651 79.9296C53.4053 85.0064 74.9903 71.6927 80.0765 50.1925Z" fill="#00A99D"/>
<path d="M25.8305 52.9827L24.6413 54.1697L27.5747 57.0976L29.9531 54.7236L31.1423 55.9106L29.3585 57.6911L30.5477 58.8781L41.6469 47.7995L52.0722 58.2055C51.2001 58.3242 50.3281 58.7198 49.6938 59.3529C48.5839 60.4607 46.9983 60.8168 45.5713 60.4212C46.2451 60.2233 46.8397 59.8672 47.3551 59.3529L46.1659 58.1659C45.2145 59.1155 43.5496 59.1155 42.6379 58.1659L41.4487 59.3529L42.6379 60.5399C43.7875 61.6873 45.2541 62.2412 46.7605 62.2412C48.2668 62.2412 49.7731 61.6873 50.883 60.5399C51.8344 59.5903 53.4993 59.5903 54.411 60.5399L55.6002 59.3529C55.1245 58.8781 54.8867 58.245 54.8867 57.5724C54.8867 56.8998 55.1641 56.2667 55.6002 55.7919C57.8597 53.5366 57.8597 49.8174 55.6002 47.5226L54.411 46.3356L53.2218 47.5226C54.2128 48.5117 54.2128 50.0944 53.2218 51.044L54.411 52.2309C54.9263 51.7166 55.2831 51.1231 55.4813 50.4505C55.8777 51.8748 55.5605 53.4575 54.411 54.5654C53.7767 55.1984 53.3803 56.0293 53.2614 56.9393L42.8757 46.573L47.8307 41.6272C47.9497 42.4976 48.3064 43.3285 48.9803 44.0012C49.7731 44.7925 50.8037 45.2277 51.9137 45.2277C53.0236 45.2277 54.0939 44.7925 54.847 44.0012C56.3533 42.4976 56.4723 40.1237 55.2038 38.5015C56.7101 37.8684 57.7407 36.4044 57.7407 34.6635C57.7407 32.3687 55.8777 30.5091 53.5785 30.5091C52.4686 30.5091 51.3983 30.9443 50.6452 31.7356C50.2488 32.1313 49.9713 32.5665 49.7731 33.0413C48.1479 31.7752 45.7695 31.8939 44.2631 33.3974C42.6379 35.0196 42.6379 37.6706 44.2631 39.2928C44.8974 39.9258 45.7695 40.3215 46.6415 40.4402L41.6865 45.386L37.3261 41.0337L41.4487 36.9188L40.2595 35.7318L36.1369 39.8467L34.8685 38.5806C35.1856 38.0662 35.3441 37.5123 35.3441 36.8792C35.3441 35.9692 34.9874 35.1383 34.3531 34.5053C33.9964 34.1492 33.6 33.9118 33.2036 33.7535C33.1639 32.7248 32.7675 31.7356 32.0144 30.9443C30.4288 29.3617 27.6936 29.3617 26.108 30.9443C24.4828 32.5665 24.4828 35.2175 26.108 36.8397C26.9008 37.631 27.8918 37.9871 28.8828 38.0267C29.0414 38.4619 29.2792 38.8576 29.636 39.1741C30.2702 39.8071 31.1423 40.1632 32.0144 40.1632C32.609 40.1632 33.1639 40.005 33.7189 39.6884L34.9874 40.9546L30.8648 45.0695L32.054 46.2564L36.1766 42.1416L40.537 46.4938L32.3315 54.7236L31.1423 53.5366L33.5207 51.1627L30.5873 48.2348L29.3981 49.4217L31.1819 51.2022L29.9927 52.3892L28.2089 50.6087L27.0197 51.7957L28.8035 53.5762L27.6143 54.7632L25.8305 52.9827ZM45.4127 38.1454C44.4217 37.1562 44.4217 35.5736 45.4127 34.624C46.4037 33.6348 47.9893 33.6348 48.9407 34.624L49.6145 35.2966L51.0416 34.7031C51.0416 34.0305 51.3191 33.3974 51.7551 32.9226C52.2308 32.4478 52.865 32.1709 53.5389 32.1709C54.9263 32.1709 56.0362 33.2787 56.0362 34.6635C56.0362 36.0484 54.9263 37.1562 53.5389 37.1562L52.9443 38.5806L53.6182 39.2532C54.6092 40.2424 54.6092 41.825 53.6182 42.7746C52.6668 43.7242 51.0416 43.7242 50.0902 42.7746C49.0992 41.7855 49.0992 40.2028 50.0902 39.2532L48.901 38.0662C48.0289 39.095 46.3641 39.095 45.4127 38.1454ZM28.6846 36.444C28.1693 36.3649 27.654 36.1275 27.2576 35.7318C26.2666 34.7427 26.2666 33.16 27.2576 32.2104C27.7333 31.7356 28.3675 31.4587 29.0414 31.4587C29.7153 31.4587 30.3495 31.7356 30.8252 32.2104C31.2216 32.6061 31.4594 33.1204 31.5387 33.6348C30.8648 33.7535 30.1909 34.0305 29.6756 34.5448C29.1207 35.0988 28.8035 35.7318 28.6846 36.444ZM33.1639 38.1058C32.5297 38.7389 31.4594 38.7389 30.7855 38.1058C30.7063 38.0267 30.6666 37.908 30.5873 37.8288C31.1027 37.631 31.5387 37.3145 31.9351 36.9188C32.3315 36.5231 32.6486 36.0483 32.8468 35.5736C32.9261 35.6527 33.045 35.6923 33.1243 35.7714C33.4414 36.0879 33.6 36.5231 33.6 36.9584C33.6396 37.354 33.4811 37.7893 33.1639 38.1058ZM20.2017 16.8192V57.6515C20.2017 61.806 23.5711 65.1691 27.7333 65.1691H37.7622C39.1496 65.1691 40.2595 66.277 40.2595 67.6618H41.9244C41.9244 66.277 43.0343 65.1691 44.4217 65.1691H54.4506C58.6128 65.1691 61.9822 61.806 61.9822 57.6515V16.8192H20.2017ZM21.8665 21.8441H23.5314V23.5058H21.8665V21.8441ZM21.8665 25.1676H33.5603V26.8294H21.8665V25.1676ZM46.919 25.1676V26.8294H35.2252V25.1676H46.919ZM45.2541 23.5058V21.8441H50.2488V23.5058H45.2541ZM36.8901 23.5058H31.8955V21.8441H36.8901V23.5058ZM60.2777 57.6911C60.2777 60.896 57.6615 63.5073 54.4506 63.5073H44.4217C43.0739 63.5073 41.8451 64.18 41.0919 65.1691C40.3388 64.1404 39.1099 63.5073 37.7622 63.5073H27.7333C24.5224 63.5073 21.9062 60.896 21.9062 57.6911V28.5308H60.3173V57.6911H60.2777ZM60.2777 26.8294H48.5839V25.1676H60.2777V26.8294ZM60.2777 23.5058H58.6128V21.8441H60.2777V23.5058ZM60.2777 20.1823H56.9479V23.5058H51.9533V20.1823H43.5893V23.5058H38.5946V20.1823H30.2306V23.5058H25.2359V20.1823H21.9062V18.5205H60.3173V20.1823H60.2777ZM27.0197 60.0651L28.2089 61.2521L29.3981 60.0651L28.2089 58.8781L27.0197 60.0651ZM52.5083 36.9584L51.3191 35.7714L50.1299 36.9584L51.3191 38.1454L52.5083 36.9584Z" fill="white"/>
</svg>
