<svg width="77" height="77" viewBox="0 0 77 77" fill="currentColor" xmlns="http://www.w3.org/2000/svg">
<path d="M30.2706 42.6881C29.3442 39.2171 28.875 35.633 28.875 32.0368V26.4688H14.4375V30.0781H22.8594V32.4844H14.4231C14.4146 33.2881 14.3894 34.0905 14.334 34.8906H25.2656V37.2969H14.0982C13.8648 39.1148 13.5147 40.9159 13.0419 42.6881L2.40625 74.5938H38.1367L30.2706 42.6881Z" />
<path d="M59.7304 61.3594L54.3404 42.7121C53.4068 39.2171 52.9376 35.633 52.9376 32.0368V28.875H40.9063V31.2812H48.1251V33.6875H40.8522C40.8197 34.4912 40.7632 35.2937 40.685 36.0938H50.5313V38.5H40.377C40.1544 39.9089 39.8789 41.3093 39.5107 42.6881L36 54.8324L37.7397 61.3594H59.7304Z" />
<path d="M74.5938 67.375L68.5781 63.7656L62.5625 67.375V74.5938H74.5938V67.375Z" />
<path d="M26.4685 22.8594V20.3834C26.4685 19.0334 27.188 17.7305 28.4152 17.1662C29.7795 16.5394 31.2979 16.8594 32.2784 17.8399L33.6343 19.1959C34.5764 20.1379 36.0045 20.5001 37.2305 19.9791C39.064 19.2007 40.4296 17.5356 40.7977 15.5227C42.0935 16.5502 43.7971 17.0808 45.6548 16.7271C44.1966 18.4307 43.3123 20.6384 43.3123 23.0579V27.6719H50.531V23.6318C50.531 22.0581 51.6632 20.6252 53.2284 20.4688C55.0295 20.2883 56.5466 21.6972 56.5466 23.4609V23.8038C56.5466 26.7142 58.4933 29.402 61.3495 29.959C65.2031 30.7122 68.5779 27.7814 68.5779 24.0625C68.5779 23.9843 68.5574 23.9121 68.555 23.8339C69.5753 24.2045 70.77 24.2153 72.1175 23.1638C72.9416 22.5201 73.3904 21.4999 73.3904 20.4531V7.41728C73.3904 5.47784 71.9479 3.73692 70.0108 3.6166C68.2795 3.50832 66.8093 4.62843 66.3401 6.18287C65.3054 5.33948 64.0024 4.81251 62.5623 4.81251C59.2404 4.81251 56.5466 7.50631 56.5466 10.8281C54.9501 10.8281 53.611 11.8724 53.1346 13.309C51.911 13.2994 50.744 13.5255 49.6636 13.9286C50.0113 13.3559 50.276 12.7291 50.4095 12.0577C51.1735 8.1969 48.2403 4.81251 44.5154 4.81251C41.5653 4.81251 39.1218 6.93963 38.6093 9.74292C38.513 9.66592 38.4035 9.60696 38.3025 9.53598C37.7346 7.50992 35.8938 6.01563 33.6873 6.01563C31.6287 6.01563 29.8842 7.31501 29.1972 9.13293L28.7978 9.18346C28.8375 8.93442 28.8748 8.68296 28.8748 8.42188C28.8748 5.76418 26.72 3.60938 24.0623 3.60938C21.7811 3.60938 19.8802 5.20112 19.3845 7.33185C19.3388 7.29576 19.2967 7.25365 19.2498 7.21876L19.2738 7.26568C17.9444 6.25024 16.2047 5.74613 14.317 6.16242C12.0394 6.66532 10.2011 8.51212 9.74749 10.7993C9.14593 13.8299 10.8243 16.567 13.3749 17.6053C14.7501 18.166 15.6404 19.5123 15.6404 20.9969V22.8594H26.4685Z" />
<path d="M58.9534 74.5938V67.375L64.969 63.7656H38.3823L40.6274 74.5938H58.9534Z" />
</svg>
