<svg width="77" height="77" viewBox="0 0 77 77" fill="currentColor" xmlns="http://www.w3.org/2000/svg">
<path d="M75.6864 37.3688C75.1014 37.0065 74.4121 36.8846 73.752 36.9995L73.1307 6.74328C73.0996 5.23457 71.8677 4.0282 70.359 4.0282H62.3028C60.7941 4.0282 59.5622 5.23494 59.5312 6.74328L58.8777 38.5696C58.6534 38.0821 58.2934 37.66 57.8225 37.3684C57.0061 36.8631 55.9864 36.8166 55.127 37.2453L53.6605 37.9767V22.1449C53.6605 20.614 52.4193 19.3729 50.8885 19.3729H47.5347C46.0038 19.3729 44.7627 20.614 44.7627 22.1449V42.4157L41.2722 44.1568V39.7261C41.2722 38.7659 40.7751 37.874 39.9586 37.3688C39.1422 36.8635 38.1225 36.8169 37.2631 37.2457L23.4083 44.1572V39.7264C23.4083 38.7662 22.9112 37.8744 22.0947 37.3691C21.2783 36.8639 20.2582 36.8177 19.3989 37.2461L1.53458 46.1568C0.594318 46.6261 0 47.5864 0 48.6371V70.1996C0 71.7305 1.24112 72.9716 2.772 72.9716H74.228C75.7589 72.9716 77 71.7305 77 70.1996V39.7257C77 38.7655 76.5029 37.8736 75.6864 37.3688ZM15.5824 63.46C15.5824 64.9909 14.3412 66.232 12.8104 66.232H7.8067C6.27582 66.232 5.0347 64.9909 5.0347 63.46V60.0105C5.0347 58.4796 6.27582 57.2385 7.8067 57.2385H12.8104C14.3412 57.2385 15.5824 58.4796 15.5824 60.0105V63.46ZM36.8492 63.46C36.8492 64.9909 35.6081 66.232 34.0772 66.232H29.0732C27.5423 66.232 26.3011 64.9909 26.3011 63.46V60.0105C26.3011 58.4796 27.5423 57.2385 29.0732 57.2385H34.0772C35.6081 57.2385 36.8492 58.4796 36.8492 60.0105V63.46ZM58.116 63.46C58.116 64.9909 56.8749 66.232 55.344 66.232H50.34C48.8091 66.232 47.568 64.9909 47.568 63.46V60.0105C47.568 58.4796 48.8091 57.2385 50.34 57.2385H55.344C56.8749 57.2385 58.116 58.4796 58.116 60.0105V63.46Z"/>
</svg>
