<svg width="77" height="57" viewBox="0 0 77 57" fill="currentColor" xmlns="http://www.w3.org/2000/svg">
<path d="M25.1152 8.73181H2.25586C1.01002 8.73181 0 9.74184 0 10.9877V53.849C0 55.0949 1.01002 56.1049 2.25586 56.1049H6.91797V41.8178C6.91797 40.5719 7.928 39.5619 9.17383 39.5619H18.1973C19.4431 39.5619 20.4531 40.5719 20.4531 41.8178V56.1049H27.3711V10.9877C27.3711 9.74184 26.3611 8.73181 25.1152 8.73181ZM11.4297 32.7943C11.4297 34.0402 10.4197 35.0502 9.17383 35.0502C7.928 35.0502 6.91797 34.0402 6.91797 32.7943V29.7865C6.91797 28.5407 7.928 27.5307 9.17383 27.5307C10.4197 27.5307 11.4297 28.5407 11.4297 29.7865V32.7943ZM11.4297 20.7631C11.4297 22.0089 10.4197 23.0189 9.17383 23.0189C7.928 23.0189 6.91797 22.0089 6.91797 20.7631V17.7553C6.91797 16.5094 7.928 15.4994 9.17383 15.4994C10.4197 15.4994 11.4297 16.5094 11.4297 17.7553V20.7631ZM20.4531 32.7943C20.4531 34.0402 19.4431 35.0502 18.1973 35.0502C16.9514 35.0502 15.9414 34.0402 15.9414 32.7943V29.7865C15.9414 28.5407 16.9514 27.5307 18.1973 27.5307C19.4431 27.5307 20.4531 28.5407 20.4531 29.7865V32.7943ZM20.4531 20.7631C20.4531 22.0089 19.4431 23.0189 18.1973 23.0189C16.9514 23.0189 15.9414 22.0089 15.9414 20.7631V17.7553C15.9414 16.5094 16.9514 15.4994 18.1973 15.4994C19.4431 15.4994 20.4531 16.5094 20.4531 17.7553V20.7631Z"/>
<path d="M11.4297 44.0735H15.9414V56.1047H11.4297V44.0735Z"/>
<path d="M46.5465 0.460327H41.2829C40.1452 0.460327 39.1855 1.30748 39.0444 2.43646L36.5656 22.267H51.2638L48.7849 2.43646C48.6439 1.30748 47.6842 0.460327 46.5465 0.460327Z"/>
<path d="M60.099 2.43646L57.6201 22.267H72.3184L69.8395 2.43646C69.6985 1.30748 68.7388 0.460327 67.6011 0.460327H62.3374C61.1997 0.460327 60.2401 1.30748 60.099 2.43646Z"/>
<path d="M74.7442 26.7787H31.8828V56.1049H41.6582V44.8256C41.6582 43.5797 42.6682 42.5697 43.9141 42.5697H64.9688C66.2146 42.5697 67.2246 43.5797 67.2246 44.8256V56.1049H74.7442C75.99 56.1049 77 55.0949 77 53.849V29.0345C77 27.7887 75.99 26.7787 74.7442 26.7787ZM43.9141 38.058H40.9063C39.6604 38.058 38.6504 37.048 38.6504 35.8021C38.6504 34.5563 39.6604 33.5463 40.9063 33.5463H43.9141C45.1599 33.5463 46.1699 34.5563 46.1699 35.8021C46.1699 37.048 45.1599 38.058 43.9141 38.058ZM55.9453 38.058H52.9375C51.6917 38.058 50.6817 37.048 50.6817 35.8021C50.6817 34.5563 51.6917 33.5463 52.9375 33.5463H55.9453C57.1912 33.5463 58.2012 34.5563 58.2012 35.8021C58.2012 37.048 57.1912 38.058 55.9453 38.058ZM67.9766 38.058H64.9688C63.7229 38.058 62.7129 37.048 62.7129 35.8021C62.7129 34.5563 63.7229 33.5463 64.9688 33.5463H67.9766C69.2224 33.5463 70.2324 34.5563 70.2324 35.8021C70.2324 37.048 69.2224 38.058 67.9766 38.058Z"/>
<path d="M46.1699 47.0814H62.7129V56.1049H46.1699V47.0814Z"/>
</svg>
