<svg width="135" height="40" viewBox="0 0 135 40" fill="currentColor" xmlns="http://www.w3.org/2000/svg">
<path d="M130 0.8C131.114 0.8 132.182 1.2425 132.97 2.03015C133.758 2.8178 134.2 3.88609 134.2 5V35C134.2 36.1139 133.758 37.1822 132.97 37.9698C132.182 38.7575 131.114 39.2 130 39.2H5C3.88609 39.2 2.8178 38.7575 2.03015 37.9698C1.2425 37.1822 0.8 36.1139 0.8 35V5C0.8 3.88609 1.2425 2.8178 2.03015 2.03015C2.8178 1.2425 3.88609 0.8 5 0.8H130ZM130 0H5C3.67392 0 2.40215 0.526784 1.46447 1.46447C0.526784 2.40215 0 3.67392 0 5V35C0 36.3261 0.526784 37.5979 1.46447 38.5355C2.40215 39.4732 3.67392 40 5 40H130C131.326 40 132.598 39.4732 133.536 38.5355C134.473 37.5979 135 36.3261 135 35V5C135 3.67392 134.473 2.40215 133.536 1.46447C132.598 0.526784 131.326 0 130 0Z"/>
<path d="M68.1401 21.7501C67.3004 21.754 66.4807 22.0066 65.7844 22.476C65.0881 22.9454 64.5465 23.6105 64.2279 24.3875C63.9093 25.1644 63.828 26.0183 63.9942 26.8414C64.1605 27.6645 64.5668 28.4199 65.162 29.0123C65.7571 29.6046 66.5144 30.0074 67.3383 30.1698C68.1622 30.3322 69.0157 30.2468 69.7911 29.9246C70.5665 29.6023 71.2291 29.0576 71.6952 28.3591C72.1613 27.6607 72.4101 26.8398 72.4101 26.0001C72.4183 25.438 72.3132 24.88 72.1013 24.3594C71.8893 23.8388 71.5748 23.3661 71.1764 22.9696C70.7779 22.573 70.3038 22.2607 69.7822 22.0512C69.2606 21.8417 68.7021 21.7393 68.1401 21.7501ZM68.1401 28.5801C67.6237 28.6162 67.1083 28.4961 66.6611 28.2354C66.2138 27.9748 65.8553 27.5856 65.6321 27.1185C65.409 26.6514 65.3315 26.1279 65.4098 25.6162C65.4881 25.1045 65.7185 24.6281 66.0711 24.2491C66.4237 23.8701 66.8821 23.6059 67.3869 23.4908C67.8916 23.3758 68.4193 23.4153 68.9013 23.6041C69.3833 23.793 69.7973 24.1225 70.0896 24.5498C70.3819 24.977 70.5388 25.4824 70.5401 26.0001C70.5562 26.3281 70.5065 26.656 70.3938 26.9645C70.2812 27.273 70.1079 27.5558 69.8842 27.7962C69.6606 28.0367 69.391 28.2299 69.0915 28.3645C68.7919 28.4992 68.4684 28.5724 68.1401 28.5801ZM58.8301 21.7501C57.99 21.752 57.1693 22.003 56.4717 22.4712C55.7741 22.9394 55.2309 23.6038 54.9108 24.3806C54.5906 25.1573 54.5079 26.0115 54.673 26.8353C54.8381 27.6591 55.2437 28.4154 55.8384 29.0088C56.4332 29.6021 57.1905 30.0059 58.0146 30.1691C58.8388 30.3323 59.6928 30.2475 60.4688 29.9256C61.2448 29.6036 61.908 29.0589 62.3745 28.3602C62.8411 27.6615 63.0901 26.8402 63.0901 26.0001C63.0983 25.438 62.9932 24.88 62.7813 24.3594C62.5693 23.8388 62.2548 23.3661 61.8564 22.9696C61.4579 22.573 60.9838 22.2607 60.4622 22.0512C59.9406 21.8417 59.3821 21.7393 58.8201 21.7501H58.8301ZM58.8301 28.5801C58.3134 28.6182 57.7972 28.4999 57.3487 28.2406C56.9002 27.9813 56.5402 27.593 56.3155 27.1261C56.0907 26.6593 56.0118 26.1357 56.0888 25.6234C56.1658 25.1111 56.3953 24.6338 56.7474 24.2537C57.0995 23.8737 57.5578 23.6084 58.0628 23.4925C58.5677 23.3766 59.0959 23.4153 59.5785 23.6037C60.0611 23.7922 60.4757 24.1215 60.7686 24.5489C61.0614 24.9763 61.2187 25.482 61.2201 26.0001C61.2362 26.3281 61.1865 26.656 61.0738 26.9645C60.9612 27.273 60.7879 27.5558 60.5642 27.7962C60.3406 28.0367 60.071 28.2299 59.7715 28.3645C59.4719 28.4992 59.1484 28.5724 58.8201 28.5801H58.8301ZM47.7401 23.0601V24.8601H52.0601C51.9924 25.7079 51.6399 26.5078 51.0601 27.1301C50.6279 27.5703 50.1083 27.9152 49.5348 28.1425C48.9613 28.3698 48.3465 28.4746 47.7301 28.4501C46.4571 28.4501 45.2362 27.9443 44.336 27.0442C43.4358 26.144 42.9301 24.9231 42.9301 23.6501C42.9301 22.377 43.4358 21.1561 44.336 20.2559C45.2362 19.3558 46.4571 18.8501 47.7301 18.8501C48.9479 18.8302 50.1239 19.2941 51.0001 20.1401L52.2701 18.8701C51.6786 18.2711 50.9728 17.7969 50.1947 17.4757C49.4166 17.1545 48.5819 16.9928 47.7401 17.0001C46.8511 16.9655 45.9643 17.1107 45.1327 17.427C44.3012 17.7434 43.5421 18.2243 42.9009 18.8411C42.2596 19.4578 41.7495 20.1976 41.4011 21.0163C41.0527 21.8349 40.873 22.7154 40.873 23.6051C40.873 24.4947 41.0527 25.3753 41.4011 26.1939C41.7495 27.0125 42.2596 27.7523 42.9009 28.369C43.5421 28.9858 44.3012 29.4667 45.1327 29.7831C45.9643 30.0994 46.8511 30.2446 47.7401 30.2101C48.5961 30.2487 49.4504 30.1036 50.2455 29.7845C51.0407 29.4654 51.7583 28.9797 52.3501 28.3601C53.3978 27.209 53.9571 25.6958 53.9101 24.1401C53.9133 23.761 53.8798 23.3826 53.8101 23.0101L47.7401 23.0601ZM93.0501 24.4601C92.7893 23.6928 92.3016 23.0228 91.6516 22.5389C91.0016 22.055 90.2199 21.7799 89.4101 21.7501C88.8631 21.749 88.3217 21.8601 87.8193 22.0766C87.317 22.2931 86.8644 22.6103 86.4895 23.0086C86.1146 23.4069 85.8254 23.8779 85.6397 24.3924C85.4541 24.907 85.3759 25.4541 85.4101 26.0001C85.398 26.559 85.4986 27.1146 85.706 27.6337C85.9134 28.1529 86.2233 28.6249 86.6172 29.0216C87.0111 29.4183 87.4809 29.7316 87.9986 29.9426C88.5162 30.1537 89.0711 30.2582 89.6301 30.2501C90.3296 30.2538 91.0191 30.0841 91.6369 29.756C92.2547 29.4279 92.7815 28.9517 93.1701 28.3701L91.7201 27.3701C91.5037 27.7308 91.1973 28.0293 90.831 28.2361C90.4646 28.4429 90.0508 28.5511 89.6301 28.5501C89.1969 28.5666 88.7688 28.4524 88.4014 28.2223C88.0341 27.9922 87.7444 27.657 87.5701 27.2601L93.2601 24.9101L93.0501 24.4601ZM87.2501 25.8801C87.2298 25.5707 87.2715 25.2605 87.3726 24.9675C87.4738 24.6745 87.6323 24.4046 87.8391 24.1736C88.0458 23.9427 88.2966 23.7553 88.5766 23.6225C88.8567 23.4896 89.1605 23.414 89.4701 23.4001C89.7927 23.3788 90.1144 23.4528 90.3953 23.6128C90.6762 23.7728 90.9039 24.0118 91.0501 24.3001L87.2501 25.8801ZM82.6301 30.0001H84.5001V17.5001H82.6301V30.0001ZM79.5701 22.7001H79.5001C79.2183 22.385 78.873 22.133 78.487 21.9606C78.101 21.7883 77.6829 21.6995 77.2601 21.7001C76.1673 21.753 75.1368 22.2245 74.3821 23.0166C73.6274 23.8088 73.2064 24.861 73.2064 25.9551C73.2064 27.0492 73.6274 28.1013 74.3821 28.8935C75.1368 29.6856 76.1673 30.1571 77.2601 30.2101C77.6839 30.2172 78.104 30.1313 78.4911 29.9586C78.8781 29.7858 79.2225 29.5303 79.5001 29.2101H79.5601V29.8201C79.5601 31.4501 78.6901 32.3201 77.2901 32.3201C76.8238 32.3091 76.3713 32.1597 75.9902 31.8908C75.6091 31.6219 75.3167 31.2457 75.1501 30.8101L73.5201 31.4901C73.8269 32.2364 74.3497 32.8741 75.0214 33.3213C75.6932 33.7685 76.4832 34.0049 77.2901 34.0001C79.4801 34.0001 81.2901 32.7101 81.2901 29.5701V22.0001H79.5701V22.7001ZM77.4301 28.5801C76.7851 28.5232 76.1847 28.2268 75.7474 27.7492C75.3101 27.2717 75.0675 26.6476 75.0675 26.0001C75.0675 25.3525 75.3101 24.7284 75.7474 24.2509C76.1847 23.7733 76.7851 23.4769 77.4301 23.4201C77.7499 23.4365 78.0632 23.5167 78.3516 23.6561C78.6399 23.7955 78.8974 23.9911 79.109 24.2315C79.3205 24.472 79.4818 24.7523 79.5833 25.056C79.6848 25.3598 79.7245 25.6807 79.7001 26.0001C79.7274 26.3207 79.6893 26.6436 79.5883 26.9492C79.4872 27.2548 79.3252 27.5367 79.1121 27.7778C78.8989 28.019 78.6391 28.2145 78.3483 28.3523C78.0575 28.4902 77.7417 28.5677 77.4201 28.5801H77.4301ZM101.81 17.5001H97.3401V30.0001H99.2101V25.2601H101.82C102.353 25.2983 102.888 25.2264 103.392 25.0488C103.896 24.8711 104.358 24.5916 104.749 24.2275C105.14 23.8635 105.452 23.4228 105.665 22.9329C105.879 22.443 105.989 21.9144 105.989 21.3801C105.989 20.8457 105.879 20.3171 105.665 19.8272C105.452 19.3373 105.14 18.8966 104.749 18.5326C104.358 18.1685 103.896 17.889 103.392 17.7113C102.888 17.5337 102.353 17.4618 101.82 17.5001H101.81ZM101.81 23.5001H99.2001V19.2401H101.85C102.419 19.2401 102.965 19.466 103.367 19.8683C103.769 20.2706 103.995 20.8162 103.995 21.3851C103.995 21.9539 103.769 22.4995 103.367 22.9018C102.965 23.3041 102.419 23.5301 101.85 23.5301L101.81 23.5001ZM113.34 21.7001C112.659 21.6594 111.981 21.8185 111.39 22.1578C110.798 22.4971 110.319 23.0019 110.01 23.6101L111.67 24.3001C111.834 23.9984 112.082 23.7508 112.383 23.5875C112.685 23.4242 113.028 23.3521 113.37 23.3801C113.608 23.3523 113.848 23.3722 114.078 23.4384C114.307 23.5046 114.521 23.6159 114.708 23.7658C114.894 23.9156 115.048 24.1011 115.162 24.3113C115.276 24.5215 115.347 24.7522 115.37 24.9901V25.1201C114.77 24.8021 114.1 24.6372 113.42 24.6401C111.63 24.6401 109.82 25.6401 109.82 27.4501C109.838 27.836 109.933 28.2145 110.099 28.5631C110.266 28.9117 110.5 29.2235 110.789 29.4799C111.078 29.7362 111.416 29.9321 111.782 30.0558C112.148 30.1795 112.535 30.2285 112.92 30.2001C113.391 30.2339 113.862 30.1403 114.285 29.9292C114.707 29.718 115.065 29.3971 115.32 29.0001H115.38V30.0001H117.18V25.1901C117.18 23.0001 115.52 21.7301 113.39 21.7301L113.34 21.7001ZM113.11 28.5501C112.5 28.5501 111.65 28.2401 111.65 27.4901C111.65 26.4901 112.71 26.1601 113.65 26.1601C114.244 26.1454 114.831 26.2904 115.35 26.5801C115.288 27.1215 115.032 27.622 114.629 27.9895C114.227 28.3571 113.705 28.5668 113.16 28.5801L113.11 28.5501ZM123.74 22.0001L121.6 27.4201H121.54L119.32 22.0001H117.32L120.65 29.5801L118.75 33.7901H120.7L125.82 22.0001H123.74ZM106.93 30.0001H108.8V17.5001H106.93V30.0001Z"/>
<path d="M42.1103 14.2701H41.3703V12.2701H42.0003C42.2875 11.9657 42.5045 11.6019 42.6358 11.2045C42.7671 10.8071 42.8096 10.3857 42.7603 9.97006V7.00006H46.7603V12.2601H47.4303V14.2601H46.6903V13.0001H42.1103V14.2701ZM43.5003 10.0001C43.5469 10.8067 43.3482 11.6086 42.9303 12.3001H45.9303V7.74006H43.5003V10.0001ZM53.4103 12.2201C52.8257 12.8014 52.0347 13.1277 51.2103 13.1277C50.3858 13.1277 49.5949 12.8014 49.0103 12.2201C48.442 11.6186 48.1255 10.8225 48.1255 9.99506C48.1255 9.16762 48.442 8.37153 49.0103 7.77006C49.2984 7.4798 49.6412 7.24943 50.0187 7.09223C50.3963 6.93502 50.8013 6.85409 51.2103 6.85409C51.6193 6.85409 52.0242 6.93502 52.4018 7.09223C52.7794 7.24943 53.1221 7.4798 53.4103 7.77006C53.9807 8.37039 54.2988 9.1669 54.2988 9.99506C54.2988 10.8232 53.9807 11.6197 53.4103 12.2201ZM49.5803 11.7201C50.0132 12.1512 50.5993 12.3932 51.2103 12.3932C51.8212 12.3932 52.4073 12.1512 52.8403 11.7201C53.2675 11.2491 53.5042 10.6359 53.5042 10.0001C53.5042 9.36417 53.2675 8.75104 52.8403 8.28006C52.4073 7.84893 51.8212 7.60688 51.2103 7.60688C50.5993 7.60688 50.0132 7.84893 49.5803 8.28006C49.153 8.75104 48.9164 9.36417 48.9164 10.0001C48.9164 10.6359 49.153 11.2491 49.5803 11.7201ZM58.1803 13.1301C57.7674 13.1383 57.3572 13.0628 56.9743 12.9083C56.5914 12.7538 56.2437 12.5234 55.9522 12.2309C55.6607 11.9385 55.4314 11.5901 55.2781 11.2067C55.1249 10.8233 55.0507 10.4129 55.0603 10.0001C55.0507 9.58726 55.1249 9.17681 55.2781 8.79341C55.4314 8.41001 55.6607 8.06161 55.9522 7.76917C56.2437 7.47673 56.5914 7.24632 56.9743 7.0918C57.3572 6.93728 57.7674 6.86185 58.1803 6.87006C58.5987 6.8597 59.014 6.94429 59.3951 7.11749C59.7761 7.29069 60.1129 7.54799 60.3803 7.87006L59.8403 8.39006C59.6427 8.1393 59.3881 7.93947 59.0976 7.80725C58.807 7.67504 58.4891 7.61428 58.1703 7.63006C57.8633 7.62208 57.5579 7.67646 57.2726 7.7899C56.9873 7.90334 56.7279 8.0735 56.5103 8.29006C56.0767 8.76386 55.8362 9.38282 55.8362 10.0251C55.8362 10.6673 56.0767 11.2863 56.5103 11.7601C56.7279 11.9766 56.9873 12.1468 57.2726 12.2602C57.5579 12.3737 57.8633 12.428 58.1703 12.4201C58.5222 12.4169 58.8691 12.3354 59.1856 12.1815C59.5022 12.0275 59.7805 11.805 60.0003 11.5301L60.5403 12.0701C60.2681 12.4002 59.9267 12.6665 59.5403 12.8501C59.1134 13.0434 58.6488 13.139 58.1803 13.1301ZM63.6803 13.0001H62.9103V7.74006H61.2303V7.00006H65.3503V7.74006H63.6803V13.0001ZM70.6503 7.00006L68.3803 12.0601C68.2894 12.3594 68.1078 12.6231 67.8606 12.8148C67.6134 13.0064 67.3128 13.1166 67.0003 13.1301C66.7936 13.1274 66.5895 13.0832 66.4003 13.0001L66.6003 12.2901C66.7218 12.3608 66.8596 12.3987 67.0003 12.4001C67.1472 12.4111 67.294 12.3762 67.4203 12.3001C67.5407 12.1981 67.6336 12.0674 67.6903 11.9201L67.9103 11.4401L65.9103 7.01006H66.8203L68.3003 10.4501L69.7403 7.00006H70.6503ZM71.5203 13.0001V7.00006H75.8603V13.0001H75.0903V7.74006H72.2903V13.0001H71.5203ZM77.2303 13.0001V7.00006H78.0003V9.57006H81.0003V7.00006H81.7702V13.0001H81.0003V10.2901H78.0003V13.0001H77.2303ZM88.0603 12.2201C87.4757 12.8014 86.6847 13.1277 85.8603 13.1277C85.0358 13.1277 84.2449 12.8014 83.6603 12.2201C83.092 11.6186 82.7754 10.8225 82.7754 9.99506C82.7754 9.16762 83.092 8.37153 83.6603 7.77006C83.9484 7.4798 84.2911 7.24943 84.6687 7.09223C85.0463 6.93502 85.4513 6.85409 85.8603 6.85409C86.2692 6.85409 86.6742 6.93502 87.0518 7.09223C87.4294 7.24943 87.7721 7.4798 88.0603 7.77006C88.6307 8.37039 88.9488 9.1669 88.9488 9.99506C88.9488 10.8232 88.6307 11.6197 88.0603 12.2201ZM84.2303 11.7201C84.6632 12.1512 85.2493 12.3932 85.8603 12.3932C86.4712 12.3932 87.0573 12.1512 87.4903 11.7201C87.9175 11.2491 88.1542 10.6359 88.1542 10.0001C88.1542 9.36417 87.9175 8.75104 87.4903 8.28006C87.0573 7.84893 86.4712 7.60688 85.8603 7.60688C85.2493 7.60688 84.6632 7.84893 84.2303 8.28006C83.803 8.75104 83.5663 9.36417 83.5663 10.0001C83.5663 10.6359 83.803 11.2491 84.2303 11.7201ZM92.0903 13.0001V7.00006H94.2603C94.7108 6.99155 95.1475 7.15619 95.4803 7.46006C95.6474 7.60507 95.7805 7.78503 95.8704 7.98721C95.9603 8.18939 96.0046 8.40885 96.0002 8.63006C96.0049 8.89662 95.9282 9.15827 95.7802 9.38006C95.6334 9.59549 95.429 9.76529 95.1903 9.87006C95.4803 9.96608 95.7347 10.1473 95.9202 10.3901C96.1125 10.6351 96.2149 10.9386 96.2102 11.2501C96.2154 11.4806 96.1696 11.7094 96.0763 11.9203C95.983 12.1311 95.8443 12.3188 95.6702 12.4701C95.3221 12.7912 94.8639 12.9666 94.3902 12.9601L92.0903 13.0001ZM92.8602 9.57006H94.2603C94.391 9.57551 94.5214 9.5524 94.6423 9.50231C94.7631 9.45223 94.8717 9.37638 94.9602 9.28006C95.0488 9.19978 95.1203 9.10248 95.1704 8.99398C95.2205 8.88549 95.2482 8.768 95.252 8.64855C95.2557 8.52909 95.2353 8.41011 95.1921 8.29869C95.1488 8.18727 95.0836 8.08571 95.0003 8.00006C94.9167 7.90553 94.8133 7.83055 94.6976 7.78043C94.5818 7.73031 94.4564 7.70629 94.3302 7.71006H92.9003L92.8602 9.57006ZM92.8602 12.2601H94.4103C94.5457 12.2646 94.6805 12.2392 94.8049 12.1856C94.9294 12.132 95.0405 12.0516 95.1302 11.9501C95.3066 11.7672 95.4067 11.5241 95.4103 11.2701C95.4103 11.0048 95.3049 10.7505 95.1174 10.5629C94.9298 10.3754 94.6755 10.2701 94.4103 10.2701H92.8903L92.8602 12.2601Z"/>
<path fill-rule="evenodd" clip-rule="evenodd" d="M51.2103 6.95409C50.8145 6.95409 50.4226 7.03241 50.0572 7.18455C49.6921 7.33652 49.3608 7.55915 49.0821 7.83963C48.5319 8.42244 48.2255 9.19357 48.2255 9.99506C48.2255 10.7964 48.5319 11.5675 49.0819 12.1502C49.6476 12.7123 50.4128 13.0277 51.2103 13.0277C52.0078 13.0277 52.773 12.7122 53.3387 12.1502C53.8909 11.5685 54.1988 10.7971 54.1988 9.99506C54.1988 9.19291 53.8909 8.42138 53.3385 7.83973C53.0598 7.55921 52.7284 7.33654 52.3634 7.18455C51.998 7.03241 51.6061 6.95409 51.2103 6.95409ZM49.9803 6.99991C50.3701 6.83763 50.7881 6.75409 51.2103 6.75409C51.6325 6.75409 52.0505 6.83763 52.4402 6.99991C52.83 7.16219 53.1838 7.39999 53.4812 7.6996L53.4828 7.70116C54.0709 8.32007 54.3988 9.14126 54.3988 9.99506C54.3988 10.8489 54.0709 11.67 53.4828 12.2889L53.4808 12.291C52.8775 12.891 52.0611 13.2277 51.2103 13.2277C50.3594 13.2277 49.5431 12.8909 48.9397 12.291L48.9375 12.2888C48.3518 11.6687 48.0255 10.848 48.0255 9.99506C48.0255 9.14208 48.3518 8.32143 48.9376 7.70138L48.9393 7.69958C49.2367 7.39996 49.5905 7.16219 49.9803 6.99991ZM85.8603 6.95409C85.4645 6.95409 85.0726 7.03241 84.7072 7.18455C84.3422 7.33651 84.0108 7.55912 83.7321 7.83958C83.182 8.42239 82.8755 9.19355 82.8755 9.99506C82.8755 10.7964 83.1819 11.5675 83.7319 12.1503C84.2976 12.7123 85.0628 13.0277 85.8603 13.0277C86.6578 13.0277 87.423 12.7122 87.9888 12.1501C88.541 11.5685 88.8488 10.7971 88.8488 9.99506C88.8488 9.19292 88.5409 8.42141 87.9885 7.83976C87.7098 7.55922 87.3784 7.33654 87.0133 7.18455C86.6479 7.03241 86.2561 6.95409 85.8603 6.95409ZM84.6303 6.99991C85.02 6.83763 85.4381 6.75409 85.8603 6.75409C86.2824 6.75409 86.7005 6.83763 87.0902 6.99991C87.48 7.16219 87.8338 7.39999 88.1312 7.6996L88.1328 7.70116C88.7209 8.32009 89.0488 9.14126 89.0488 9.99506C89.0488 10.8489 88.7209 11.67 88.1327 12.2889L88.1308 12.291C87.5275 12.891 86.7111 13.2277 85.8603 13.2277C85.0094 13.2277 84.1931 12.8909 83.5897 12.291L83.5875 12.2888C83.0018 11.6687 82.6755 10.848 82.6755 9.99506C82.6755 9.14208 83.0018 8.32142 83.5876 7.70138L83.5893 7.69958C83.8867 7.39996 84.2405 7.16219 84.6303 6.99991ZM59.3537 7.20853C58.9864 7.04158 58.5861 6.96004 58.1827 6.97003L58.1783 6.97014C57.7789 6.9622 57.3821 7.03506 57.0117 7.18453C56.6413 7.334 56.305 7.55689 56.0231 7.83977C55.7411 8.12265 55.5193 8.45967 55.371 8.83053C55.2227 9.2014 55.151 9.59844 55.1602 9.99775L55.1603 10.0024C55.1511 10.4017 55.2227 10.7987 55.371 11.1696C55.5193 11.5404 55.7411 11.8775 56.0231 12.1603C56.305 12.4432 56.6413 12.6661 57.0117 12.8156C57.3821 12.9651 57.7789 13.038 58.1783 13.0301L58.1803 13.1301L58.1822 13.0301C58.6355 13.0388 59.0851 12.9463 59.4981 12.7594C59.8437 12.595 60.1519 12.3623 60.4043 12.0755L60.0068 11.678C59.79 11.9254 59.5258 12.1272 59.2294 12.2714C58.8997 12.4317 58.5385 12.5166 58.172 12.52C57.8518 12.5283 57.5333 12.4715 57.2357 12.3531C56.9378 12.2347 56.667 12.0571 56.4397 11.8309L56.4364 11.8276C55.986 11.3354 55.7362 10.6923 55.7362 10.0251C55.7362 9.35783 55.986 8.71478 56.4365 8.22255L56.4397 8.21909C56.6669 7.99299 56.9378 7.81542 57.2357 7.69697C57.5324 7.579 57.8499 7.52221 58.1691 7.52999C58.5026 7.51409 58.8351 7.57793 59.139 7.71623C59.4105 7.83982 59.6523 8.01967 59.8484 8.24342L60.2428 7.86358C59.9956 7.5859 59.6928 7.36267 59.3537 7.20853ZM58.1803 13.2301C57.7546 13.2383 57.3317 13.1604 56.9369 13.001C56.5415 12.8415 56.1824 12.6035 55.8814 12.3015C55.5804 11.9995 55.3436 11.6398 55.1853 11.2438C55.0273 10.8486 54.9507 10.4256 54.9602 10.0001C54.9507 9.57455 55.0273 9.15149 55.1853 8.75628C55.3436 8.36036 55.5804 8.00057 55.8814 7.69857C56.1824 7.39658 56.5415 7.15863 56.9369 6.99906C57.3316 6.83977 57.7545 6.76187 58.18 6.77003C58.6128 6.75965 59.0423 6.84731 59.4364 7.02646C59.8312 7.20591 60.1802 7.4725 60.4572 7.80619L60.5165 7.87766L59.8301 8.53871L59.7617 8.45193C59.5741 8.21372 59.3321 8.02388 59.0561 7.89827C58.7801 7.77266 58.4781 7.71494 58.1752 7.72993L58.1677 7.73031C57.8742 7.72268 57.5823 7.77438 57.3096 7.88282C57.0375 7.99098 56.7902 8.15306 56.5825 8.3593C56.1667 8.81443 55.9362 9.40859 55.9362 10.0251C55.9362 10.6415 56.1667 11.2357 56.5825 11.6908C56.7902 11.8971 57.0375 12.0591 57.3096 12.1673C57.5823 12.2757 57.8742 12.3277 58.1677 12.3201L58.1694 12.3201C58.5065 12.3171 58.8387 12.239 59.1419 12.0915C59.4451 11.9441 59.7116 11.7309 59.9222 11.4676L59.9919 11.3803L60.6752 12.0636L60.6174 12.1337C60.3359 12.4751 59.9829 12.7505 59.5832 12.9404L59.5815 12.9412C59.1417 13.1404 58.663 13.239 58.1803 13.2301ZM95.4128 7.5339C95.099 7.2473 94.6871 7.09201 94.2621 7.10004L94.2603 7.10006H92.1903V12.8983L94.3885 12.8601L94.3916 12.8601C94.8397 12.8663 95.2731 12.7004 95.6024 12.3966L95.6046 12.3945C95.7676 12.2529 95.8975 12.0772 95.9848 11.8798C96.0722 11.6824 96.1151 11.4681 96.1103 11.2523L96.1103 11.2486C96.1146 10.96 96.0197 10.6788 95.8416 10.4518L95.8408 10.4508C95.6675 10.224 95.4298 10.0547 95.1588 9.96499L94.9116 9.88315L95.1501 9.77849C95.3714 9.68133 95.5611 9.52392 95.6973 9.32422C95.8338 9.11943 95.9046 8.87789 95.9003 8.63182V8.6281C95.9043 8.42154 95.8629 8.21662 95.779 8.02783C95.6951 7.83904 95.5707 7.67099 95.4147 7.53558L95.4128 7.5339ZM95.5468 7.3854C95.1955 7.065 94.7347 6.89132 94.2593 6.90006H91.9902V13.1018L94.3889 13.06L94.3905 13.0601C94.8887 13.0666 95.3705 12.8821 95.737 12.5446C95.9216 12.3839 96.0687 12.1846 96.1677 11.9607C96.2668 11.737 96.3154 11.4943 96.3103 11.2497L96.3102 11.2516L96.2102 11.2501L96.3102 11.2478L96.3103 11.2497C96.3148 10.9163 96.2051 10.5913 95.9993 10.3288C95.8464 10.1289 95.6496 9.96814 95.4253 9.85827C95.598 9.74961 95.7471 9.60622 95.8629 9.43637L95.8634 9.43555C96.0223 9.19734 96.1049 8.91641 96.1003 8.63013L96.1002 8.63201L96.0002 8.63006L96.1002 8.6283L96.1003 8.63013C96.1046 8.39491 96.0573 8.1616 95.9618 7.9466C95.8662 7.73144 95.7245 7.53987 95.5468 7.3854ZM42.6603 6.90006H46.8603V12.1601H47.5303V14.3601H46.5903V13.1001H42.2103V14.3701H41.2703V12.1701H41.9567C42.2194 11.8828 42.4186 11.5431 42.5408 11.1731C42.6676 10.7896 42.7086 10.3829 42.661 9.98184L42.6603 9.97597V6.90006ZM42.8603 7.10006V9.96419C42.9102 10.3924 42.866 10.8264 42.7307 11.2359C42.5948 11.6472 42.3703 12.0236 42.073 12.3387L42.0434 12.3701H41.4703V14.1701H42.0103V12.9001H46.7903V14.1601H47.3303V12.3601H46.6603V7.10006H42.8603ZM61.1303 6.90006H65.4503V7.84006H63.7803V13.1001H62.8103V7.84006H61.1303V6.90006ZM61.3303 7.10006V7.64006H63.0103V12.9001H63.5803V7.64006H65.2503V7.10006H61.3303ZM69.6736 6.90006H70.8047L68.4741 12.0953C68.3766 12.4119 68.1838 12.6907 67.9219 12.8938C67.6583 13.0982 67.3378 13.2156 67.0046 13.23L66.999 13.2302C66.7789 13.2274 66.5616 13.1802 66.36 13.0916L66.2804 13.0566L66.539 12.1387L66.6506 12.2036C66.7571 12.2657 66.8779 12.2989 67.0012 12.3001L67.0078 12.3001C67.1314 12.3094 67.2549 12.2811 67.3618 12.2185C67.4665 12.1281 67.5473 12.0133 67.5969 11.8842L67.5992 11.8783L67.8004 11.4397L65.7554 6.91006H66.8861L68.2989 10.1938L69.6736 6.90006ZM69.8069 7.10006L68.3017 10.7063L66.7544 7.11006H66.0651L68.0201 11.4404L67.7824 11.959C67.7196 12.1207 67.6173 12.2642 67.4849 12.3764L67.4788 12.3816L67.4719 12.3857C67.3288 12.472 67.1626 12.5119 66.996 12.5C66.8818 12.4985 66.7691 12.4755 66.664 12.4326L66.5208 12.941C66.6737 12.9974 66.8353 13.0276 66.9987 13.03C67.2896 13.0169 67.5692 12.9142 67.7993 12.7357C68.0302 12.5568 68.1997 12.3105 68.2846 12.031L68.2864 12.0249L70.4958 7.10006H69.8069ZM71.4203 6.90006H75.9603V13.1001H74.9903V7.84006H72.3903V13.1001H71.4203V6.90006ZM71.6203 7.10006V12.9001H72.1903V7.64006H75.1903V12.9001H75.7603V7.10006H71.6203ZM77.1303 6.90006H78.1003V9.47006H80.9003V6.90006H81.8703V13.1001H80.9003V10.3901H78.1003V13.1001H77.1303V6.90006ZM77.3303 7.10006V12.9001H77.9003V10.1901H81.1003V12.9001H81.6703V7.10006H81.1003V9.67006H77.9003V7.10006H77.3303ZM49.5097 8.2092C49.9614 7.75941 50.5728 7.50688 51.2103 7.50688C51.8477 7.50688 52.4592 7.75941 52.9108 8.2092L52.9144 8.21278C53.3584 8.70216 53.6042 9.33933 53.6042 10.0001C53.6042 10.6608 53.3583 11.2979 52.9143 11.7872L52.9109 11.791C52.4592 12.2408 51.8477 12.4932 51.2103 12.4932C50.5728 12.4932 49.9614 12.2407 49.5097 11.7909L49.5803 11.7201L49.5062 11.7872C49.0623 11.2979 48.8164 10.6608 48.8164 10.0001C48.8164 9.33933 49.0623 8.70225 49.5062 8.21287L49.5097 8.2092ZM49.6526 11.651C50.0666 12.0623 50.6266 12.2932 51.2103 12.2932C51.7939 12.2932 52.3539 12.0623 52.7679 11.651C53.1774 11.1987 53.4042 10.6103 53.4042 10.0001C53.4042 9.38985 53.1774 8.80146 52.7679 8.34913C52.3539 7.93779 51.7939 7.70688 51.2103 7.70688C50.6266 7.70688 50.0666 7.93779 49.6526 8.34913C49.2432 8.80146 49.0164 9.38985 49.0164 10.0001C49.0164 10.6103 49.2432 11.1987 49.6526 11.651ZM84.1597 8.2092C84.6114 7.75941 85.2228 7.50688 85.8603 7.50688C86.4977 7.50688 87.1091 7.75941 87.5608 8.2092L87.5644 8.21278C88.0083 8.70216 88.2542 9.33933 88.2542 10.0001C88.2542 10.6608 88.0082 11.2979 87.5643 11.7872L87.5609 11.791C87.1092 12.2408 86.4977 12.4932 85.8603 12.4932C85.2228 12.4932 84.6114 12.2407 84.1597 11.7909L84.2303 11.7201L84.1562 11.7872C83.7123 11.2979 83.4664 10.6608 83.4664 10.0001C83.4664 9.33933 83.7123 8.70225 84.1562 8.21287L84.1597 8.2092ZM84.3026 11.651C84.7166 12.0623 85.2766 12.2932 85.8603 12.2932C86.4439 12.2932 87.0039 12.0623 87.4179 11.651C87.8274 11.1987 88.0542 10.6103 88.0542 10.0001C88.0542 9.38985 87.8274 8.80145 87.4179 8.34912C87.0039 7.93778 86.4439 7.70688 85.8603 7.70688C85.2766 7.70688 84.7166 7.93778 84.3026 8.34912C83.8931 8.80145 83.6664 9.38985 83.6664 10.0001C83.6664 10.6103 83.8931 11.1987 84.3026 11.651ZM94.3288 7.61006C94.4691 7.60609 94.6085 7.63292 94.7373 7.68866C94.8658 7.7443 94.9806 7.82739 95.0736 7.93208C95.1655 8.02699 95.2375 8.13934 95.2853 8.2625C95.3334 8.38644 95.3561 8.51879 95.3519 8.65167C95.3478 8.78455 95.3169 8.91523 95.2612 9.03592C95.206 9.15524 95.1277 9.26238 95.0308 9.35109C94.9329 9.45653 94.8135 9.53963 94.6805 9.5947C94.5469 9.65007 94.4028 9.67578 94.2582 9.67006H92.7581L92.8024 7.61006H94.3288ZM94.6578 7.8722C94.5555 7.82791 94.4447 7.80668 94.3332 7.81001L94.3303 7.81006H92.9981L92.9624 9.47006H94.2644C94.3806 9.47491 94.4965 9.45445 94.604 9.40993C94.7114 9.36541 94.8079 9.29799 94.8866 9.21237L94.8897 9.20903L94.8931 9.20598C94.9717 9.13472 95.0351 9.04835 95.0796 8.95205C95.1241 8.85574 95.1487 8.75146 95.152 8.64542C95.1553 8.53939 95.1373 8.43378 95.0989 8.33488C95.0605 8.23598 95.0026 8.14583 94.9286 8.0698L94.9252 8.06637C94.8514 7.98283 94.7602 7.91649 94.6578 7.8722ZM43.4003 7.64006H46.0303V12.4001H42.753L42.8447 12.2483C43.2522 11.5741 43.4459 10.7923 43.4004 10.0058L43.4001 10.0001L43.4003 7.64006ZM43.6003 7.84006V9.99719C43.6441 10.7647 43.4713 11.5278 43.1032 12.2001H45.8303V7.84006H43.6003ZM92.7918 10.1701H94.4103C94.702 10.1701 94.9818 10.2859 95.1881 10.4922C95.3944 10.6985 95.5103 10.9783 95.5103 11.2701L95.5102 11.2715C95.5063 11.5502 95.3967 11.817 95.2037 12.018C95.1044 12.1297 94.9818 12.2183 94.8445 12.2774C94.707 12.3366 94.5582 12.3648 94.4086 12.3601H92.7587L92.7918 10.1701ZM92.9888 10.3701L92.9618 12.1601H94.4136C94.5343 12.1641 94.6544 12.1415 94.7654 12.0937C94.8763 12.046 94.9753 11.9743 95.0553 11.8838L95.0582 11.8806C95.2167 11.7162 95.3069 11.4977 95.3103 11.2693C95.3101 11.0309 95.2153 10.8023 95.0466 10.6337C94.8779 10.4649 94.6489 10.3701 94.4103 10.3701H92.9888Z"/>
<path d="M10.5454 32.6985L22.7959 19.9922L10.5556 7.30872C10.2287 7.50618 10.0264 7.9634 10.0264 8.56188V31.4574C10.0308 32.0559 10.2258 32.4797 10.5454 32.6985Z"/>
<path d="M23.2348 19.6413L26.8839 15.856L12.0236 7.40441C11.7734 7.25361 11.4892 7.17396 11.1997 7.17352L23.2333 19.6398L23.2348 19.6413Z"/>
<path d="M23.2348 20.3446L11.1631 32.8656C11.4661 32.8708 11.7645 32.7888 12.0251 32.6286L26.9147 24.1542L23.2348 20.3446Z"/>
<path d="M32.2672 18.9229L27.3221 16.1052L23.5734 19.9938L27.35 23.9066L32.2658 21.0965C33.3111 20.4996 33.311 19.5168 32.2672 18.9229Z"/>
</svg>
