<svg width="32" height="32" viewBox="0 0 32 32" fill="currentColor" xmlns="http://www.w3.org/2000/svg">
<path d="M10.4283 5.65505C12.6606 5.45668 14.4751 5.25032 16 5.0015C20.6312 4.24567 22.5028 2.95968 24.6354 0.337981C24.9913 -0.0927868 25.6469 -0.111581 26.0215 0.281848L31.706 6.02556C32.025 6.34456 32.0789 6.8507 31.8208 7.22077C31.1058 8.24646 30.3135 9.19229 29.4535 10.044C27.7521 11.9528 25.9819 13.3128 24.3148 14.2348C23.2629 14.8165 22.0762 15.1105 20.8742 15.1105H15.3132C13.6133 15.1105 12.1778 13.9783 11.7197 12.4268C11.572 11.9266 11.9112 11.3988 12.4317 11.366C12.4519 11.3648 12.4724 11.3641 12.4931 11.3641H20.6614C21.1708 11.3641 21.6042 10.9662 21.6191 10.4571C21.6349 9.91864 21.2173 9.49094 20.683 9.49094H11.3171C11.0361 9.49094 10.7739 9.62206 10.5866 9.82811C10.3468 10.0762 9.20521 11.7701 7.02908 13.6014C5.61896 14.7881 2.2327 16.9836 0.952257 16.9836C0.146792 16.9836 -0.283975 16.0283 0.259183 15.429L8.75091 6.06309C8.90082 5.87571 9.14434 5.76332 9.38772 5.74459C9.74438 5.7148 10.0911 5.68502 10.4283 5.65505Z" />
<path d="M21.5715 26.3454C19.3392 26.5437 17.5247 26.7501 15.9998 26.9989C11.3686 27.7547 9.49704 29.0407 7.36443 31.6624C7.00853 32.0932 6.35286 32.112 5.97828 31.7186L0.29376 25.9748C-0.0252414 25.6558 -0.079064 25.1497 0.178997 24.7796C0.893988 23.7539 1.68634 22.8081 2.54625 21.9564C4.24766 20.0476 6.01787 18.6876 7.68499 17.7656C8.73685 17.1839 9.92356 16.8899 11.1256 16.8899H16.6867C18.3866 16.8899 19.822 18.0221 20.2802 19.5736C20.4278 20.0738 20.0887 20.6016 19.5682 20.6344C19.5479 20.6356 19.5275 20.6363 19.5068 20.6363H11.3385C10.8291 20.6363 10.3957 21.0342 10.3807 21.5433C10.3649 22.0818 10.7825 22.5095 11.3169 22.5095H20.6828C20.9638 22.5095 21.2259 22.3783 21.4133 22.1723C21.6531 21.9242 22.7946 20.2303 24.9708 18.399C26.3809 17.2122 29.7672 15.0168 31.0476 15.0168C31.8531 15.0168 32.2838 15.9721 31.7407 16.5714L23.249 25.9373C23.099 26.1247 22.8555 26.2371 22.6121 26.2558C22.2554 26.2856 21.9087 26.3154 21.5715 26.3454Z" />
</svg>
