<svg width="77" height="77" viewBox="0 0 77 77" fill="currentColor" xmlns="http://www.w3.org/2000/svg">
<path d="M11.7691 45.1525H3.17038C1.41939 45.1525 0 46.5719 0 48.3229V76.9999H11.7691V45.1525Z"/>
<path d="M65.2308 45.1525V76.9999H77V48.3229C77 46.5719 75.5806 45.1525 73.8296 45.1525H65.2308Z"/>
<path d="M38.5 0C30.3644 0 23.7693 6.59508 23.7693 14.7306V19.6619H53.2304V14.7306C53.2306 6.59508 46.6355 0 38.5 0V0ZM41.0543 13.0817H40.7558V13.3804C40.7558 14.6262 39.7458 15.6363 38.5 15.6363C37.2541 15.6363 36.2441 14.6262 36.2441 13.3804V13.0817H35.9456C34.6997 13.0817 33.6897 12.0717 33.6897 10.8259C33.6897 9.58003 34.6997 8.57001 35.9456 8.57001H36.2441V8.27148C36.2441 7.02565 37.2541 6.01562 38.5 6.01562C39.7458 6.01562 40.7558 7.02565 40.7558 8.27148V8.57001H41.0543C42.3002 8.57001 43.3102 9.58003 43.3102 10.8259C43.3102 12.0719 42.3003 13.0817 41.0543 13.0817Z"/>
<path d="M30.0029 63.4137H36.2441V77H30.0029V63.4137Z"/>
<path d="M40.7559 63.4137H46.9971V77H40.7559V63.4137Z"/>
<path d="M58.4633 24.1735H18.5367C17.2908 24.1735 16.2808 25.1835 16.2808 26.4293V77H25.4912V61.1578C25.4912 59.912 26.5012 58.902 27.7471 58.902H49.2529C50.4988 58.902 51.5088 59.912 51.5088 61.1578V77H60.7192V26.4293C60.7192 25.1835 59.7091 24.1735 58.4633 24.1735ZM28.6834 54.3903H26.8109C25.565 54.3903 24.555 53.3802 24.555 52.1344C24.555 50.8886 25.565 49.8785 26.8109 49.8785H28.6834C29.9292 49.8785 30.9392 50.8886 30.9392 52.1344C30.9392 53.3802 29.9292 54.3903 28.6834 54.3903ZM28.6834 45.3668H26.8109C25.565 45.3668 24.555 44.3568 24.555 43.111C24.555 41.8651 25.565 40.8551 26.8109 40.8551H28.6834C29.9292 40.8551 30.9392 41.8651 30.9392 43.111C30.9392 44.3568 29.9292 45.3668 28.6834 45.3668ZM28.6834 36.3434H26.8109C25.565 36.3434 24.555 35.3334 24.555 34.0875C24.555 32.8417 25.565 31.8317 26.8109 31.8317H28.6834C29.9292 31.8317 30.9392 32.8417 30.9392 34.0875C30.9392 35.3334 29.9292 36.3434 28.6834 36.3434ZM39.4363 54.3903H37.5638C36.318 54.3903 35.3079 53.3802 35.3079 52.1344C35.3079 50.8886 36.318 49.8785 37.5638 49.8785H39.4363C40.6822 49.8785 41.6922 50.8886 41.6922 52.1344C41.6922 53.3802 40.6822 54.3903 39.4363 54.3903ZM39.4363 45.3668H37.5638C36.318 45.3668 35.3079 44.3568 35.3079 43.111C35.3079 41.8651 36.318 40.8551 37.5638 40.8551H39.4363C40.6822 40.8551 41.6922 41.8651 41.6922 43.111C41.6922 44.3568 40.6822 45.3668 39.4363 45.3668ZM39.4363 36.3434H37.5638C36.318 36.3434 35.3079 35.3334 35.3079 34.0875C35.3079 32.8417 36.318 31.8317 37.5638 31.8317H39.4363C40.6822 31.8317 41.6922 32.8417 41.6922 34.0875C41.6922 35.3334 40.6822 36.3434 39.4363 36.3434ZM50.1893 54.3903H48.3167C47.0709 54.3903 46.0609 53.3802 46.0609 52.1344C46.0609 50.8886 47.0709 49.8785 48.3167 49.8785H50.1893C51.4351 49.8785 52.4451 50.8886 52.4451 52.1344C52.4451 53.3802 51.4351 54.3903 50.1893 54.3903ZM50.1893 45.3668H48.3167C47.0709 45.3668 46.0609 44.3568 46.0609 43.111C46.0609 41.8651 47.0709 40.8551 48.3167 40.8551H50.1893C51.4351 40.8551 52.4451 41.8651 52.4451 43.111C52.4451 44.3568 51.4351 45.3668 50.1893 45.3668ZM50.1893 36.3434H48.3167C47.0709 36.3434 46.0609 35.3334 46.0609 34.0875C46.0609 32.8417 47.0709 31.8317 48.3167 31.8317H50.1893C51.4351 31.8317 52.4451 32.8417 52.4451 34.0875C52.4451 35.3334 51.4351 36.3434 50.1893 36.3434Z"/>
</svg>
