<svg width="21" height="18" viewBox="0 0 21 18" fill="currentColor" xmlns="http://www.w3.org/2000/svg">
<path d="M15.8563 10.3247H15.1187C15.011 10.3247 14.9226 10.3592 14.8538 10.4285C14.7845 10.4975 14.75 10.5858 14.75 10.6934V14.3809C14.75 14.8879 14.5696 15.3219 14.2085 15.683C13.8475 16.044 13.4134 16.2244 12.9063 16.2244H3.31869C2.81166 16.2244 2.37758 16.044 2.01646 15.683C1.65543 15.3219 1.47493 14.888 1.47493 14.3809V4.79337C1.47493 4.28635 1.65539 3.85243 2.01646 3.49135C2.37758 3.13024 2.81166 2.94978 3.31869 2.94978H11.4311C11.5388 2.94978 11.6272 2.91511 11.6963 2.84605C11.7653 2.77691 11.7998 2.68864 11.7998 2.581V1.84339C11.7998 1.73595 11.7653 1.64752 11.6963 1.5785C11.6272 1.50936 11.5388 1.47485 11.4311 1.47485H3.31869C2.40458 1.47485 1.62286 1.79944 0.9736 2.44857C0.324587 3.09767 0 3.87939 0 4.79349V14.381C0 15.2951 0.324587 16.0769 0.973641 16.7258C1.6229 17.375 2.40462 17.6997 3.31873 17.6997H12.9063C13.8204 17.6997 14.6022 17.375 15.2514 16.7258C15.9006 16.0769 16.2252 15.2951 16.2252 14.381V10.6937C16.2252 10.586 16.1906 10.4976 16.1213 10.4285C16.0521 10.3592 15.9637 10.3247 15.8563 10.3247Z"/>
<path d="M20.4311 0.21892C20.2851 0.0729331 20.112 0 19.9124 0H14.0125C13.8128 0 13.6398 0.0729331 13.4939 0.21892C13.348 0.364827 13.2749 0.537695 13.2749 0.737444C13.2749 0.937192 13.348 1.1101 13.4939 1.25609L15.522 3.28417L8.00883 10.7975C7.9319 10.8743 7.89355 10.9627 7.89355 11.0624C7.89355 11.1624 7.93202 11.2508 8.00883 11.3276L9.32251 12.6411C9.39932 12.7179 9.48771 12.7562 9.58756 12.7562C9.68742 12.7562 9.77585 12.718 9.85262 12.6411L17.3658 5.12792L19.394 7.156C19.5399 7.30199 19.7128 7.375 19.9125 7.375C20.1123 7.375 20.2852 7.30199 20.4312 7.156C20.5772 7.01005 20.6501 6.83723 20.6501 6.63748V0.737444C20.6501 0.537574 20.5769 0.364827 20.4311 0.21892Z"/>
</svg>
