<svg width="20" height="20" viewBox="0 0 20 20" fill="currentColor" xmlns="http://www.w3.org/2000/svg">
<g clip-path="url(#clip0)">
<path d="M11.2514 6.65002H9.1528V9.1788H11.2514C11.9486 9.1788 12.5158 8.61159 12.5158 7.91443C12.5158 7.21728 11.9486 6.65002 11.2514 6.65002Z"/>
<path d="M17.0699 2.93112C13.1629 -0.975934 6.83865 -0.97652 2.93104 2.93112C-0.976051 6.83814 -0.976677 13.1624 2.93104 17.07C6.8381 20.9771 13.1623 20.9777 17.0699 17.07C20.977 13.163 20.9776 6.83873 17.0699 2.93112ZM11.2518 10.8218H9.15317V11.6821H10.8347C11.2882 11.6821 11.6559 12.0497 11.6559 12.5033C11.6559 12.9568 11.2882 13.3245 10.8347 13.3245H9.15317V14.1717C9.15317 14.6253 8.78551 14.9929 8.33197 14.9929C7.87844 14.9929 7.51078 14.6253 7.51078 14.1717V13.3245H6.66354C6.21 13.3245 5.84234 12.9568 5.84234 12.5033C5.84234 12.0497 6.21 11.6821 6.66354 11.6821H7.51078V10.8218H6.66354C6.21 10.8218 5.84234 10.4541 5.84234 10.0006C5.84234 9.54703 6.21 9.17937 6.66354 9.17937H7.51078V5.8294C7.51078 5.37586 7.87844 5.0082 8.33197 5.0082H11.2518C12.8546 5.0082 14.1586 6.31218 14.1586 7.91496C14.1586 9.51782 12.8546 10.8218 11.2518 10.8218Z"/>
</g>
<defs>
<clipPath id="clip0">
<rect width="20" height="20"/>
</clipPath>
</defs>
</svg>
