<svg width="20" height="13" viewBox="0 0 20 13" fill="currentColor" xmlns="http://www.w3.org/2000/svg">
<path d="M6.06221 2.46863L4.2424 3.4366L7.0507 5.25367L8.82073 4.1763L6.06221 2.46863Z"/>
<path d="M7.03168 6.6366L4.18173 8.37135L6.14946 9.65344L8.92174 7.85954L7.03168 6.6366Z"/>
<path d="M9.93737 4.86768L8.14249 5.96021L9.99956 7.16186L11.7811 6.00904L9.93737 4.86768Z"/>
<path d="M12.8837 6.69128L11.0783 7.85945L13.8508 9.65336L15.711 8.44139L12.8837 6.69128Z"/>
<path d="M13.9062 2.45203L11.0598 4.18456L12.8696 5.30491L15.7571 3.43653L13.9062 2.45203Z"/>
<path d="M9.99946 8.55725L7.22348 10.3535L9.99961 12.1624L12.7757 10.3536L9.99946 8.55725Z"/>
<path d="M3.05877 4.06628L0 5.67253L3.09327 7.66252L5.93934 5.93015L3.05877 4.06628Z"/>
<path d="M10 0.412598L7.25946 1.83159L9.94312 3.49293L12.7042 1.81221L10 0.412598Z"/>
<path d="M16.941 4.06592L13.972 5.98699L16.7953 7.73483L20 5.67233L16.941 4.06592Z"/>
</svg>
