<svg width="20" height="20" viewBox="0 0 20 20" fill="currentColor" xmlns="http://www.w3.org/2000/svg">
<path d="M14.6019 12.342C14.2902 12.8447 13.9497 13.3687 13.5809 13.9136C16.6826 14.3774 18.2707 15.3709 18.2707 15.8652C18.2707 16.5235 15.4567 18.0662 9.99978 18.0662C4.54325 18.0662 1.72933 16.5235 1.72933 15.8652C1.72933 15.3709 3.31699 14.3778 6.41949 13.9136C6.05026 13.3687 5.71024 12.8447 5.39811 12.342C2.33702 12.9192 0 14.1058 0 15.8652C0 18.4459 5.03106 19.7964 9.99978 19.7964C14.9694 19.7964 20 18.4459 20 15.8652C20.0004 14.1058 17.6639 12.9192 14.6019 12.342Z"/>
<path d="M10.0225 0.204102C6.7801 0.204102 4.15189 2.83232 4.15189 6.07389C4.15189 8.39957 7.17157 12.8491 8.87954 15.1796C9.14676 15.544 9.57092 15.7594 10.0225 15.7594C10.4733 15.7594 10.8988 15.544 11.1647 15.1796C12.8727 12.8491 15.8928 8.39957 15.8928 6.07389C15.8928 2.83232 13.2645 0.204102 10.0225 0.204102ZM10.0225 9.7187C8.10664 9.7187 6.54819 8.16025 6.54819 6.24521C6.54819 4.32974 8.10664 2.77129 10.0225 2.77129C11.938 2.77129 13.496 4.32974 13.496 6.24521C13.496 8.16025 11.938 9.7187 10.0225 9.7187Z"/>
<path d="M10.0225 4.1322C8.85723 4.1322 7.90952 5.07991 7.90952 6.24515C7.90952 7.40952 8.85723 8.35766 10.0225 8.35766C11.1873 8.35766 12.1354 7.40995 12.1354 6.24515C12.1354 5.07948 11.1873 4.1322 10.0225 4.1322Z"/>
</svg>
