<svg width="20" height="20" viewBox="0 0 20 20" fill="currentColor" xmlns="http://www.w3.org/2000/svg">
<path d="M19.6588 9.70615C19.5068 9.61207 19.3278 9.58039 19.1564 9.61025L18.995 1.75148C18.9869 1.35961 18.6669 1.04626 18.2751 1.04626H16.1826C15.7907 1.04626 15.4707 1.35971 15.4626 1.75148L15.2929 10.0181C15.2346 9.89143 15.1411 9.7818 15.0188 9.70605C14.8068 9.57482 14.5419 9.56273 14.3187 9.67409L13.9378 9.86407V5.7519C13.9378 5.35427 13.6154 5.0319 13.2178 5.0319H12.3467C11.949 5.0319 11.6267 5.35427 11.6267 5.7519V11.017L10.72 11.4693V10.3184C10.72 10.069 10.5909 9.83738 10.3789 9.70615C10.1668 9.57492 9.90194 9.56282 9.67874 9.67418L6.08007 11.4694V10.3185C6.08007 10.0691 5.95095 9.83748 5.73889 9.70625C5.52682 9.57501 5.26186 9.56301 5.03866 9.67428L0.398593 11.9887C0.154368 12.1107 0 12.3601 0 12.633V18.2337C0 18.6313 0.322369 18.9537 0.720001 18.9537H19.28C19.6776 18.9537 20 18.6313 20 18.2337V10.3183C20 10.0689 19.8709 9.83729 19.6588 9.70615ZM4.04737 16.4831C4.04737 16.8807 3.725 17.2031 3.32737 17.2031H2.02772C1.63008 17.2031 1.30771 16.8807 1.30771 16.4831V15.5871C1.30771 15.1895 1.63008 14.8671 2.02772 14.8671H3.32737C3.725 14.8671 4.04737 15.1895 4.04737 15.5871V16.4831ZM9.57122 16.4831C9.57122 16.8807 9.24885 17.2031 8.85121 17.2031H7.55147C7.15384 17.2031 6.83147 16.8807 6.83147 16.4831V15.5871C6.83147 15.1895 7.15384 14.8671 7.55147 14.8671H8.85121C9.24885 14.8671 9.57122 15.1895 9.57122 15.5871V16.4831ZM15.0951 16.4831C15.0951 16.8807 14.7727 17.2031 14.3751 17.2031H13.0753C12.6777 17.2031 12.3553 16.8807 12.3553 16.4831V15.5871C12.3553 15.1895 12.6777 14.8671 13.0753 14.8671H14.3751C14.7727 14.8671 15.0951 15.1895 15.0951 15.5871V16.4831Z"/>
</svg>
