<svg width="20" height="20" viewBox="0 0 20 20" fill="currentColor" xmlns="http://www.w3.org/2000/svg">
<path d="M11.0418 5.83325H3.12501C2.78 5.83325 2.5 6.11325 2.5 6.45825V7.70825C2.5 8.05325 2.78 8.33325 3.12501 8.33325H11.0418C11.3868 8.33325 11.6668 8.05325 11.6668 7.70825V6.45825C11.6668 6.11325 11.3868 5.83325 11.0418 5.83325Z"/>
<path d="M14.8782 0C14.1965 0 13.5474 0.259166 13.0657 0.704166C12.2373 0.2 11.0565 0.318333 10.3557 0.961666C9.73148 0.634166 8.8873 0.709999 8.33146 1.14833C7.46895 0.987499 6.66644 1.66417 6.66644 2.5C6.66644 3.33583 7.46812 4.01583 8.33146 3.8525C8.8873 4.29 9.73231 4.36583 10.3557 4.03916C11.0565 4.6825 12.2373 4.8 13.0657 4.29666C13.5474 4.74083 14.1965 5 14.8782 5C16.3241 5 17.4999 3.87833 17.4999 2.5C17.4999 1.12167 16.3241 0 14.8782 0V0Z"/>
<path d="M14.1057 19.3651C14.0765 19.3176 11.4782 15.0159 10.9381 9.16675H3.22972C3.13472 10.1926 2.97389 11.1667 2.77722 12.0834H6.04226C6.38726 12.0834 6.66726 12.3634 6.66726 12.7084C6.66726 13.0534 6.38726 13.3334 6.04226 13.3334H2.47805C2.36222 13.7701 2.23888 14.1851 2.11221 14.5834H6.04226C6.38726 14.5834 6.66726 14.8634 6.66726 15.2084C6.66726 15.5534 6.38726 15.8334 6.04226 15.8334H1.68471C0.879698 18.0051 0.0780218 19.3392 0.0621883 19.3651C-0.108647 19.6442 0.093022 20.0001 0.417192 20.0001H13.7507C14.0765 20.0001 14.2757 19.6417 14.1057 19.3651Z"/>
<path d="M19.5835 9.16675H12.0834C11.9684 9.16675 11.865 9.21342 11.79 9.28758C12.3467 14.7876 14.7767 18.8651 14.8159 18.9292C15.0151 19.2542 15.0434 19.6467 14.9176 19.9992H19.5835C19.8135 19.9992 20.0001 19.8126 20.0001 19.5826V9.58258C20.0001 9.35341 19.8135 9.16675 19.5835 9.16675ZM16.8751 17.5001H14.7917C14.4467 17.5001 14.1667 17.2201 14.1667 16.8751C14.1667 16.5301 14.4467 16.2501 14.7917 16.2501H16.8751C17.2201 16.2501 17.5001 16.5301 17.5001 16.8751C17.5001 17.2201 17.2201 17.5001 16.8751 17.5001ZM16.8751 15.0001H14.7917C14.4467 15.0001 14.1667 14.7201 14.1667 14.3751C14.1667 14.0301 14.4467 13.7501 14.7917 13.7501H16.8751C17.2201 13.7501 17.5001 14.0301 17.5001 14.3751C17.5001 14.7201 17.2201 15.0001 16.8751 15.0001ZM16.8751 12.5001H14.7917C14.4467 12.5001 14.1667 12.2201 14.1667 11.8751C14.1667 11.5301 14.4467 11.2501 14.7917 11.2501H16.8751C17.2201 11.2501 17.5001 11.5301 17.5001 11.8751C17.5001 12.2201 17.2201 12.5001 16.8751 12.5001Z"/>
</svg>
