<svg width="20" height="20" viewBox="0 0 20 20" fill="currentColor" xmlns="http://www.w3.org/2000/svg">
<g clip-path="url(#clip0)">
<path d="M2.49998 9.16663C2.28665 9.16663 2.07332 9.08496 1.91082 8.92246C1.58498 8.59663 1.58498 8.06996 1.91082 7.74413L7.66582 1.98913C7.99165 1.66329 8.51832 1.66329 8.84415 1.98913C9.16998 2.31496 9.16998 2.84163 8.84415 3.16746L3.08915 8.92246C2.92665 9.08496 2.71332 9.16663 2.49998 9.16663Z"/>
<path d="M9.37483 4.99992C9.21233 4.99992 9.05233 4.93659 8.93316 4.81659L6.0165 1.89992C5.83733 1.72159 5.784 1.45242 5.88066 1.21909C5.97733 0.985752 6.20566 0.833252 6.45816 0.833252H9.37483C9.71983 0.833252 9.99983 1.11325 9.99983 1.45825V4.37492C9.99983 4.62742 9.84733 4.85575 9.614 4.95242C9.5365 4.98409 9.45566 4.99992 9.37483 4.99992Z"/>
<path d="M5.83334 12.7083V17.5H0.833344V12.7083C0.833344 12.1333 1.30001 11.6666 1.87501 11.6666H4.79168C5.36668 11.6666 5.83334 12.1333 5.83334 12.7083Z"/>
<path d="M12.5 9.37492V17.4999H7.5V9.37492C7.5 8.79992 7.96667 8.33325 8.54167 8.33325H11.4583C12.0333 8.33325 12.5 8.79992 12.5 9.37492Z"/>
<path d="M19.1668 6.04167V17.5H14.1668V6.04167C14.1668 5.46667 14.6334 5 15.2084 5H18.1251C18.7001 5 19.1668 5.46667 19.1668 6.04167Z"/>
<path d="M19.375 20H0.625C0.28 20 0 19.72 0 19.375C0 19.03 0.28 18.75 0.625 18.75H19.375C19.72 18.75 20 19.03 20 19.375C20 19.72 19.72 20 19.375 20Z"/>
</g>
<defs>
<clipPath id="clip0">
<rect width="20" height="20"/>
</clipPath>
</defs>
</svg>
