<svg width="21" height="15" viewBox="0 0 21 15" fill="currentColor" xmlns="http://www.w3.org/2000/svg">
<path d="M13.8464 14.9326V14.9999H13.5399H12.3136V10.1785H13.8464V14.9326Z"/>
<path d="M7.40388 0.20909C7.69619 -0.0695338 8.14266 -0.0695338 8.43497 0.20909L9.36035 1.09114L4.38008 5.83808C3.44198 6.73229 3.37259 8.25993 4.22542 9.24349C4.48304 9.5406 4.8057 9.7626 5.1603 9.89422V15H1.53256V7.97728L1.28168 8.21643C1.13484 8.35641 0.950336 8.42541 0.766394 8.42541C0.557978 8.42541 0.350277 8.3368 0.199036 8.16237C-0.0857162 7.83398 -0.0626211 7.32575 0.25059 7.02725L7.40388 0.20909Z"/>
<path d="M12.5647 0.208968C12.857 -0.0696559 13.3035 -0.0696559 13.5958 0.208968L20.7491 7.02713C21.0714 7.33431 21.0865 7.86354 20.7751 8.19038C20.4835 8.49648 20.0074 8.49209 19.702 8.20104L19.4671 7.97716V14.1963C19.4671 14.6401 19.124 14.9999 18.7007 14.9999H15.3796V9.37494C15.3796 8.93116 15.0364 8.57137 14.6131 8.57137H11.5474C11.1242 8.57137 10.781 8.93116 10.781 9.37494V14.9999H6.69342V7.97716L6.44254 8.2163C6.2957 8.35629 6.11119 8.42529 5.92725 8.42529C5.71884 8.42529 5.51114 8.33668 5.35989 8.16225C5.07514 7.83386 5.09824 7.32563 5.41145 7.02713L12.5647 0.208968ZM12.3139 6.96424H13.8467C14.27 6.96424 14.6131 6.60445 14.6131 6.16067C14.6131 5.71689 14.27 5.3571 13.8467 5.3571H12.3139C11.8906 5.3571 11.5474 5.71689 11.5474 6.16067C11.5474 6.60445 11.8906 6.96424 12.3139 6.96424Z"/>
</svg>
