<svg width="20" height="16" viewBox="0 0 20 16" fill="currentColor" xmlns="http://www.w3.org/2000/svg">
<path d="M18.2423 0H1.75797C1.48738 0 1.23406 0.0665235 1.00488 0.176172L9.96109 9.13238L11.9685 7.2032C11.9685 7.2032 11.9686 7.20301 11.9687 7.20293C11.9687 7.20285 11.9689 7.20277 11.9689 7.20277L18.9957 0.176328C18.7665 0.0666016 18.513 0 18.2423 0Z"/>
<path d="M19.8245 1.00488L13.2119 7.61715L19.8243 14.2295C19.9339 14.0003 20.0005 13.747 20.0005 13.4764V1.7577C20.0005 1.48727 19.9341 1.23398 19.8245 1.00488Z"/>
<path d="M0.176172 1.00488C0.0665234 1.23406 0 1.48738 0 1.75797V13.4767C0 13.7471 0.0664453 14.0005 0.176016 14.2296L6.78863 7.61734L0.176172 1.00488Z"/>
<path d="M12.3833 8.44588L10.3757 10.3753C10.2612 10.4897 10.1113 10.547 9.96141 10.547C9.81152 10.547 9.66156 10.4897 9.54715 10.3753L7.61762 8.4458L1.00488 15.0581C1.2341 15.1678 1.48758 15.2344 1.75824 15.2344H18.2426C18.5132 15.2344 18.7665 15.1679 18.9957 15.0583L12.3833 8.44588Z"/>
</svg>
