<svg width="110" height="32" viewBox="0 0 110 32" fill="currentColor" xmlns="http://www.w3.org/2000/svg">
<path fill-rule="evenodd" clip-rule="evenodd" d="M73.9927 23.6225H70.3984V9.29248H73.977H82.2997L83.2031 9.38243C83.9277 9.53141 84.604 9.8577 85.1715 10.3321C85.7391 10.8065 86.1801 11.4142 86.4553 12.1009C86.7304 12.7875 86.831 13.5316 86.748 14.2667C86.6651 15.0017 86.4012 15.7047 85.98 16.3128L85.8705 16.4379L86.0738 16.6335C86.6476 17.3393 86.9574 18.223 86.9499 19.1326C86.9489 20.1634 86.593 21.1624 85.942 21.9616C85.2909 22.7608 84.3845 23.3114 83.3752 23.5208L82.4796 23.6107L73.9927 23.6225ZM82.4992 20.0439L82.8433 19.9696C83.0363 19.8908 83.1957 19.7472 83.2942 19.5635C83.3927 19.3798 83.424 19.1675 83.3827 18.9632C83.3415 18.7589 83.2303 18.5754 83.0683 18.4442C82.9063 18.3131 82.7036 18.2426 82.4952 18.2448H73.9927V20.04L82.4992 20.0439ZM82.3153 14.674C82.522 14.6741 82.7224 14.6026 82.8824 14.4717C83.0424 14.3408 83.1522 14.1586 83.1932 13.956C83.2342 13.7534 83.2038 13.5428 83.1073 13.3601C83.0107 13.1773 82.8539 13.0335 82.6634 12.9532L82.3153 12.8867H73.9927V14.678L82.3153 14.674Z"/>
<path d="M91.8935 9.30029H88.3188V23.6225H91.8935V9.30029Z"/>
<path fill-rule="evenodd" clip-rule="evenodd" d="M93.6886 23.6225V20.0439H105.32C105.548 20.0288 105.761 19.9277 105.917 19.761C106.073 19.5944 106.16 19.3746 106.16 19.1463C106.16 18.918 106.073 18.6982 105.917 18.5315C105.761 18.3649 105.548 18.2638 105.32 18.2487H97.713C96.5498 18.2143 95.4458 17.728 94.6351 16.8931C93.8245 16.0581 93.3711 14.9402 93.3711 13.7765C93.3711 12.6127 93.8245 11.4948 94.6351 10.6598C95.4458 9.82487 96.5498 9.3386 97.713 9.3042H108.902V12.8867H97.713C97.4745 12.8867 97.2457 12.9815 97.077 13.1502C96.9083 13.3189 96.8135 13.5477 96.8135 13.7862C96.8135 14.0248 96.9083 14.2536 97.077 14.4223C97.2457 14.591 97.4745 14.6858 97.713 14.6858H105.32C105.918 14.6681 106.514 14.7707 107.072 14.9874C107.63 15.2042 108.139 15.5308 108.569 15.9479C108.998 16.3649 109.34 16.8639 109.573 17.4153C109.806 17.9667 109.926 18.5593 109.926 19.158C109.926 19.7567 109.806 20.3493 109.573 20.9007C109.34 21.4522 108.998 21.9512 108.569 22.3682C108.139 22.7852 107.63 23.1118 107.072 23.3286C106.514 23.5454 105.918 23.648 105.32 23.6303H93.6886V23.6225Z"/>
<path fill-rule="evenodd" clip-rule="evenodd" d="M64.5319 23.6188L55.5717 14.6782H64.5945L64.9426 14.6078C65.1046 14.5378 65.2427 14.4221 65.3399 14.2748C65.4372 14.1276 65.4894 13.9551 65.4901 13.7786C65.4896 13.6615 65.466 13.5457 65.4207 13.4377C65.3754 13.3297 65.3093 13.2317 65.2262 13.1492C65.143 13.0668 65.0444 13.0016 64.936 12.9572C64.8276 12.9129 64.7116 12.8903 64.5945 12.8908H53.7844L50.2058 9.31616H64.5984L65.056 9.33963C66.1969 9.45694 67.2493 10.0079 67.9956 10.8788C68.742 11.7497 69.1254 12.874 69.0667 14.0195C69.0079 15.1649 68.5116 16.2441 67.68 17.0341C66.8485 17.8241 65.7453 18.2646 64.5984 18.2646H64.2073L69.5771 23.6344L64.5319 23.6188Z"/>
<path fill-rule="evenodd" clip-rule="evenodd" d="M53.3424 15.3311L50.8315 17.842L42.2625 9.28076H47.3272L53.3424 15.3311Z"/>
<path fill-rule="evenodd" clip-rule="evenodd" d="M40.4282 23.6225C38.5289 23.6225 36.7075 22.868 35.3645 21.525C34.0216 20.1821 33.2671 18.3606 33.2671 16.4614C33.2671 14.5621 34.0216 12.7407 35.3645 11.3977C36.7075 10.0548 38.5289 9.30029 40.4282 9.30029H42.2585L45.8489 12.8906H40.4282C39.5001 12.9213 38.6202 13.3116 37.9745 13.979C37.3289 14.6464 36.9679 15.5386 36.9679 16.4672C36.9679 17.3959 37.3289 18.2881 37.9745 18.9555C38.6202 19.6229 39.5001 20.0132 40.4282 20.0439H47.1356C47.6068 20.0438 48.0733 19.9504 48.5083 19.7692C48.9433 19.588 49.3381 19.3224 49.6699 18.9879L53.3385 15.3233L55.865 17.8459L52.2043 21.5105C51.0408 22.6774 49.5101 23.4069 47.8709 23.5755L47.1434 23.6107L40.4282 23.6225Z"/>
<path fill-rule="evenodd" clip-rule="evenodd" d="M13.7239 27.4475H13.6887L8.21325 21.9721H2.73782L2.47187 21.6162C1.03712 19.5685 0.189054 17.1677 0.0192414 14.6732C-0.150571 12.1786 0.364328 9.68512 1.50833 7.46187C2.65234 5.23863 4.38197 3.37016 6.51046 2.05824C8.63894 0.746328 11.0854 0.0408202 13.5856 0.0179103C16.0858 -0.00499964 18.5448 0.655559 20.6969 1.92825C22.8491 3.20094 24.6127 5.0374 25.7972 7.23931C26.9818 9.44122 27.5423 11.9249 27.4182 14.4221C27.2941 16.9194 26.4902 19.3352 25.0932 21.4089L24.6552 21.9995L19.2423 16.5592C18.7922 16.1093 18.2578 15.7525 17.6697 15.5091C17.0816 15.2657 16.4514 15.1405 15.8149 15.1407C14.5295 15.141 13.2969 15.652 12.3883 16.5612C11.4796 17.4703 10.9694 18.7032 10.9697 19.9886C10.9701 21.274 11.4811 22.5066 12.3902 23.4152L16.1917 27.2207L15.1319 27.3771C14.6664 27.424 14.201 27.4436 13.7239 27.4436V27.4475ZM20.2592 25.8127C20.6503 25.6015 21.0414 25.3708 21.3934 25.1244L21.9136 24.7333L16.5007 19.3008C16.4118 19.2056 16.3046 19.1293 16.1855 19.0763C16.0665 19.0234 15.938 18.9951 15.8077 18.9929C15.6774 18.9908 15.548 19.0149 15.4273 19.0639C15.3065 19.1128 15.1969 19.1856 15.1049 19.2779C15.0129 19.3701 14.9404 19.48 14.8918 19.6009C14.8432 19.7218 14.8194 19.8512 14.822 19.9815C14.8245 20.1117 14.8532 20.2402 14.9065 20.3591C14.9597 20.478 15.0364 20.585 15.1319 20.6736L20.2592 25.8127Z"/>
</svg>
