<svg width="110" height="32" viewBox="0 0 110 32" fill="currentColor" xmlns="http://www.w3.org/2000/svg">
<path d="M73.9927 23.6226H70.3984V9.2926H73.977H82.2997L83.2031 9.38256C83.9277 9.53153 84.604 9.85782 85.1715 10.3322C85.7391 10.8066 86.1801 11.4143 86.4553 12.101C86.7304 12.7876 86.831 13.5318 86.748 14.2668C86.6651 15.0018 86.4012 15.7048 85.98 16.3129L85.8705 16.438L86.0738 16.6336C86.6476 17.3394 86.9574 18.2232 86.9499 19.1327C86.9489 20.1635 86.593 21.1625 85.942 21.9617C85.2909 22.7609 84.3845 23.3115 83.3752 23.5209L82.4796 23.6109L73.9927 23.6226ZM82.4992 20.044L82.8433 19.9697C83.0363 19.8909 83.1957 19.7473 83.2942 19.5636C83.3927 19.3799 83.424 19.1676 83.3827 18.9633C83.3415 18.759 83.2303 18.5755 83.0683 18.4444C82.9063 18.3132 82.7036 18.2427 82.4952 18.2449H73.9927V20.0401L82.4992 20.044ZM82.3153 14.6742C82.522 14.6742 82.7224 14.6027 82.8824 14.4718C83.0424 14.3409 83.1522 14.1587 83.1932 13.9561C83.2342 13.7535 83.2038 13.5429 83.1073 13.3602C83.0107 13.1774 82.8539 13.0337 82.6634 12.9533L82.3153 12.8868H73.9927V14.6781L82.3153 14.6742Z"/>
<path d="M91.8934 9.30042H88.3187V23.6226H91.8934V9.30042Z"/>
<path d="M93.6886 23.6226V20.044H105.32C105.548 20.0289 105.761 19.9278 105.917 19.7612C106.073 19.5945 106.16 19.3747 106.16 19.1464C106.16 18.9181 106.073 18.6983 105.917 18.5317C105.761 18.365 105.548 18.2639 105.32 18.2488H97.713C96.5498 18.2144 95.4458 17.7282 94.6351 16.8932C93.8245 16.0583 93.3711 14.9403 93.3711 13.7766C93.3711 12.6128 93.8245 11.4949 94.6351 10.6599C95.4458 9.82499 96.5498 9.33872 97.713 9.30432H108.902V12.8868H97.713C97.4745 12.8868 97.2457 12.9816 97.077 13.1503C96.9083 13.319 96.8135 13.5478 96.8135 13.7864C96.8135 14.0249 96.9083 14.2537 97.077 14.4224C97.2457 14.5911 97.4745 14.6859 97.713 14.6859H105.32C105.918 14.6682 106.514 14.7708 107.072 14.9876C107.63 15.2044 108.139 15.5309 108.569 15.948C108.998 16.365 109.34 16.864 109.573 17.4154C109.806 17.9668 109.926 18.5595 109.926 19.1581C109.926 19.7568 109.806 20.3494 109.573 20.9009C109.34 21.4523 108.998 21.9513 108.569 22.3683C108.139 22.7854 107.63 23.1119 107.072 23.3287C106.514 23.5455 105.918 23.6481 105.32 23.6304H93.6886V23.6226Z"/>
<path d="M64.5319 23.6187L55.5717 14.6781H64.5945L64.9426 14.6077C65.1046 14.5377 65.2427 14.422 65.3399 14.2748C65.4372 14.1275 65.4894 13.9551 65.4901 13.7786C65.4896 13.6615 65.466 13.5456 65.4207 13.4376C65.3754 13.3296 65.3093 13.2316 65.2262 13.1492C65.143 13.0667 65.0444 13.0015 64.936 12.9572C64.8276 12.9128 64.7116 12.8903 64.5945 12.8908H53.7844L50.2058 9.3161H64.5984L65.056 9.33957C66.1969 9.45688 67.2493 10.0079 67.9956 10.8788C68.742 11.7497 69.1254 12.8739 69.0667 14.0194C69.0079 15.1649 68.5116 16.244 67.68 17.034C66.8485 17.824 65.7453 18.2645 64.5984 18.2645H64.2073L69.5771 23.6344L64.5319 23.6187Z"/>
<path d="M53.3424 15.3312L50.8316 17.8421L42.2625 9.28088H47.3273L53.3424 15.3312Z"/>
<path d="M40.4282 23.6226C38.529 23.6226 36.7075 22.8681 35.3646 21.5252C34.0216 20.1822 33.2672 18.3607 33.2672 16.4615C33.2672 14.5623 34.0216 12.7408 35.3646 11.3978C36.7075 10.0549 38.529 9.30042 40.4282 9.30042H42.2586L45.8489 12.8907H40.4282C39.5001 12.9214 38.6203 13.3117 37.9746 13.9791C37.3289 14.6465 36.9679 15.5387 36.9679 16.4674C36.9679 17.396 37.3289 18.2882 37.9746 18.9556C38.6203 19.623 39.5001 20.0133 40.4282 20.044H47.1356C47.6069 20.0439 48.0734 19.9506 48.5084 19.7693C48.9433 19.5881 49.3381 19.3226 49.67 18.988L53.3385 15.3234L55.865 17.846L52.2043 21.5106C51.0408 22.6776 49.5101 23.407 47.8709 23.5757L47.1435 23.6109L40.4282 23.6226Z"/>
<path d="M33.8812 30.2361V29.9624C33.8718 29.6814 33.8967 29.4003 33.9555 29.1254C34.0074 28.9376 34.1071 28.7664 34.2449 28.6287C34.5154 28.368 34.8764 28.2223 35.252 28.2223C35.6277 28.2223 35.9887 28.368 36.2591 28.6287C36.5375 28.9729 36.6708 29.412 36.6307 29.8529V30.1149C36.6396 30.4065 36.6226 30.6984 36.5798 30.9871C36.5313 31.2153 36.4218 31.4262 36.263 31.5972C36.1321 31.729 35.975 31.8318 35.8019 31.8992C35.6288 31.9666 35.4435 31.9969 35.2579 31.9883C35.0719 31.9958 34.8863 31.9649 34.7127 31.8977C34.5391 31.8304 34.3812 31.7281 34.2488 31.5972C34.1281 31.4716 34.0395 31.3186 33.9907 31.1513C33.9418 31.007 33.9103 30.8573 33.8969 30.7055C33.8969 30.5881 33.8969 30.4317 33.8969 30.2361H33.8812ZM34.6087 30.3613C34.6087 30.3848 34.6087 30.4317 34.6087 30.4982C34.6087 30.5647 34.6087 30.6116 34.6087 30.639C34.6087 30.6663 34.6087 30.7094 34.6087 30.7641C34.6113 30.8064 34.6178 30.8483 34.6282 30.8893L34.6595 30.991C34.6689 31.0255 34.6834 31.0585 34.7025 31.0887L34.7612 31.1591C34.8215 31.2226 34.8944 31.2727 34.9752 31.3064C35.056 31.3401 35.143 31.3565 35.2305 31.3547C35.3177 31.3585 35.4047 31.343 35.4852 31.3091C35.5656 31.2753 35.6376 31.2241 35.6959 31.1591C35.7773 31.0625 35.829 30.9443 35.8445 30.8189C35.8724 30.5591 35.8828 30.2978 35.8758 30.0367C35.8813 29.8171 35.8695 29.5974 35.8406 29.3796C35.8236 29.2624 35.7734 29.1525 35.6959 29.0628C35.6354 29 35.5628 28.9501 35.4825 28.9159C35.4022 28.8818 35.3158 28.8642 35.2286 28.8642C35.1413 28.8642 35.055 28.8818 34.9747 28.9159C34.8944 28.9501 34.8218 29 34.7612 29.0628C34.6778 29.1624 34.6273 29.2854 34.6165 29.4148C34.5928 29.6265 34.5824 29.8394 34.5852 30.0523V30.3535L34.6087 30.3613Z"/>
<path d="M39.9511 31.9687V28.2493H41.406C41.7259 28.2361 42.038 28.35 42.2743 28.5661C42.385 28.6708 42.4723 28.7977 42.5303 28.9387C42.5883 29.0796 42.6156 29.2312 42.6106 29.3835C42.615 29.5246 42.5898 29.665 42.5366 29.7957C42.4834 29.9263 42.4033 30.0444 42.3016 30.1423C42.1953 30.2414 42.0703 30.3185 41.934 30.3691L42.767 31.9687H41.9262L41.1987 30.506H40.6746V31.9804L39.9511 31.9687ZM40.6746 29.8802H41.3591C41.4301 29.8845 41.5012 29.8746 41.5684 29.8511C41.6355 29.8276 41.6973 29.791 41.7502 29.7433C41.8443 29.6488 41.8971 29.5208 41.8971 29.3874C41.8971 29.254 41.8443 29.1261 41.7502 29.0315C41.6972 28.9841 41.6354 28.9475 41.5683 28.9241C41.5012 28.9006 41.4301 28.8906 41.3591 28.8946H40.6746V29.8802Z"/>
<path d="M45.9467 31.9687V28.2493H47.4407C47.7447 28.2332 48.0436 28.3323 48.2777 28.527C48.3807 28.6213 48.4618 28.7371 48.5152 28.8662C48.5686 28.9953 48.593 29.1345 48.5867 29.274C48.593 29.4345 48.5533 29.5934 48.4723 29.732C48.3912 29.8706 48.2721 29.9831 48.1291 30.0562C48.2336 30.1081 48.3299 30.1754 48.4146 30.2557C48.573 30.4307 48.656 30.6612 48.6453 30.8971C48.6529 31.042 48.6292 31.1868 48.5759 31.3218C48.5225 31.4567 48.4409 31.5786 48.3364 31.6793C48.1063 31.879 47.8075 31.9814 47.5033 31.9648L45.9467 31.9687ZM46.6742 31.3195H47.4329C47.4975 31.323 47.5622 31.3138 47.6233 31.2923C47.6844 31.2708 47.7406 31.2375 47.7888 31.1943C47.8322 31.1509 47.8661 31.0989 47.8884 31.0417C47.9106 30.9845 47.9206 30.9232 47.9179 30.8619C47.9211 30.8005 47.9113 30.7391 47.8891 30.6818C47.8668 30.6245 47.8326 30.5726 47.7888 30.5294C47.6906 30.444 47.5628 30.4004 47.4329 30.4082H46.6742V31.3195ZM46.6742 29.7551H47.3821C47.5099 29.7613 47.6355 29.7194 47.7341 29.6377C47.8165 29.5537 47.8626 29.4406 47.8626 29.3229C47.8626 29.2052 47.8165 29.0921 47.7341 29.0081C47.6349 28.9278 47.5094 28.8873 47.3821 28.8946H46.6742V29.7551Z"/>
<path d="M52.6932 28.2493H51.9658V31.9687H52.6932V28.2493Z"/>
<path d="M55.8064 31.5111L56.2757 31.0418C56.3712 31.1301 56.481 31.2015 56.6003 31.253C56.7814 31.3216 56.9739 31.3548 57.1674 31.3508C57.6107 31.3508 57.8323 31.1956 57.8323 30.8854C57.8374 30.8299 57.8307 30.774 57.8125 30.7214C57.7942 30.6688 57.765 30.6207 57.7267 30.5803C57.6305 30.5007 57.5112 30.454 57.3865 30.4473L56.9367 30.3848C56.2796 30.2961 55.9511 29.9571 55.9511 29.3679C55.9437 29.21 55.9719 29.0525 56.0335 28.907C56.0951 28.7615 56.1885 28.6316 56.307 28.527C56.5829 28.3084 56.9294 28.1985 57.2809 28.218C57.5174 28.2162 57.7522 28.2587 57.9731 28.3432C58.1486 28.4233 58.3098 28.5316 58.4503 28.6639L57.9888 29.1215C57.9058 29.0469 57.8106 28.9873 57.7072 28.9455C57.5645 28.8926 57.4134 28.8661 57.2613 28.8673C57.1021 28.8573 56.9441 28.8999 56.8115 28.9885C56.7584 29.0272 56.7158 29.0786 56.6878 29.1381C56.6597 29.1976 56.6472 29.2632 56.6512 29.3288C56.6512 29.5634 56.8024 29.6938 57.1049 29.7199L57.5429 29.7864C57.8243 29.8079 58.0902 29.9237 58.2977 30.1149C58.4706 30.3179 58.5576 30.5802 58.5402 30.8463C58.5467 31.0063 58.5146 31.1656 58.4465 31.3106C58.3784 31.4556 58.2764 31.5821 58.1491 31.6793C57.8413 31.8961 57.469 32.0023 57.0931 31.9805C56.8254 31.9842 56.5596 31.935 56.3109 31.8357C56.1239 31.7602 55.9527 31.65 55.8064 31.5111Z"/>
<path d="M61.3914 28.2493H62.1814L62.8736 29.7512L63.5581 28.2493H64.3481L63.2295 30.4434V31.9687H62.5099V30.4434L61.3914 28.2493Z"/>
<path d="M67.0428 31.5111L67.5121 31.0418C67.6076 31.13 67.7174 31.2014 67.8367 31.253C68.0178 31.3215 68.2103 31.3547 68.4038 31.3508C68.8471 31.3508 69.0687 31.1956 69.0687 30.8854C69.0738 30.8299 69.067 30.774 69.0488 30.7214C69.0306 30.6688 69.0014 30.6207 68.9631 30.5803C68.8679 30.5014 68.7501 30.4548 68.6268 30.4473L68.1731 30.3847C67.516 30.2961 67.1875 29.9571 67.1875 29.3679C67.1801 29.21 67.2083 29.0525 67.2699 28.907C67.3315 28.7614 67.4249 28.6316 67.5434 28.527C67.8183 28.3093 68.1632 28.1994 68.5133 28.218C68.7499 28.2162 68.9847 28.2587 69.2056 28.3432C69.3811 28.4233 69.5423 28.5316 69.6827 28.6639L69.2251 29.1254C69.1411 29.0504 69.0444 28.9908 68.9396 28.9494C68.797 28.8964 68.6459 28.8699 68.4938 28.8712C68.3346 28.8612 68.1766 28.9038 68.044 28.9924C67.9908 29.0311 67.9483 29.0825 67.9202 29.142C67.8922 29.2015 67.8796 29.2671 67.8837 29.3327C67.8837 29.5673 68.0349 29.6977 68.3373 29.7238L68.7754 29.7903C69.0581 29.811 69.3255 29.9268 69.5341 30.1188C69.707 30.3217 69.794 30.5841 69.7766 30.8501C69.7831 31.0102 69.751 31.1695 69.6829 31.3145C69.6148 31.4595 69.5128 31.586 69.3855 31.6832C69.0776 31.9 68.7054 32.0062 68.3295 31.9843C68.0618 31.9881 67.796 31.9389 67.5473 31.8396C67.3599 31.7629 67.1888 31.6514 67.0428 31.5111Z"/>
<path d="M72.7686 28.8986V28.2493H75.4398V28.8986H74.4699V31.9687H73.7424V28.8986H72.7686Z"/>
<path d="M78.6116 31.9687V28.2493H81.0599V28.8986H79.339V29.7707H80.8057V30.4199H79.339V31.3195H81.0599V31.9687H78.6116Z"/>
<path d="M84.3569 31.9687V28.2493H85.0726L86.0425 30.2596L87.0085 28.2493H87.7243V31.9687H86.9968V29.802L86.2889 31.2139H85.7961L85.0843 29.802V31.9687H84.3569Z"/>
<path d="M90.8375 31.5111L91.3068 31.0418C91.4023 31.1301 91.512 31.2015 91.6314 31.253C91.8124 31.3216 92.005 31.3548 92.1985 31.3508C92.6418 31.3508 92.8634 31.1956 92.8634 30.8854C92.8685 30.8299 92.8617 30.774 92.8435 30.7214C92.8253 30.6688 92.7961 30.6207 92.7578 30.5803C92.6615 30.5007 92.5423 30.454 92.4175 30.4473L91.9677 30.3848C91.3107 30.2961 90.9822 29.9571 90.9822 29.3679C90.9748 29.21 91.0029 29.0525 91.0645 28.907C91.1261 28.7615 91.2196 28.6316 91.3381 28.527C91.614 28.3084 91.9604 28.1985 92.3119 28.218C92.5485 28.2162 92.7832 28.2587 93.0042 28.3432C93.1797 28.4233 93.3409 28.5316 93.4813 28.6639L93.0198 29.1215C92.9369 29.0469 92.8416 28.9873 92.7382 28.9455C92.5956 28.8926 92.4445 28.8661 92.2924 28.8673C92.1332 28.8573 91.9752 28.8999 91.8426 28.9885C91.7894 29.0272 91.7469 29.0786 91.7188 29.1381C91.6908 29.1976 91.6782 29.2632 91.6822 29.3288C91.6822 29.5634 91.8335 29.6938 92.1359 29.7199L92.574 29.7864C92.8567 29.8071 93.1241 29.9229 93.3327 30.1149C93.5056 30.3179 93.5926 30.5802 93.5752 30.8463C93.5817 31.0063 93.5495 31.1656 93.4815 31.3106C93.4134 31.4556 93.3114 31.5821 93.1841 31.6793C92.8762 31.8961 92.504 32.0023 92.1281 31.9805C91.8604 31.9842 91.5946 31.935 91.3459 31.8357C91.1575 31.7606 90.9849 31.6505 90.8375 31.5111Z"/>
<path d="M96.8018 31.8592C96.7523 31.8238 96.7111 31.7781 96.681 31.7253C96.6508 31.6725 96.6324 31.6138 96.6271 31.5532C96.6217 31.4926 96.6295 31.4316 96.6499 31.3743C96.6703 31.317 96.7028 31.2648 96.7452 31.2212C96.7876 31.1776 96.839 31.1437 96.8957 31.1218C96.9524 31.0999 97.0132 31.0906 97.0739 31.0943C97.1346 31.0981 97.1938 31.1149 97.2474 31.1436C97.301 31.1724 97.3478 31.2124 97.3845 31.2608C97.4255 31.2978 97.4582 31.3431 97.4804 31.3937C97.5027 31.4442 97.514 31.4989 97.5136 31.5542C97.5141 31.6105 97.5034 31.6663 97.4822 31.7185C97.461 31.7707 97.4297 31.8181 97.3901 31.8581C97.3504 31.8981 97.3033 31.9299 97.2513 31.9515C97.1993 31.9732 97.1436 31.9844 97.0873 31.9844C97.0336 31.9842 96.9806 31.973 96.9315 31.9515C96.8824 31.9299 96.8382 31.8985 96.8018 31.8592Z"/>
<path d="M100.881 31.9687V28.2493H102.336C102.656 28.2361 102.968 28.35 103.204 28.5661C103.315 28.6708 103.402 28.7977 103.46 28.9387C103.518 29.0796 103.546 29.2312 103.54 29.3835C103.545 29.5246 103.52 29.665 103.466 29.7957C103.413 29.9263 103.333 30.0444 103.232 30.1423C103.125 30.2415 103 30.3186 102.864 30.3691L103.697 31.9687H102.86L102.129 30.506H101.608V31.9804L100.881 31.9687ZM101.608 29.8802H102.293C102.364 29.8845 102.435 29.8746 102.502 29.8511C102.569 29.8276 102.631 29.791 102.684 29.7433C102.778 29.6488 102.831 29.5208 102.831 29.3874C102.831 29.254 102.778 29.1261 102.684 29.0315C102.631 28.9841 102.569 28.9475 102.502 28.9241C102.435 28.9006 102.364 28.8906 102.293 28.8946H101.608V29.8802Z"/>
<path d="M106.822 30.6937V28.2493H107.553V30.6663C107.543 30.8493 107.605 31.029 107.725 31.167C107.786 31.2291 107.859 31.2775 107.94 31.3092C108.021 31.3409 108.108 31.3551 108.195 31.3508C108.282 31.3551 108.369 31.341 108.451 31.3094C108.532 31.2777 108.606 31.2292 108.668 31.167C108.729 31.0992 108.775 31.0201 108.806 30.9342C108.836 30.8483 108.849 30.7573 108.844 30.6663V28.2493H109.567V30.6937C109.572 30.8689 109.54 31.0432 109.472 31.205C109.405 31.3668 109.304 31.5124 109.176 31.6324C108.905 31.8674 108.558 31.9967 108.198 31.9967C107.839 31.9967 107.492 31.8674 107.221 31.6324C107.091 31.5133 106.989 31.368 106.92 31.2061C106.851 31.0442 106.818 30.8696 106.822 30.6937Z"/>
<path d="M13.7238 27.4476H13.6886L8.21313 21.9721H2.73769L2.47174 21.6162C1.037 19.5685 0.188932 17.1678 0.0191194 14.6732C-0.150693 12.1787 0.364206 9.68518 1.50821 7.46193C2.65222 5.23869 4.38185 3.37022 6.51033 2.0583C8.63882 0.746389 11.0853 0.0408812 13.5855 0.0179713C16.0857 -0.0049386 18.5446 0.65562 20.6968 1.92831C22.849 3.201 24.6126 5.03746 25.7971 7.23937C26.9817 9.44128 27.5422 11.925 27.4181 14.4222C27.294 16.9194 26.4901 19.3353 25.0931 21.409L24.6551 21.9995L19.2422 16.5593C18.792 16.1094 18.2577 15.7525 17.6696 15.5091C17.0815 15.2657 16.4512 15.1406 15.8148 15.1407C14.5294 15.1411 13.2968 15.6521 12.3881 16.5612C11.4795 17.4704 10.9692 18.7033 10.9696 19.9887C10.97 21.2741 11.4809 22.5067 12.3901 23.4153L16.1916 27.2207L15.1317 27.3772C14.6663 27.4241 14.2009 27.4437 13.7238 27.4437V27.4476ZM20.2591 25.8128C20.6502 25.6016 21.0413 25.3708 21.3933 25.1244L21.9134 24.7333L16.5006 19.3009C16.4117 19.2057 16.3045 19.1293 16.1854 19.0764C16.0663 19.0235 15.9378 18.9951 15.8076 18.993C15.6773 18.9908 15.5479 19.015 15.4272 19.0639C15.3064 19.1129 15.1968 19.1857 15.1048 19.2779C15.0128 19.3702 14.9403 19.48 14.8917 19.6009C14.8431 19.7218 14.8193 19.8513 14.8218 19.9815C14.8243 20.1118 14.8531 20.2402 14.9063 20.3591C14.9596 20.4781 15.0362 20.585 15.1317 20.6737L20.2591 25.8128Z"/>
</svg>
