<svg width="25" height="25" viewBox="0 0 25 25" fill="currentColor" xmlns="http://www.w3.org/2000/svg">
<path d="M17.9688 12.5H14.8438C14.4123 12.5 14.0625 12.8498 14.0625 13.2813V19.5313C14.0625 19.9628 14.4123 20.3125 14.8438 20.3125H17.9688C18.8317 20.3125 19.5312 19.613 19.5312 18.75V14.0625C19.5312 13.1996 18.8317 12.5 17.9688 12.5ZM17.9688 18.75H15.625V14.0625H17.9688V18.75Z"/>
<path d="M25 14.0625V12.5H21.0938C20.6623 12.5 20.3125 12.8498 20.3125 13.2813V20.3125H21.875V17.1875H25V15.625H21.875V14.0625H25Z"/>
<path d="M1.5625 22.656V2.34352C1.5625 1.91202 1.91226 1.56227 2.34375 1.56227H14.0625V4.68727C14.0625 5.55021 14.7621 6.24977 15.625 6.24977H18.75V8.59352H20.3125V5.46852C20.3137 5.26085 20.2322 5.06124 20.0859 4.91383L15.3984 0.226331C15.251 0.0800906 15.0514 -0.00140355 14.8438 -0.000231675H2.34375C1.04932 -0.000231675 0 1.04913 0 2.34352V22.656C0 23.9505 1.04932 24.9998 2.34375 24.9998H7.8125V23.4373H2.34375C1.9123 23.4373 1.5625 23.0875 1.5625 22.656Z"/>
<path d="M11.7188 12.5H8.59375C8.16226 12.5 7.8125 12.8498 7.8125 13.2813V20.3125H9.375V17.9688H11.7188C12.5817 17.9688 13.2812 17.2692 13.2812 16.4063V14.0625C13.2812 13.1996 12.5817 12.5 11.7188 12.5ZM11.7188 16.4063H9.375V14.0625H11.7188V16.4063Z"/>
</svg>
