<svg width="37" height="37" viewBox="0 0 37 37" fill="currentColor" xmlns="http://www.w3.org/2000/svg">
<path d="M6.16683 18.4999C7.86971 18.4999 9.25016 17.1194 9.25016 15.4166C9.25016 13.7137 7.86971 12.3332 6.16683 12.3332C4.46395 12.3332 3.0835 13.7137 3.0835 15.4166C3.0835 17.1194 4.46395 18.4999 6.16683 18.4999Z"/>
<path d="M10.2829 20.6584C8.72583 21.8301 7.70833 23.7109 7.70833 25.823V26.2084H1.15625C0.524167 26.2084 0 25.6843 0 25.0522V24.2813C0 21.938 1.89625 20.0418 4.23958 20.0418H8.09375C8.89542 20.0418 9.65083 20.273 10.2829 20.6584Z"/>
<path d="M30.8333 18.4999C32.5362 18.4999 33.9167 17.1194 33.9167 15.4166C33.9167 13.7137 32.5362 12.3332 30.8333 12.3332C29.1305 12.3332 27.75 13.7137 27.75 15.4166C27.75 17.1194 29.1305 18.4999 30.8333 18.4999Z"/>
<path d="M37.0001 24.2813V25.0522C37.0001 25.6843 36.4759 26.2084 35.8438 26.2084H29.2917V25.823C29.2917 23.7109 28.2742 21.8301 26.7172 20.6584C27.3492 20.273 28.1047 20.0418 28.9063 20.0418H32.7605C35.1038 20.0418 37.0001 21.938 37.0001 24.2813Z"/>
<path d="M18.5 19.2707C21.0543 19.2707 23.125 17.2001 23.125 14.6457C23.125 12.0914 21.0543 10.0207 18.5 10.0207C15.9457 10.0207 13.875 12.0914 13.875 14.6457C13.875 17.2001 15.9457 19.2707 18.5 19.2707Z"/>
<path d="M22.7397 21.5832H14.2606C11.9219 21.5832 10.021 23.4841 10.021 25.8228V28.1353C10.021 28.7736 10.539 29.2916 11.1772 29.2916H25.8231C26.4613 29.2916 26.9793 28.7736 26.9793 28.1353V25.8228C26.9793 23.4841 25.0784 21.5832 22.7397 21.5832Z"/>
</svg>
