<svg width="30" height="30" viewBox="0 0 30 30" fill="currentColor" xmlns="http://www.w3.org/2000/svg">
<path d="M15.0001 0C8.95242 0 4.03235 5.00849 4.03235 11.1648C4.03235 14.6083 5.77399 18.788 9.20906 23.5877C11.7229 27.1003 14.2 29.6054 14.3042 29.7104C14.4958 29.9033 14.7479 30 15.0002 30C15.2453 30 15.4905 29.9087 15.6806 29.7256C15.785 29.625 18.2684 27.2213 20.787 23.7572C24.2248 19.0287 25.9679 14.792 25.9679 11.1647C25.9678 5.00849 21.0476 0 15.0001 0ZM15.0001 15.9848C12.0434 15.9848 9.63808 13.5794 9.63808 10.6228C9.63808 7.66619 12.0435 5.26079 15.0001 5.26079C17.9567 5.26079 20.362 7.66619 20.362 10.6228C20.362 13.5794 17.9566 15.9848 15.0001 15.9848Z" />
</svg>
