<svg width="25" height="25" viewBox="0 0 25 25" fill="currentColor" xmlns="http://www.w3.org/2000/svg">
<path d="M20.2148 3.90625H4.78516C4.51548 3.90625 4.29688 3.68765 4.29688 3.41797V2.14844C4.29688 0.961865 5.25874 0 6.44531 0H18.5547C19.7413 0 20.7031 0.961865 20.7031 2.14844V3.41797C20.7031 3.68765 20.4845 3.90625 20.2148 3.90625Z"/>
<path d="M22.3633 5.46875H2.63672C1.18281 5.46875 0 6.65156 0 8.10547V17.2852C0 18.7391 1.18281 19.9219 2.63672 19.9219H4.29688V16.0156C4.29688 14.0771 5.87397 12.5 7.8125 12.5H17.1875C19.126 12.5 20.7031 14.0771 20.7031 16.0156V19.9219H22.3633C23.8172 19.9219 25 18.7391 25 17.2852V8.10547C25 6.65156 23.8172 5.46875 22.3633 5.46875ZM4.68848 11.3281C4.04126 11.3281 3.51636 10.8035 3.51636 10.1562C3.51636 9.50903 4.04077 8.98438 4.68799 8.98438H4.68848C5.33569 8.98438 5.86035 9.50903 5.86035 10.1562C5.86035 10.8035 5.33569 11.3281 4.68848 11.3281Z"/>
<path d="M17.1875 14.8438H7.8125C7.16528 14.8438 6.64062 15.3684 6.64062 16.0156V19.9219V21.4844C6.64062 22.1316 7.16528 22.6562 7.8125 22.6562H17.1875C17.8347 22.6562 18.3594 22.1316 18.3594 21.4844V19.9219V16.0156C18.3594 15.3684 17.8347 14.8438 17.1875 14.8438Z"/>
</svg>
