<svg width="77" height="77" viewBox="0 0 77 77" fill="currentColor" xmlns="http://www.w3.org/2000/svg">
<g clip-path="url(#clip0)">
<path d="M21.8531 60.5322H14.8723V65.9021H21.8531V60.5322Z"/>
<path d="M13.358 57.6683H21.8532V43.4927L6.81744 50.3728V77H21.8532V68.7661H13.358C12.5672 68.7661 12.0084 68.0971 12.0084 67.3062V59.1168C12.0084 58.326 12.5674 57.6683 13.358 57.6683Z"/>
<path d="M44.7471 15.962H32.2531C31.0687 15.962 30.0872 17.0031 30.0872 18.1877V22.5849H46.9129V18.1877C46.9127 17.0031 45.932 15.962 44.7471 15.962Z"/>
<path d="M62.3065 60.5322H55.1466V65.9021H62.3065V60.5322Z"/>
<path d="M40.6529 66.2601H36.3474C35.1629 66.2601 34.2042 67.342 34.2042 68.5264V77H42.7961V68.5264C42.7959 67.342 41.8374 66.2601 40.6529 66.2601Z"/>
<path d="M55.1466 43.4012V57.6684H63.7086C64.5085 57.6737 65.1577 58.3171 65.1704 59.1168V67.3063C65.1586 68.1084 64.5107 68.7554 63.7086 68.7662H55.1466V77H70.1824V49.5935L55.1466 43.4012Z"/>
<path d="M50.0706 25.4489H26.9293C25.7216 25.4678 24.7447 26.4378 24.7173 27.6453V77H31.3402V68.5264C31.3402 65.7629 33.5837 63.3962 36.3472 63.3962H40.6528C43.4164 63.3962 45.6599 65.7629 45.6599 68.5264V77H52.2828V27.6453C52.2552 26.4378 51.2784 25.4678 50.0706 25.4489ZM45.543 52.8354H45.5421H31.4571C30.6662 52.8354 30.0251 52.1942 30.0251 51.4034C30.0251 50.6126 30.6662 49.9714 31.4571 49.9714H45.543C46.3338 49.9714 46.975 50.6126 46.975 51.4034C46.975 52.1942 46.3338 52.8354 45.543 52.8354ZM45.543 43.8855H45.5421H31.4571C30.6662 43.8855 30.0251 43.2444 30.0251 42.4536C30.0251 41.6628 30.6662 41.0216 31.4571 41.0216H45.543C46.3338 41.0216 46.975 41.6628 46.975 42.4536C46.975 43.2444 46.3338 43.8855 45.543 43.8855ZM45.543 34.9357H45.5421H31.4571C30.6662 34.9357 30.0251 34.2945 30.0251 33.5037C30.0251 32.7129 30.6662 32.0717 31.4571 32.0717H45.543C46.3338 32.0717 46.975 32.7129 46.975 33.5037C46.975 34.2945 46.3338 34.9357 45.543 34.9357Z"/>
<path d="M38.4998 0C37.709 0 37.0679 0.641167 37.0679 1.43198V14.3511H39.9318V1.43198C39.9318 0.641167 39.2908 0 38.4998 0Z"/>
</g>
<defs>
<clipPath id="clip0">
<rect width="77" height="77" fill="white"/>
</clipPath>
</defs>
</svg>
