<svg width="52" height="63" viewBox="0 0 52 63" fill="currentColor" xmlns="http://www.w3.org/2000/svg">
<path d="M33.5386 0.977539H15.4357C12.6238 0.977539 10.3443 3.25704 10.3443 6.06896V26.8388H5.09142C2.2795 26.8388 0 29.1183 0 31.9302C0 34.7421 2.2795 37.0216 5.09142 37.0216H10.3443V42.3555H5.09142C2.2795 42.3555 0 44.635 0 47.4469C0 50.2589 2.2795 52.5384 5.09142 52.5384H10.3443V57.7915C10.3443 60.6034 12.6238 62.8829 15.4357 62.8829C18.2476 62.8829 20.5271 60.6034 20.5271 57.7915V52.5384H30.9524C33.7643 52.5384 36.0438 50.2589 36.0438 47.4469C36.0438 44.635 33.7643 42.3555 30.9524 42.3555H20.5271V37.0216H33.5386C43.4758 37.0216 51.5605 28.937 51.5605 18.9997C51.5605 9.06223 43.4761 0.977539 33.5386 0.977539ZM33.5386 26.8386H20.5271V11.1601H33.5386C37.861 11.1601 41.3777 14.6766 41.3777 18.9992C41.3777 23.3218 37.8612 26.8386 33.5386 26.8386Z"/>
</svg>
