<svg width="34" height="34" viewBox="0 0 34 34" fill="currentColor" xmlns="http://www.w3.org/2000/svg">
<path d="M34 15.2716V4.56776L31.5811 5.07204C28.7851 5.65496 26.7814 8.11936 26.7814 10.9755V13.5969H21.5145V9.08232H23.0193V7.05162C23.0193 5.62235 22.0924 4.41037 20.8073 3.98179V1.08926H18.8151V3.92534L17 6.15779L15.1849 3.92534V1.08926H13.1927V3.98172C11.9076 4.41031 10.9806 5.62229 10.9806 7.05155V9.08225H12.4854V13.5967H7.21849V10.9754C7.21849 8.11923 5.21488 5.65483 2.41885 5.07191L0 4.56776V15.2716C0 19.7488 3.62943 23.3783 8.10668 23.3783H9.83589C8.61316 24.4107 7.83461 25.9534 7.83461 27.6753V28.4265H5.23281L2.28152 23.2618L0.551836 24.2502L5.50063 32.9106L7.23031 31.9222L6.37121 30.4188H9.8268V27.6753C9.8268 25.6729 11.4559 24.0438 13.4584 24.0438V24.0269L14.7428 24.8832L12.719 30.0713C15.1825 32.1828 18.8176 32.1828 21.2811 30.0713L19.2573 24.8832L20.5416 24.0269V24.0438C22.5441 24.0438 24.1733 25.6729 24.1733 27.6753V30.4188H30.8789C32.5999 30.4188 34 29.0187 34 27.2977C34 25.5767 32.5999 24.1766 30.8789 24.1766C29.1579 24.1766 27.7578 25.5767 27.7578 27.2977C27.7578 27.6957 27.8335 28.0762 27.97 28.4266H26.1655V27.6753C26.1655 25.9535 25.3869 24.4107 24.1642 23.3783H25.8934C30.3706 23.3783 34 19.7488 34 15.2716Z"/>
</svg>
