<svg width="60" height="60" viewBox="0 0 60 60" fill="currentColor" xmlns="http://www.w3.org/2000/svg">
<path d="M55.2478 15.9375H46.0031L44.1281 42.1875H42.1875V34.6875H39.9544L38.3672 14.0625H29.1309L28.3847 23.7591L28.17 23.8659C26.8219 23.0784 25.3819 22.4869 23.88 22.1025L23.0475 20.625H16.3275L15.4931 22.1025C13.9903 22.4878 12.5512 23.0794 11.2031 23.8659L8.89594 22.7128L3.96187 27.6459L5.11594 29.9531C4.34812 31.2684 3.76594 32.6709 3.37969 34.1334L0.9375 34.9491V41.925L3.38063 42.7397C3.76594 44.2031 4.34813 45.6056 5.11688 46.9209L3.96281 49.2281L8.89687 54.1622L11.2059 53.0081C11.9766 53.4637 13.3434 54.2503 14.0634 54.6628V59.0625H59.0634V42.1875H57.1237L55.2478 15.9375ZM53.5022 17.8125L53.7703 21.5625H47.4797L47.7478 17.8125H53.5022ZM47.3456 23.4375H53.9044L55.2441 42.1875H46.0069L47.3456 23.4375ZM14.0625 34.6875V48.1763C10.6059 46.185 8.4375 42.5044 8.4375 38.4375C8.4375 32.2341 13.4841 27.1875 19.6875 27.1875C22.7831 27.1875 25.7297 28.4756 27.8503 30.7172L27.5456 34.6875H14.0625ZM30.435 21.5625H37.0641L38.0737 34.6875H29.4253L30.435 21.5625ZM36.6319 15.9375L36.9206 19.6875H30.5794L30.8681 15.9375H36.6319ZM11.7431 51.1444L11.2969 50.865L9.26625 51.8812L6.24375 48.8587L7.26 46.8272L6.98063 46.38C6.09188 44.9606 5.4525 43.4212 5.08125 41.8041L4.96313 41.2903L2.8125 40.5741V36.3L4.96313 35.5828L5.08125 35.0691C5.4525 33.4509 6.09188 31.9125 6.98063 30.4931L7.26 30.0469L6.24375 28.0163L9.26625 24.9947L11.2978 26.01L11.745 25.7306C13.1644 24.8409 14.7038 24.2025 16.3209 23.8313L16.725 23.7384L17.4225 22.5H21.9525L22.6509 23.7384L23.055 23.8313C24.6722 24.2025 26.2116 24.8419 27.6309 25.7306L28.0781 26.01L28.2188 25.9397L28.035 28.3331C25.6978 26.4038 22.7569 25.3125 19.6875 25.3125C12.45 25.3125 6.5625 31.2 6.5625 38.4375C6.5625 43.5394 9.48844 48.12 14.0625 50.2903V52.5C13.1456 51.9712 12.0609 51.3431 11.7431 51.1444ZM25.3125 57.1875H15.9375V36.5625H40.3125V42.1875H29.6119L25.3125 46.4869V57.1875ZM34.6875 57.1875H30.9375V51.5625H34.6875V57.1875ZM44.0625 57.1875H40.3125V51.5625H44.0625V57.1875ZM53.4375 57.1875H49.6875V51.5625H53.4375V57.1875ZM55.3125 57.1875V49.6875H47.8125V57.1875H45.9375V49.6875H38.4375V57.1875H36.5625V49.6875H29.0625V57.1875H27.1875V47.8125H57.1875V57.1875H55.3125ZM57.1875 45.9375H28.5131L30.3881 44.0625H57.1875V45.9375Z"/>
<path d="M47.8125 8.4375H56.25C56.7675 8.4375 57.1875 8.85844 57.1875 9.375C57.1875 9.89156 56.7675 10.3125 56.25 10.3125H54.375C52.8244 10.3125 51.5625 11.5744 51.5625 13.125V14.0625H53.4375V13.125C53.4375 12.6084 53.8575 12.1875 54.375 12.1875H56.25C57.8006 12.1875 59.0625 10.9256 59.0625 9.375C59.0625 7.82437 57.8006 6.5625 56.25 6.5625H47.8125V8.4375Z"/>
<path d="M45 12.1875H46.875C47.3925 12.1875 47.8125 12.6084 47.8125 13.125V14.0625H49.6875V13.125C49.6875 11.5744 48.4256 10.3125 46.875 10.3125H45C43.4494 10.3125 42.1875 9.05062 42.1875 7.5C42.1875 5.94937 43.4494 4.6875 45 4.6875H51.5625V2.8125H45C42.4153 2.8125 40.3125 4.91531 40.3125 7.5C40.3125 10.0847 42.4153 12.1875 45 12.1875Z"/>
<path d="M53.4375 2.8125H55.3125V4.6875H53.4375V2.8125Z"/>
<path d="M8.4375 6.5625H15C15.5175 6.5625 15.9375 6.98344 15.9375 7.5C15.9375 9.05062 17.1994 10.3125 18.75 10.3125H30C30.5175 10.3125 30.9375 10.7334 30.9375 11.25V12.1875H32.8125V11.25C32.8125 9.69938 31.5506 8.4375 30 8.4375H18.75C18.2325 8.4375 17.8125 8.01656 17.8125 7.5C17.8125 5.94938 16.5506 4.6875 15 4.6875H8.4375C7.92 4.6875 7.5 4.26656 7.5 3.75C7.5 3.23344 7.92 2.8125 8.4375 2.8125H18.75V0.9375H8.4375C6.88687 0.9375 5.625 2.19937 5.625 3.75C5.625 5.30062 6.88687 6.5625 8.4375 6.5625Z"/>
<path d="M27.1875 6.5625H30C32.5847 6.5625 34.6875 8.66531 34.6875 11.25V12.1875H36.5625V11.25C36.5625 7.63125 33.6178 4.6875 30 4.6875H27.1875C26.67 4.6875 26.25 4.26656 26.25 3.75C26.25 3.23344 26.67 2.8125 27.1875 2.8125H37.5V0.9375H27.1875C25.6369 0.9375 24.375 2.19937 24.375 3.75C24.375 5.30062 25.6369 6.5625 27.1875 6.5625Z"/>
<path d="M32.8125 38.4375H34.6875V40.3125H32.8125V38.4375Z"/>
<path d="M36.5625 38.4375H38.4375V40.3125H36.5625V38.4375Z"/>
<path d="M29.0625 38.4375H30.9375V40.3125H29.0625V38.4375Z"/>
<path d="M25.3125 38.4375H27.1875V40.3125H25.3125V38.4375Z"/>
<path d="M17.8125 38.4375H19.6875V40.3125H17.8125V38.4375Z"/>
<path d="M21.5625 38.4375H23.4375V40.3125H21.5625V38.4375Z"/>
<path d="M21.5625 42.1875H23.4375V44.0625H21.5625V42.1875Z"/>
<path d="M17.8125 42.1875H19.6875V44.0625H17.8125V42.1875Z"/>
<path d="M21.5625 45.9375H23.4375V47.8125H21.5625V45.9375Z"/>
<path d="M17.8125 45.9375H19.6875V47.8125H17.8125V45.9375Z"/>
<path d="M17.8125 49.6875H19.6875V51.5625H17.8125V49.6875Z"/>
<path d="M21.5625 49.6875H23.4375V51.5625H21.5625V49.6875Z"/>
<path d="M21.5625 53.4375H23.4375V55.3125H21.5625V53.4375Z"/>
<path d="M17.8125 53.4375H19.6875V55.3125H17.8125V53.4375Z"/>
<path d="M32.8125 23.4375H34.6875V25.3125H32.8125V23.4375Z"/>
<path d="M32.8125 30.9375H34.6875V32.8125H32.8125V30.9375Z"/>
<path d="M32.8125 27.1875H34.6875V29.0625H32.8125V27.1875Z"/>
<path d="M49.6875 25.3125H51.5625V27.1875H49.6875V25.3125Z"/>
<path d="M49.6875 32.8125H51.5625V34.6875H49.6875V32.8125Z"/>
<path d="M49.6875 29.0625H51.5625V30.9375H49.6875V29.0625Z"/>
<path d="M49.6875 36.5625H51.5625V38.4375H49.6875V36.5625Z"/>
</svg>
