<svg width="60" height="60" viewBox="0 0 60 60" fill="currentColor" xmlns="http://www.w3.org/2000/svg">
<g clip-path="url(#clip0)">
<path d="M60 20.4338C59.9986 19.5229 59.7307 18.5992 59.1383 17.8377L54.3843 11.7547C53.588 10.7436 52.3764 10.2288 51.1656 10.2268C50.445 10.2268 49.7113 10.4115 49.063 10.8158L44.4275 13.6998C43.94 14.0107 43.1043 14.2241 42.297 14.2186C41.6698 14.2213 41.0637 14.0958 40.6635 13.8981L36.1241 11.6993C35.3919 11.3468 34.5757 11.2023 33.7549 11.2009C32.5761 11.2064 31.3823 11.4961 30.423 12.1609L29.8934 12.5325C29.47 12.3212 28.823 11.9993 28.0901 11.6346C27.2112 11.2037 26.1777 11.0299 25.1338 11.0265C24.1908 11.0292 23.248 11.1745 22.4202 11.5242L19.3283 12.8435C18.8251 13.0617 18.0247 13.2042 17.2297 13.2007C16.4347 13.2041 15.6357 13.0616 15.1325 12.8435L12.0379 11.5235C11.4734 11.2828 10.87 11.1799 10.272 11.1792C9.58336 11.1799 8.89887 11.3156 8.26266 11.5733C7.62727 11.8324 7.03746 12.2149 6.56778 12.7398L0.933402 19.0499C0.30891 19.7472 -0.00128506 20.6254 4.00102e-06 21.4899C-0.00128506 22.5208 0.439809 23.555 1.29059 24.2798L6.54645 28.7639L4.05317 31.3649C3.36586 32.0822 3.02368 33.0122 3.02368 33.9317C3.02239 34.9101 3.41098 35.898 4.18067 36.6254L4.68645 37.106C5.16305 37.5581 5.73575 37.8457 6.33504 37.9991C6.03446 38.552 5.87016 39.1582 5.87145 39.7656C5.87016 40.7447 6.25875 41.7318 7.02704 42.46L7.02575 42.4594L7.53305 42.942C8.25516 43.6265 9.19125 43.9674 10.1135 43.9668C10.6092 43.9675 11.1055 43.8679 11.5719 43.6729C11.7356 44.337 12.0737 44.9683 12.6055 45.4728L13.1128 45.9555C13.8349 46.64 14.7695 46.9809 15.6933 46.9803C16.4154 46.981 17.1408 46.7682 17.7653 46.3551C17.948 46.9428 18.261 47.4998 18.7375 47.9525L19.2448 48.4352C19.9654 49.1197 20.9014 49.4606 21.8239 49.46C22.8063 49.4607 23.7984 49.0748 24.5312 48.3098L26.7348 46.0087L29.7286 48.7795C30.4452 49.4442 31.365 49.7749 32.273 49.7729C33.2705 49.775 34.2768 49.3754 35.0111 48.5893L35.4889 48.0773C35.9014 47.6342 36.1707 47.1098 36.327 46.5624L37.4866 47.6328C38.2045 48.2948 39.1231 48.6241 40.0297 48.6234C41.0285 48.6241 42.0376 48.2245 42.7726 47.4378L43.2478 46.9264C43.7966 46.3401 44.1055 45.6139 44.2009 44.8722C44.507 44.9506 44.8172 45.0038 45.1301 45.0038C46.1289 45.0038 47.1352 44.6049 47.8709 43.819L48.3475 43.3075C49.0136 42.5936 49.345 41.6781 49.3436 40.7754C49.3436 40.4952 49.3034 40.2164 49.2413 39.9409C50.0696 39.8311 50.8729 39.4616 51.4836 38.8057L51.9615 38.2937C52.6276 37.5798 52.9576 36.6642 52.9576 35.7608C52.9589 34.7668 52.5581 33.7638 51.7672 33.033L50.8734 32.2074L58.9404 23.2883C59.6646 22.4853 59.9987 21.4517 60 20.4338ZM7.26727 36.1012C6.83989 36.0999 6.42188 35.9471 6.09528 35.6376L5.58868 35.157C5.23817 34.8256 5.06508 34.3847 5.06368 33.9318C5.06508 33.5072 5.21707 33.0926 5.53008 32.7659L10.6366 27.4371C10.9693 27.09 11.4132 26.9162 11.8686 26.9156C12.2947 26.9163 12.7113 27.0697 13.0406 27.3799L13.5451 27.8612C13.5451 27.8612 14.0674 28.6336 14.0687 29.087C14.0674 29.4265 13.9651 29.7572 13.7667 30.0436C13.7497 30.0606 8.25516 35.7869 8.25516 35.7869C7.96336 35.9934 7.61836 36.0997 7.26727 36.1012ZM11.3456 41.4165C11.0136 41.7622 10.5704 41.9353 10.115 41.9367C9.68766 41.936 9.27094 41.7826 8.94305 41.4731L8.43575 40.991L8.43446 40.9903C8.08676 40.6603 7.91215 40.2179 7.91215 39.7651C7.91215 39.3404 8.06555 38.9258 8.37704 38.5992C8.37704 38.5992 15.184 31.5134 15.2413 31.4451C15.5666 31.1322 15.9858 30.9706 16.4187 30.9699C16.8461 30.9706 17.2628 31.1233 17.5907 31.4335L18.098 31.9162C18.447 32.2462 18.6203 32.688 18.6216 33.1414C18.6202 33.5661 18.4669 33.9813 18.1552 34.3079L11.3456 41.4165ZM16.9246 44.4292C16.5933 44.7757 16.1502 44.949 15.6947 44.9503C15.2673 44.9496 14.8506 44.7962 14.5227 44.486L14.014 44.0039C13.665 43.6732 13.4904 43.2315 13.4904 42.7787C13.4904 42.3997 13.6193 42.0321 13.866 41.726L18.6064 36.7782C18.9263 36.4898 19.327 36.3378 19.7423 36.3378C20.1697 36.3385 20.5864 36.4912 20.9143 36.8014L21.423 37.2841C21.7707 37.6141 21.9454 38.0559 21.9466 38.5086C21.9452 38.9341 21.7906 39.3493 21.4802 39.6751L16.9246 44.4292ZM25.9318 43.907L23.0554 46.9091C22.7239 47.2554 22.2802 47.4287 21.8248 47.43C21.3974 47.4293 20.9807 47.2759 20.6528 46.9657L20.1455 46.4836C19.7978 46.1536 19.6232 45.7112 19.6219 45.2584C19.6232 44.8329 19.7766 44.4177 20.0883 44.0925L22.9635 41.0905C23.2962 40.7442 23.7401 40.5703 24.1955 40.5696C24.6216 40.5703 25.0396 40.723 25.3675 41.0339L25.8762 41.516C26.2239 41.846 26.3971 42.2878 26.3985 42.7405C26.3968 43.1659 26.2434 43.5811 25.9318 43.907ZM50.9207 35.7635C50.9201 36.1804 50.7707 36.5888 50.468 36.9133L49.9914 37.4247C49.6587 37.7806 49.2073 37.9606 48.7451 37.9613C48.3258 37.9606 47.9153 37.8133 47.5895 37.5122L39.5581 30.0847L38.1693 31.5717L46.7659 39.5356C47.1239 39.867 47.3038 40.317 47.3065 40.7765C47.3038 41.1951 47.1558 41.6028 46.8538 41.9274L46.3786 42.4388C46.0459 42.7947 45.5945 42.974 45.1323 42.9754C44.713 42.9742 44.3012 42.8261 43.978 42.5268L35.9445 35.0995L34.5571 36.5865L41.6865 43.1795C42.0301 43.5088 42.2061 43.9472 42.2061 44.397C42.2061 44.8143 42.0581 45.2226 41.7561 45.5465L41.2795 46.0579C40.9481 46.4138 40.4954 46.5938 40.032 46.5951C39.6113 46.5938 39.2009 46.4458 38.8764 46.1465L31.7612 39.5775H31.7599L31.7586 39.5762L30.374 41.0659L30.3754 41.0672L30.402 41.0924L33.9656 44.3813C34.2813 44.7058 34.4449 45.1217 34.4462 45.5519C34.4449 45.9671 34.2982 46.3734 33.9962 46.6974L33.5196 47.2094C33.1869 47.5653 32.7369 47.7439 32.276 47.7453C31.8567 47.744 31.4462 47.5967 31.1217 47.2961L28.0189 44.4231C28.2889 43.8934 28.4397 43.3186 28.4397 42.7418C28.4409 41.7634 28.0523 40.7769 27.2841 40.0481L26.7754 39.5654C26.0548 38.8815 25.12 38.54 24.1976 38.5413C24.126 38.5413 24.0538 38.5577 23.9836 38.5618C23.9836 38.5448 23.9876 38.527 23.9876 38.51C23.9889 37.5316 22.832 35.8149 22.832 35.8149L22.3247 35.3336C21.7854 34.8222 21.1274 34.5033 20.443 34.375C20.5841 33.9756 20.6639 33.5597 20.6639 33.1431C20.6639 32.1647 20.2766 31.1774 19.5083 30.4494L19.001 29.9667C18.2789 29.2822 17.3443 28.9406 16.4218 28.9413C16.3141 28.9413 16.2079 28.9631 16.1007 28.9727C16.0714 28.0332 15.6931 27.0944 14.9568 26.3949V26.3942L14.4509 25.9136C13.7288 25.2284 12.7942 24.8868 11.8717 24.8875C10.8878 24.8868 9.89719 25.2727 9.16442 26.0377L7.95903 27.2956L2.61926 22.7413C2.23547 22.4127 2.04387 21.9586 2.04246 21.4923C2.04375 21.1016 2.17676 20.7191 2.46036 20.4015L8.09461 14.0915C8.31821 13.8406 8.64891 13.6136 9.03621 13.456C9.42352 13.2985 9.86321 13.212 10.2743 13.2126C10.6323 13.2126 10.9683 13.2774 11.237 13.3933L14.3303 14.7132C15.2023 15.0807 16.2147 15.2314 17.2321 15.2347C18.2507 15.2313 19.2618 15.0806 20.1339 14.7132L23.2257 13.3939C23.7023 13.186 24.4215 13.0571 25.1367 13.0598C25.9276 13.055 26.7198 13.2187 27.1793 13.4532C27.4711 13.5984 27.7479 13.7362 28.0049 13.865L24.8516 16.0816C23.8384 16.7941 23.2923 17.9272 23.2937 19.0706C23.2924 19.8274 23.5323 20.5978 24.0205 21.2516L24.0192 21.2502L24.4357 21.8099C25.2266 22.8613 26.4599 23.4018 27.6926 23.4045C28.3887 23.4045 29.0978 23.2286 29.7298 22.8495L31.6156 21.717C32.0002 21.4818 32.5809 21.3333 33.1815 21.3359C33.8872 21.3318 34.5983 21.5406 35.0258 21.8547L40.2429 25.595C41.404 26.4268 43.2952 27.9697 44.3432 28.9406L50.3817 34.5238C50.7393 34.8553 50.9193 35.3033 50.9207 35.7635ZM57.4263 21.931L49.3819 30.8263L45.7295 27.4501C44.5855 26.394 42.699 24.8539 41.4336 23.945L36.218 20.2047C35.3337 19.5783 34.251 19.3074 33.1806 19.3034C32.2697 19.3061 31.352 19.5047 30.5598 19.9763L28.6754 21.1088C28.3863 21.2826 28.0455 21.3713 27.6915 21.372C27.0587 21.3742 26.4254 21.0788 26.0723 20.5981L25.6572 20.0392L25.6557 20.0377C25.4348 19.7399 25.332 19.4058 25.3304 19.0675C25.3331 18.5561 25.569 18.0599 26.0259 17.7374L31.6016 13.8198C32.0837 13.4708 32.9414 13.226 33.7561 13.2321C34.322 13.2294 34.8626 13.3432 35.2328 13.526L39.772 15.7248C40.5459 16.0964 41.4193 16.2484 42.298 16.2505C43.427 16.245 44.5683 15.9996 45.5086 15.4221L50.1455 12.5375C50.4414 12.3528 50.7966 12.2573 51.1669 12.2573C51.7928 12.256 52.42 12.5396 52.7752 13.0025L57.5292 19.0855C57.8033 19.4339 57.9621 19.9254 57.9621 20.4348C57.9629 21.0044 57.7617 21.5649 57.4263 21.931Z"/>
</g>
<defs>
<clipPath id="clip0">
<rect width="60" height="60"/>
</clipPath>
</defs>
</svg>
