<svg width="60" height="60" viewBox="0 0 60 60" fill="currentColor" xmlns="http://www.w3.org/2000/svg">
<path d="M33.7657 15.0625H24.3515C23.3807 15.0625 22.5937 15.8495 22.5937 16.8203V30.125H20.5859C19.6152 30.125 18.8281 30.912 18.8281 31.8828C18.8281 32.8536 19.6152 33.6406 20.5859 33.6406H22.5937V37.6562H20.5859C19.6152 37.6562 18.8281 38.4433 18.8281 39.4141C18.8281 40.3848 19.6152 41.1719 20.5859 41.1719H22.5937V45.0625C22.5937 46.0333 23.3807 46.8203 24.3515 46.8203C25.3223 46.8203 26.1093 46.0333 26.1093 45.0625V41.1719H33.7657C34.7364 41.1719 35.5235 40.3848 35.5235 39.4141C35.5235 38.4433 34.7364 37.6562 33.7657 37.6562H26.1093V33.6406H33.7657C38.8877 33.6406 43.0548 29.4735 43.0548 24.3515C43.0546 19.1029 38.7793 15.0625 33.7657 15.0625ZM33.7657 30.125H26.1093V18.5781H33.7657C36.93 18.5781 39.5391 21.1305 39.5391 24.3516C39.539 27.5351 36.9492 30.125 33.7657 30.125Z"/>
<path d="M30 0C13.4579 0 0 13.4579 0 30C0 46.5421 13.4579 60 30 60C46.5421 60 60 46.5421 60 30C60 13.4579 46.5421 0 30 0ZM30 56.4844C15.3964 56.4844 3.51562 44.6036 3.51562 30C3.51562 15.3964 15.3964 3.51562 30 3.51562C44.6036 3.51562 56.4844 15.3964 56.4844 30C56.4844 44.6036 44.6036 56.4844 30 56.4844Z"/>
</svg>
