<svg width="60" height="60" viewBox="0 0 60 60" fill="currentColor" xmlns="http://www.w3.org/2000/svg">
<path d="M34.6809 6.01176C34.6809 5.28738 35.268 4.70026 35.9924 4.70026H36.3047C37.0291 4.70026 37.6162 5.28738 37.6162 6.01176C37.6162 6.73614 37.0291 7.32326 36.3047 7.32326H35.9924C35.2682 7.32326 34.6809 6.73614 34.6809 6.01176ZM36.4906 36.4991C36.4906 37.2235 37.0777 37.8106 37.8021 37.8106H38.1144C38.8388 37.8106 39.4259 37.2235 39.4259 36.4991C39.4259 35.7747 38.8388 35.1876 38.1144 35.1876H37.8021C37.0779 35.1876 36.4906 35.7747 36.4906 36.4991ZM37.9583 30.4874C41.2731 30.4874 43.97 33.1842 43.97 36.4991C43.97 39.3636 41.9561 41.7667 39.2698 42.3668V46.3492C39.2698 47.0736 38.6827 47.6607 37.9583 47.6607C37.234 47.6607 36.6468 47.0736 36.6468 46.3492V42.3668C33.9605 41.7668 31.9464 39.3637 31.9464 36.4991C31.9464 33.1842 34.6433 30.4874 37.9583 30.4874ZM37.9583 33.1104C36.0897 33.1104 34.5694 34.6307 34.5694 36.4991C34.5694 38.3676 36.0897 39.8879 37.9583 39.8879C39.8268 39.8879 41.347 38.3676 41.347 36.4991C41.347 34.6307 39.8268 33.1104 37.9583 33.1104ZM16.8359 19.0511C16.8359 15.7362 19.533 13.0393 22.848 13.0393C26.163 13.0393 28.8599 15.7362 28.8599 19.0511C28.8599 21.9156 26.8459 24.3187 24.1595 24.9189V28.9012C24.1595 29.6256 23.5724 30.2127 22.848 30.2127C22.1236 30.2127 21.5365 29.6256 21.5365 28.9012V24.9189C18.8503 24.3188 16.8359 21.9157 16.8359 19.0511ZM19.4589 19.0511C19.4589 20.9197 20.9793 22.4399 22.848 22.4399C24.7166 22.4399 26.2369 20.9197 26.2369 19.0511C26.2369 17.1825 24.7166 15.6623 22.848 15.6623C20.9793 15.6623 19.4589 17.1825 19.4589 19.0511ZM30.1367 6.01176C30.1367 2.69688 32.8336 0 36.1485 0C39.4635 0 42.1604 2.69688 42.1604 6.01176C42.1604 8.87622 40.1464 11.2793 37.46 11.8795V15.8618C37.46 16.5862 36.8729 17.1733 36.1485 17.1733C35.4241 17.1733 34.837 16.5862 34.837 15.8618V11.8794C32.1507 11.2793 30.1367 8.87622 30.1367 6.01176ZM32.7597 6.01176C32.7597 7.88035 34.2799 9.40052 36.1485 9.40052C38.0171 9.40052 39.5374 7.88035 39.5374 6.01176C39.5374 4.14317 38.0171 2.623 36.1485 2.623C34.2799 2.623 32.7597 4.14317 32.7597 6.01176ZM52.3171 22.67L50.1213 21.8752L48.3123 9.4881C48.0971 8.0131 47.28 6.79137 46.0114 6.04804C45.3862 5.68155 44.5829 5.89198 44.2169 6.51669C43.8506 7.14154 44.0604 7.94505 44.6854 8.31111C45.2774 8.65807 45.6147 9.16679 45.7169 9.86698L47.6394 23.0309C47.7092 23.509 48.0363 23.9101 48.4907 24.0746L51.4244 25.1365C53.4353 25.8643 53.6334 26.3662 53.5815 26.7222L50.4254 48.3322C50.2771 49.3482 49.6076 49.9928 48.4353 50.2486L28.5429 54.588C28.366 54.6265 28.2285 54.5974 28.0664 54.4876C27.6342 54.195 27.2402 53.4373 27.108 52.6454L27.0021 52.0102C26.9381 51.6261 26.7067 51.2903 26.3705 51.0938C26.0341 50.8967 25.6282 50.8602 25.262 50.9926L7.68606 57.354C7.43585 57.4449 7.12066 57.2052 7.02987 57.1297C6.61223 56.7817 6.34906 56.208 6.41799 55.795L12.5119 19.2969C12.6603 18.4077 13.1451 17.5642 13.6156 17.3763C14.2884 17.1079 14.616 16.3449 14.3474 15.6723C14.0789 14.9995 13.3157 14.6711 12.6434 14.9404C11.013 15.5911 10.1699 17.3947 9.92479 18.8653L3.83084 55.3631C3.60686 56.7051 4.20389 58.1895 5.35159 59.1453C6.0276 59.7083 6.79643 60 7.55972 60C7.90348 60 8.24636 59.9408 8.5789 59.8205L24.7349 53.9728C25.0982 55.1249 25.7614 56.0948 26.5954 56.6596C27.354 57.1733 28.2208 57.3429 29.1016 57.1508L48.994 52.8114C51.2442 52.3206 52.7121 50.8261 53.0206 48.7112L56.1766 27.1014C56.5978 24.2196 53.4878 23.0939 52.3171 22.67ZM22.6924 20.3626H23.0044C23.7287 20.3626 24.3158 19.7755 24.3158 19.0511C24.3158 18.3267 23.7287 17.7396 23.0044 17.7396H22.6924C21.968 17.7396 21.3809 18.3267 21.3809 19.0511C21.3809 19.7755 21.968 20.3626 22.6924 20.3626ZM20.224 10.6193C20.2971 10.6316 20.3698 10.6374 20.4415 10.6374C21.0709 10.6374 21.6266 10.1831 21.7335 9.54173L22.3993 5.55405C22.5316 4.76176 22.9257 4.00415 23.3579 3.71139C23.5201 3.60181 23.6582 3.57267 23.8345 3.61114L27.0831 4.31978C27.791 4.47468 28.4896 4.02557 28.6439 3.31794C28.7984 2.61032 28.3497 1.91158 27.6421 1.75712L24.3937 1.04847C23.5126 0.856408 22.6457 1.02603 21.8872 1.5397C20.8446 2.24572 20.0688 3.58491 19.8123 5.12198L19.1465 9.10966C19.0272 9.82414 19.5095 10.5001 20.224 10.6193Z" />
</svg>
