<svg width="60" height="60" viewBox="0 0 60 60" fill="currentColor" xmlns="http://www.w3.org/2000/svg">
<path d="M58.9995 35.0001H55.9325L53.9996 6.93225C53.9634 6.40674 53.5265 5.99951 52.9995 6.00025H46.9995C46.4725 5.99951 46.0356 6.40674 45.9994 6.93225L44.0665 35.0001H42V29.0001C42 28.4482 41.5521 28 41.0002 28C40.7725 27.9996 40.552 28.0773 40.3748 28.2194L31.9999 34.9192V29.0001C31.9999 28.4482 31.5524 28 31.0001 28C30.7727 27.9996 30.5522 28.0773 30.375 28.2194L22.0001 34.9192V29.0001C22.0001 28.4482 21.5526 28 21.0004 28C20.7729 27.9996 20.5521 28.0773 20.3752 28.2194L12.0004 34.9192V29.0001C12 28.4482 11.5521 28.0004 11.0002 28.0004C10.8182 28.0004 10.6406 28.0498 10.485 28.1432L0.484863 34.1432C0.184204 34.3241 0 34.6489 0 35.0001V59.0001C0 59.5524 0.447876 59.9999 1.00012 59.9999H58.9995C59.5518 59.9999 59.9996 59.5524 59.9996 59.0001V36.0002C59.9996 35.4476 59.5518 35.0001 58.9995 35.0001ZM47.9333 8.00012H52.0657L53.9282 35.0001H46.0708L47.9333 8.00012ZM33.9994 58V46H39.9994V58H33.9994ZM57.9998 58H42V44.9999C42 44.448 41.5518 44.0001 40.9995 44.0001H32.9996C32.4474 44.0001 31.9995 44.448 31.9995 44.9999V58H1.99988V35.5663L9.99976 30.7664V37C9.99976 37.5526 10.4473 38.0001 10.9995 38.0009C11.2266 38.0009 11.4474 37.9232 11.625 37.7811L19.9999 31.0813V37C19.9999 37.5526 20.447 38.0001 20.9996 38.0009C21.2267 38.0009 21.4471 37.9232 21.6248 37.7815L29.9996 31.0817V37.0004C29.9996 37.5526 30.4468 38.0009 30.9994 38.0009C31.2264 38.0009 31.4469 37.9232 31.6245 37.7815L39.9994 31.0817V36.0002C39.9994 36.5529 40.4473 37.0004 40.9995 37.0004H57.999V58H57.9998Z"/>
<path d="M33.9927 2.00051C34.3563 2.19533 34.6848 2.44948 34.965 2.75234C35.5256 3.43605 36.324 3.88136 37.1996 4.00038C38.1221 3.88283 38.9644 3.41811 39.5558 2.70033C39.8088 2.43483 40.0919 2.20009 40.3999 2.00051C40.6057 2.00966 41.1448 2.5143 41.4348 2.7853C41.9742 3.4529 42.7492 3.88759 43.5995 4.00038C44.5817 3.87587 45.4793 3.38332 46.1117 2.62233C46.3567 2.39235 46.7277 2.04335 46.7994 2.00051C47.3363 2.00051 47.4594 2.17848 47.7897 2.65456C48.2236 3.4745 49.0718 3.99123 49.9998 4.00038C50.5516 4.00038 50.9995 3.55251 50.9995 3.00063C50.9995 2.44802 50.5516 2.00051 49.9998 2.00051C49.7994 2.00051 49.7606 1.98659 49.4358 1.51747C48.9048 0.563494 47.8908 -0.0198805 46.7994 0.0002611C45.9905 0.112688 45.2544 0.528703 44.7417 1.16445C44.4096 1.47756 43.8529 2.00051 43.6416 2.00527C43.3318 1.81777 43.0491 1.58925 42.7993 1.32668C42.198 0.594255 41.3396 0.120012 40.3995 0.0002611C39.5327 0.118547 38.7432 0.560198 38.1884 1.23622C37.9078 1.53725 37.5837 1.79469 37.2274 2.00051C36.8942 1.80934 36.5909 1.57057 36.3276 1.29042C35.7432 0.580705 34.9111 0.120012 33.9993 0.0002611C33.4474 -0.00156995 32.9977 0.444475 32.9959 0.997087C32.994 1.54897 33.4404 1.99867 33.9927 2.00051Z"/>
<path d="M11.0002 46H6.99976C6.44751 46 6 46.4479 6 46.9998V52.9998C6 53.5524 6.44751 53.9999 6.99976 53.9999H11.0002C11.5521 53.9999 12 53.5524 12 52.9998V46.9998C12 46.4479 11.5521 46 11.0002 46ZM9.99976 52H7.99988V48.0003H9.99976V52Z"/>
<path d="M19.0001 46H15C14.4474 46 13.9999 46.4479 13.9999 46.9998V52.9998C13.9999 53.5524 14.4474 53.9999 15 53.9999H19.0001C19.552 53.9999 19.9999 53.5524 19.9999 52.9998V46.9998C19.9999 46.4479 19.552 46 19.0001 46ZM17.9996 52H15.9998V48.0003H17.9996V52Z"/>
<path d="M27 46H22.9999C22.4473 46 21.9998 46.4479 21.9998 46.9998V52.9998C21.9998 53.5524 22.4473 53.9999 22.9999 53.9999H27C27.5519 53.9999 27.9998 53.5524 27.9998 52.9998V46.9998C27.9998 46.4479 27.5519 46 27 46ZM25.9995 52H23.9996V48.0003H25.9995V52Z"/>
</svg>
