<svg width="25" height="25" viewBox="0 0 25 25" fill="currentColor" xmlns="http://www.w3.org/2000/svg">
<path d="M1.5625 22.656V2.34352C1.5625 1.91202 1.91226 1.56227 2.34375 1.56227H14.0625V4.68727C14.0625 5.55021 14.7621 6.24977 15.625 6.24977H18.75V8.59352H20.3125V5.46852C20.3137 5.26085 20.2322 5.06124 20.0859 4.91383L15.3984 0.226331C15.251 0.0800906 15.0514 -0.00140355 14.8438 -0.000231675H2.34375C1.04932 -0.000231675 0 1.04913 0 2.34352V22.656C0 23.9505 1.04932 24.9998 2.34375 24.9998H7.8125V23.4373H2.34375C1.9123 23.4373 1.5625 23.0875 1.5625 22.656Z"/>
<path d="M10.2422 12.9297L9.375 14.6563L8.50781 12.9297C8.37544 12.667 8.10669 12.5009 7.8125 12.5H6.25V14.0625H7.32813L8.5 16.4063L7.32813 18.75H6.25V20.3125H7.8125C8.10669 20.3116 8.37544 20.1455 8.50781 19.8828L9.375 18.1563L10.2422 19.8828C10.3746 20.1455 10.6433 20.3116 10.9375 20.3125H12.5V18.75H11.4219L10.25 16.4063L11.4219 14.0625H12.5V12.5H10.9375C10.6433 12.5009 10.3746 12.667 10.2422 12.9297Z"/>
<path d="M22.6562 15.625H21.0938C20.6623 15.625 20.3125 15.2752 20.3125 14.8438C20.3125 14.4123 20.6623 14.0625 21.0938 14.0625H22.6562C23.0877 14.0625 23.4375 14.4123 23.4375 14.8438H25C25 13.5493 23.9507 12.5 22.6562 12.5H21.0938C19.7993 12.5 18.75 13.5493 18.75 14.8438C18.75 16.1382 19.7993 17.1875 21.0938 17.1875H22.6562C23.0877 17.1875 23.4375 17.5373 23.4375 17.9688C23.4375 18.4003 23.0877 18.75 22.6562 18.75H21.0938C20.6623 18.75 20.3125 18.4003 20.3125 17.9688H18.75C18.75 19.2632 19.7993 20.3125 21.0938 20.3125H22.6562C23.9507 20.3125 25 19.2632 25 17.9688C25 16.6744 23.9507 15.625 22.6562 15.625Z"/>
<path d="M14.8438 12.5H13.2812V19.5313C13.2812 19.9628 13.631 20.3125 14.0625 20.3125H17.9688V18.75H14.8438V12.5Z"/>
</svg>
