<svg width="25" height="25" viewBox="0 0 25 25" fill="currentColor" xmlns="http://www.w3.org/2000/svg">
<path d="M20.3125 8.59376V5.46876C20.3137 5.2611 20.2322 5.06149 20.0859 4.91407L15.3984 0.226575C15.251 0.0803347 15.0514 -0.00115941 14.8438 1.24658e-05H2.34375C1.04932 1.24658e-05 0 1.04938 0 2.34376V22.6563C0 23.9507 1.04932 25 2.34375 25H7.8125V23.4375H2.34375C1.91226 23.4375 1.5625 23.0878 1.5625 22.6563V2.34376C1.5625 1.91227 1.91226 1.56251 2.34375 1.56251H14.0625V4.68751C14.0625 5.55045 14.7621 6.25001 15.625 6.25001H18.75V8.59376H20.3125Z"/>
<path d="M23.4375 12.5002H20.3125C19.881 12.5002 19.5312 12.85 19.5312 13.2815V20.3128H21.0938V17.969H23.4375C24.3004 17.969 25 17.2694 25 16.4065V14.0627C25 13.1998 24.3004 12.5002 23.4375 12.5002ZM23.4375 16.4065H21.0938V14.0627H23.4375V16.4065Z"/>
<path d="M18.75 12.5002H17.1875V20.3128H18.75V12.5002Z"/>
<path d="M16.0406 12.619C15.916 12.5411 15.7719 12.5 15.625 12.5002H10.9375V14.0627H14.2187L11.0937 19.1174C10.8646 19.483 10.9752 19.9651 11.3408 20.1943C11.4545 20.2656 11.5847 20.3064 11.7187 20.3127H16.4062V18.7502H13.125L16.2891 13.6956C16.5178 13.3297 16.4065 12.8477 16.0406 12.619Z"/>
</svg>
